<svg id="Layer_1" data-name="Layer 1" xmlns="http://www.w3.org/2000/svg" viewBox="0 0 292.7 331.41"><defs><style>.cls-1{font-size:17.05px;}.cls-1,.cls-10,.cls-2,.cls-4,.cls-6,.cls-7{fill:#585858;}.cls-1,.cls-13,.cls-2,.cls-6{font-family:ArialMT, Arial;}.cls-13,.cls-2{font-size:9px;}.cls-11,.cls-3,.cls-8{fill:none;}.cls-11,.cls-3{stroke:#585858;}.cls-4,.cls-5,.cls-6{font-size:9px;}.cls-4,.cls-5{font-family:Arial-BoldMT, Arial;font-weight:700;}.cls-5,.cls-9{fill:#48a548;}.cls-7{stroke:#808285;}.cls-7,.cls-8{stroke-miterlimit:10;stroke-width:2px;}.cls-8{stroke:#6cc04a;}.cls-11{stroke-linecap:square;}.cls-12{fill:#6cc04a;}.cls-13{fill:#fff;}</style></defs><title>all_charts_L13</title><text class="cls-1" transform="translate(11.32 215.1) rotate(-90) scale(0.53 0.53)">Percent of Patients Alive and Recurrence-free</text><text class="cls-2" transform="translate(10.06 7.74)">100</text><line class="cls-3" x1="30.44" y1="50.8" x2="26.71" y2="50.8"/><text class="cls-2" transform="translate(15.06 54.93)">80</text><line class="cls-3" x1="30.44" y1="27.2" x2="26.71" y2="27.2"/><line class="cls-3" x1="30.44" y1="3.59" x2="26.71" y2="3.59"/><text class="cls-2" transform="translate(15.06 31.34)">90</text><line class="cls-3" x1="30.44" y1="74.4" x2="26.71" y2="74.4"/><text class="cls-2" transform="translate(15.06 78.53)">70</text><line class="cls-3" x1="30.44" y1="97.99" x2="26.71" y2="97.99"/><text class="cls-2" transform="translate(15.06 102.13)">60</text><line class="cls-3" x1="30.44" y1="145.19" x2="26.71" y2="145.19"/><text class="cls-2" transform="translate(15.06 149.33)">40</text><line class="cls-3" x1="30.44" y1="168.79" x2="26.71" y2="168.79"/><text class="cls-2" transform="translate(15.06 172.92)">30</text><line class="cls-3" x1="30.44" y1="215.98" x2="26.71" y2="215.98"/><text class="cls-2" transform="translate(15.06 220.12)">10</text><line class="cls-3" x1="30.44" y1="121.59" x2="26.71" y2="121.59"/><text class="cls-2" transform="translate(15.06 125.73)">50</text><line class="cls-3" x1="30.44" y1="192.39" x2="26.71" y2="192.39"/><text class="cls-2" transform="translate(15.06 196.52)">20</text><text class="cls-2" transform="translate(143.39 274.18)">Months</text><text class="cls-4" transform="translate(23.84 274.34)">No. at Risk</text><text class="cls-5" transform="translate(23.84 287.84)">KEYTRUDA:</text><text class="cls-6" transform="translate(23.84 317.98)">Placebo:</text><text class="cls-5" transform="translate(150.54 299.84)">313</text><text class="cls-6" transform="translate(150.53 329.83)">264</text><text class="cls-5" transform="translate(217.38 299.84)">73</text><text class="cls-6" transform="translate(217.38 329.83)">60</text><line class="cls-7" x1="53.17" y1="150.14" x2="42.32" y2="150.14"/><line class="cls-8" x1="53.17" y1="139.63" x2="42.32" y2="139.63"/><path class="cls-9" d="M58,142.83v-6.44h1.3v2.86l2.63-2.86h1.75l-2.43,2.51,2.56,3.93H62.11l-1.77-3-1.05,1.07v2Z"/><path class="cls-9" d="M64.47,142.83v-6.44h4.78v1.09H65.77v1.43H69V140H65.77v1.76h3.6v1.08Z"/><path class="cls-9" d="M72.16,142.83v-2.71l-2.36-3.73h1.53l1.51,2.55,1.49-2.55h1.5l-2.37,3.74v2.7Z"/><path class="cls-9" d="M77.92,142.83v-5.35H76v-1.09h5.12v1.09H79.22v5.35Z"/><path class="cls-9" d="M82,142.83v-6.44h2.74a4.86,4.86,0,0,1,1.5.17,1.51,1.51,0,0,1,.75.62,1.86,1.86,0,0,1,.28,1,1.67,1.67,0,0,1-.43,1.19,2,2,0,0,1-1.27.6,3,3,0,0,1,.7.54,7.72,7.72,0,0,1,.74,1l.78,1.26H86.21l-.94-1.4a9,9,0,0,0-.69-1,1,1,0,0,0-.39-.27,2.44,2.44,0,0,0-.65-.07h-.27v2.69Zm1.3-3.72h1A5.25,5.25,0,0,0,85.4,139a.75.75,0,0,0,.37-.28.93.93,0,0,0,0-1,.85.85,0,0,0-.49-.25c-.11,0-.42,0-.95,0h-1Z"/><path class="cls-9" d="M88.46,136.39h1.3v3.49a6.32,6.32,0,0,0,0,1.08,1,1,0,0,0,.39.63,1.39,1.39,0,0,0,.86.24,1.33,1.33,0,0,0,.84-.23.88.88,0,0,0,.34-.55,9,9,0,0,0,.05-1.1v-3.56h1.3v3.38a8.82,8.82,0,0,1-.1,1.64,1.8,1.8,0,0,1-.39.81,2,2,0,0,1-.76.53,3.33,3.33,0,0,1-1.24.19,3.64,3.64,0,0,1-1.4-.21,2,2,0,0,1-.75-.56,1.55,1.55,0,0,1-.36-.71,7.42,7.42,0,0,1-.13-1.63Z"/><path class="cls-9" d="M95,136.39h2.38a4.73,4.73,0,0,1,1.22.12,2.18,2.18,0,0,1,1,.6,2.77,2.77,0,0,1,.62,1,4.76,4.76,0,0,1,.21,1.52,4.26,4.26,0,0,1-.2,1.37,2.81,2.81,0,0,1-.69,1.14,2.34,2.34,0,0,1-.91.52,4,4,0,0,1-1.15.13H95Zm1.3,1.09v4.27h1a3,3,0,0,0,.79-.07,1.22,1.22,0,0,0,.52-.26,1.34,1.34,0,0,0,.34-.62,4.18,4.18,0,0,0,.13-1.18,3.77,3.77,0,0,0-.13-1.15,1.39,1.39,0,0,0-.37-.63,1.22,1.22,0,0,0-.6-.3,6.06,6.06,0,0,0-1.07-.06Z"/><path class="cls-9" d="M107.27,142.83h-1.41l-.57-1.46h-2.57l-.53,1.46h-1.38l2.51-6.44h1.37Zm-2.39-2.55-.89-2.39-.87,2.39Z"/><path class="cls-10" d="M58,153.63v-6.44h2.09a8,8,0,0,1,1.54.09,1.7,1.7,0,0,1,.93.64,2,2,0,0,1,.38,1.25,2.17,2.17,0,0,1-.22,1,1.7,1.7,0,0,1-.55.63,1.76,1.76,0,0,1-.67.31,7.61,7.61,0,0,1-1.35.09h-.85v2.43Zm1.3-5.35v1.83H60a3.17,3.17,0,0,0,1-.11.83.83,0,0,0,.56-.81.81.81,0,0,0-.21-.58.93.93,0,0,0-.52-.29,6.43,6.43,0,0,0-.94,0Z"/><path class="cls-10" d="M64,153.63v-6.44H65.2v6.44Z"/><path class="cls-10" d="M67.39,150.39l-1.12-.21a1.71,1.71,0,0,1,.65-1,2.41,2.41,0,0,1,1.37-.32,3,3,0,0,1,1.23.19,1.24,1.24,0,0,1,.57.5,2.55,2.55,0,0,1,.16,1.1v1.45a4.82,4.82,0,0,0,.06.9,2.5,2.5,0,0,0,.22.63H69.3a2.69,2.69,0,0,1-.12-.37.93.93,0,0,0-.05-.14,2.23,2.23,0,0,1-.67.46,2,2,0,0,1-.77.15,1.61,1.61,0,0,1-1.14-.39,1.32,1.32,0,0,1-.41-1,1.29,1.29,0,0,1,.19-.7,1.24,1.24,0,0,1,.53-.48,4.42,4.42,0,0,1,1-.28,6.1,6.1,0,0,0,1.2-.31v-.12a.63.63,0,0,0-.18-.51,1,1,0,0,0-.66-.15,1,1,0,0,0-.52.13A.89.89,0,0,0,67.39,150.39Zm1.65,1-.75.19a2.26,2.26,0,0,0-.68.21.53.53,0,0,0-.24.44.62.62,0,0,0,.2.45.69.69,0,0,0,.49.18,1.08,1.08,0,0,0,.64-.22.81.81,0,0,0,.29-.4,2.61,2.61,0,0,0,.05-.61Z"/><path class="cls-10" d="M75.54,150.34l-1.22.22A.94.94,0,0,0,74,150a.84.84,0,0,0-.56-.18.9.9,0,0,0-.74.32,1.63,1.63,0,0,0-.27,1.06,2,2,0,0,0,.27,1.18,1,1,0,0,0,.75.34.85.85,0,0,0,.58-.2,1.17,1.17,0,0,0,.31-.69l1.22.21a2.2,2.2,0,0,1-.73,1.26,2.25,2.25,0,0,1-1.43.42,2.15,2.15,0,0,1-1.64-.64,2.53,2.53,0,0,1-.6-1.79,2.5,2.5,0,0,1,.61-1.8,2.14,2.14,0,0,1,1.65-.64,2.25,2.25,0,0,1,1.35.36A2.06,2.06,0,0,1,75.54,150.34Z"/><path class="cls-10" d="M79.17,152.14l1.23.21a2,2,0,0,1-.74,1,2.2,2.2,0,0,1-1.29.35,2.08,2.08,0,0,1-1.8-.79,2.74,2.74,0,0,1-.46-1.61,2.57,2.57,0,0,1,.61-1.82,2,2,0,0,1,1.53-.65,2.05,2.05,0,0,1,1.64.69,3,3,0,0,1,.58,2.1H77.38a1.28,1.28,0,0,0,.3.86.93.93,0,0,0,.71.3.76.76,0,0,0,.49-.16A.9.9,0,0,0,79.17,152.14Zm.07-1.24a1.19,1.19,0,0,0-.27-.82.88.88,0,0,0-.64-.28.85.85,0,0,0-.67.3,1.12,1.12,0,0,0-.26.8Z"/><path class="cls-10" d="M81.42,153.63v-6.44h1.24v2.32a1.72,1.72,0,0,1,1.35-.65,1.81,1.81,0,0,1,1.41.61,2.6,2.6,0,0,1,.56,1.78,2.7,2.7,0,0,1-.57,1.84,1.77,1.77,0,0,1-1.38.64,1.63,1.63,0,0,1-.79-.2,1.87,1.87,0,0,1-.67-.59v.69Zm1.23-2.43a2,2,0,0,0,.23,1.07,1,1,0,0,0,.85.49.89.89,0,0,0,.7-.35,1.73,1.73,0,0,0,.28-1.1,1.77,1.77,0,0,0-.29-1.15.9.9,0,0,0-.74-.36,1,1,0,0,0-.74.35A1.62,1.62,0,0,0,82.65,151.2Z"/><path class="cls-10" d="M86.69,151.23A2.53,2.53,0,0,1,87,150a2.09,2.09,0,0,1,.86-.88,2.56,2.56,0,0,1,1.24-.3,2.33,2.33,0,0,1,2.41,2.42,2.44,2.44,0,0,1-.68,1.76,2.33,2.33,0,0,1-1.72.69,2.58,2.58,0,0,1-1.22-.29,1.93,1.93,0,0,1-.89-.85A2.82,2.82,0,0,1,86.69,151.23Zm1.26.07a1.55,1.55,0,0,0,.33,1.06,1.08,1.08,0,0,0,1.63,0,1.93,1.93,0,0,0,0-2.13,1.08,1.08,0,0,0-1.63,0A1.56,1.56,0,0,0,88,151.3Z"/><line class="cls-11" x1="30.44" y1="239.57" x2="30.44" y2="3.59"/><line class="cls-11" x1="284.86" y1="239.57" x2="31.21" y2="239.57"/><line class="cls-3" x1="30.44" y1="239.57" x2="26.71" y2="239.57"/><text class="cls-2" transform="translate(20.06 243.7)">0</text><text class="cls-2" transform="translate(27.93 258.44)">0</text><line class="cls-3" x1="30.43" y1="239.57" x2="30.43" y2="246.33"/><text class="cls-5" transform="translate(22.92 299.84)">514</text><text class="cls-6" transform="translate(22.92 329.83)">505</text><text class="cls-2" transform="translate(59.15 258.44)">3</text><line class="cls-3" x1="62.12" y1="239.57" x2="62.12" y2="246.33"/><text class="cls-5" transform="translate(54.83 299.84)">438</text><text class="cls-6" transform="translate(54.82 329.83)">415</text><text class="cls-2" transform="translate(91.18 258.44)">6</text><line class="cls-3" x1="94.01" y1="239.57" x2="94.01" y2="246.33"/><text class="cls-5" transform="translate(86.73 299.84)">413</text><text class="cls-6" transform="translate(86.73 329.83)">363</text><text class="cls-2" transform="translate(123.21 258.44)">9</text><line class="cls-3" x1="125.89" y1="239.57" x2="125.89" y2="246.33"/><text class="cls-5" transform="translate(118.64 299.84)">392</text><text class="cls-6" transform="translate(118.63 329.83)">323</text><line class="cls-3" x1="157.78" y1="239.57" x2="157.78" y2="246.33"/><text class="cls-2" transform="translate(184.75 258.44)">15</text><line class="cls-3" x1="189.66" y1="239.57" x2="189.66" y2="246.33"/><text class="cls-5" transform="translate(182.44 299.84)">182</text><text class="cls-6" transform="translate(182.44 329.83)">157</text><line class="cls-3" x1="222.08" y1="239.57" x2="222.08" y2="246.33"/><line class="cls-3" x1="284.86" y1="239.57" x2="284.86" y2="246.33"/><text class="cls-2" transform="translate(280.65 258.44)">24</text><text class="cls-5" transform="translate(282.73 299.84)">0</text><text class="cls-6" transform="translate(282.73 329.83)">0</text><line class="cls-3" x1="253.41" y1="239.57" x2="253.41" y2="246.33"/><text class="cls-2" transform="translate(248.78 258.44)">21</text><text class="cls-5" transform="translate(248.72 299.84)">15</text><text class="cls-6" transform="translate(248.72 329.83)">15</text><circle class="cls-12" cx="157.78" cy="254.57" r="9.09"/><text class="cls-13" transform="translate(152.51 258.44)">12</text><circle class="cls-12" cx="222.08" cy="254.57" r="9.09"/><text class="cls-13" transform="translate(216.31 258.44)">18</text></svg>