<svg id="Layer_1" data-name="Layer 1" xmlns="http://www.w3.org/2000/svg" viewBox="0 0 292.7 331.41"><defs><style>.cls-1{fill:#808285;}.cls-2{fill:none;stroke-linecap:square;}.cls-2,.cls-3{stroke:#808285;stroke-miterlimit:10;stroke-width:2px;}.cls-3{fill:#fff;}</style></defs><title>all_charts_L13</title><path class="cls-1" d="M159.06,234.52h-2v-2l2,0Zm0-5.05h-2v-2l2,0Zm0-5.06h-2v-2l2,0Zm0-5.06h-2v-2l2,0Zm0-5h-2v-2l2,0Zm0-5.06h-2v-2l2,0Zm0-5.05h-2v-2l2,0Zm0-5.06h-2v-2l2,0Zm0-5h-2v-2l2,0Zm0-5.06h-2v-2l2,0Zm0-5.05h-2v-2l2,0Zm0-5.06h-2v-2l2,0Zm0-5h-2v-2l2,0Zm0-5.06h-2v-2l2,0Zm0-5.06h-2v-2l2,0Zm0-5.05h-2v-2l2,0Zm0-5.06h-2v-2l2,0Zm0-5h-2v-2l2,0Zm0-5.06h-2v-2l2,0Zm0-5.05h-2v-2l2,0Zm0-5.06h-2v-2l2,0Zm0-5h-2v-2l2,0Zm0-5.06h-2v-2l2,0Zm0-5.06h-2v-2l2,0Zm0-5h-2v-2l2,0Zm0-5.06h-2v-2l2,0Zm0-5h-2v-2l2,0Zm0-5.06h-2V96l2,0Z"/><polygon class="cls-1" points="159.06 239.57 157.06 239.57 157.06 237.57 159.06 237.56 159.06 239.57"/><polyline class="cls-2" points="30.44 3.59 30.79 3.59 30.79 5 33.58 5 33.58 5.46 38.11 5.46 38.11 5.94 38.45 5.94 38.45 6.41 39.5 6.41 39.5 6.89 40.54 6.89 40.54 7.35 41.59 7.35 41.59 7.82 42.63 7.82 42.63 8.3 43.67 8.3 43.67 8.76 44.02 8.76 44.02 9.24 45.42 9.24 45.42 11.12 46.11 11.12 46.11 12.53 46.81 12.53 46.81 13.01 47.16 13.01 47.16 13.47 47.51 13.47 47.51 13.95 48.9 13.95 48.9 14.42 50.29 14.42 50.29 14.88 53.08 14.88 53.08 16.31 53.43 16.31 53.43 17.25 53.78 17.25 53.78 18.18 54.12 18.18 54.12 18.66 54.47 18.66 54.47 19.13 55.51 19.13 55.51 19.61 55.87 19.61 55.87 20.07 56.91 20.07 56.91 20.54 57.26 20.54 57.26 21.02 57.61 21.02 57.61 22.89 57.95 22.89 57.95 24.32 58.3 24.32 58.3 25.24 58.65 25.24 58.65 26.67 59 26.67 59 27.62 59.34 27.62 59.34 29.97 59.69 29.97 59.69 32.33 60.05 32.33 60.05 35.16 60.4 35.16 60.4 38.96 60.74 38.96 60.74 40.37 61.09 40.37 61.44 40.37 61.44 41.31 61.78 41.31 61.78 42.27 62.13 42.27 62.13 42.74 62.48 42.74 62.48 43.22 65.96 43.22 65.96 43.7 67.36 43.7 67.36 44.64 67.7 44.64 67.7 45.12 68.4 45.12 68.4 45.59 69.45 45.59 69.45 46.07 73.62 46.07 73.62 46.55 74.67 46.55 74.67 47.01 76.76 47.01 76.76 47.49 77.11 47.49 77.11 47.97 77.45 47.97 77.45 48.44 78.85 48.44 78.85 48.92 79.55 48.92 79.55 49.4 79.89 49.4 79.89 49.88 80.94 49.88 80.94 50.34 81.98 50.34 81.98 51.3 85.12 51.3 85.12 51.77 86.16 51.77 86.16 52.73 86.86 52.73 86.86 53.19 87.2 53.19 87.2 54.62 87.9 54.62 87.9 55.1 88.25 55.1 88.25 56.06 88.6 56.06 88.6 56.52 88.95 56.52 88.95 58.91 89.29 58.91 89.29 61.28 89.64 61.28 89.64 62.24 89.99 62.24 89.99 62.71 90.34 62.71 90.34 63.19 90.69 63.19 90.69 63.66 91.03 63.66 91.03 64.61 91.39 64.61 91.73 64.61 91.73 65.09 92.08 65.09 92.08 65.57 92.43 65.57 92.43 66.04 93.47 66.04 93.47 66.52 95.57 66.52 95.57 67 95.91 67 95.91 67.48 96.96 67.48 96.96 68.42 97.65 68.42 97.65 68.9 100.79 68.9 100.79 69.38 102.18 69.38 102.18 69.86 102.53 69.86 102.53 70.33 103.22 70.33 103.22 70.81 104.27 70.81 104.27 71.29 104.62 71.29 104.62 71.77 105.66 71.77 106.7 71.77 106.7 72.25 110.89 72.25 110.89 72.71 112.97 72.71 112.97 73.19 113.32 73.19 113.32 73.67 116.11 73.67 116.11 74.64 116.46 74.64 116.46 75.12 116.8 75.12 116.8 76.06 117.15 76.06 117.15 77.02 117.5 77.02 117.5 77.5 118.19 77.5 118.19 78.46 118.54 78.46 118.54 79.89 118.89 79.89 118.89 81.81 119.94 81.81 119.94 82.29 120.29 82.29 120.29 82.77 120.98 82.77 120.98 83.25 121.33 83.25 121.33 83.73 123.42 83.73 123.42 84.21 124.12 84.21 124.12 84.69 126.2 84.69 126.2 85.17 129.68 85.17 129.68 85.65 134.56 85.65 134.56 86.13 138.04 86.13 138.04 86.61 141.53 86.61 144.66 86.61 145.01 86.61 145.35 86.61 145.35 87.09 145.7 87.09 146.05 87.09 146.05 87.59 146.75 87.59 146.75 88.07 147.1 88.07 147.1 88.56 147.45 88.56 147.45 90.04 147.8 90.04 147.8 91.51 148.14 91.51 148.14 92 148.49 92 148.49 92.51 148.84 92.51 148.84 93.01 149.18 93.01 149.88 93.01 149.88 93.54 150.24 93.54 150.58 93.54 150.58 94.05 150.93 94.05 151.63 94.05 151.97 94.05 151.97 94.59 152.67 94.59 153.02 94.59 153.36 94.59 154.07 94.59 154.07 95.13 155.11 95.13 155.11 95.67 160.33 95.67"/><path class="cls-1" d="M125.35,103.75,123,104a1.8,1.8,0,0,0-.45-1.09,1.37,1.37,0,0,0-1-.35,1.62,1.62,0,0,0-1.32.71,5.92,5.92,0,0,0-.69,2.92,2.92,2.92,0,0,1,2.3-1.09,3.5,3.5,0,0,1,2.65,1.18,4.3,4.3,0,0,1,1.1,3,4.36,4.36,0,0,1-1.16,3.17,4.22,4.22,0,0,1-6.19-.32c-.83-1-1.25-2.66-1.25-5s.43-4.06,1.31-5.1a4.2,4.2,0,0,1,3.4-1.57,3.64,3.64,0,0,1,2.43.82A3.85,3.85,0,0,1,125.35,103.75Zm-5.59,5.39a2.81,2.81,0,0,0,.55,1.86,1.64,1.64,0,0,0,1.26.65,1.48,1.48,0,0,0,1.15-.53,2.75,2.75,0,0,0,.45-1.76,2.81,2.81,0,0,0-.49-1.84,1.57,1.57,0,0,0-2.43,0A2.41,2.41,0,0,0,119.76,109.14Z"/><path class="cls-1" d="M133.32,113.48h-2.47v-9.31a8.46,8.46,0,0,1-3.19,1.87V103.8a7.2,7.2,0,0,0,2.1-1.2,4.56,4.56,0,0,0,1.55-2.06h2Z"/><path class="cls-1" d="M137,103.78a3.71,3.71,0,0,1,.76-2.57,2.62,2.62,0,0,1,2.06-.83,2.68,2.68,0,0,1,2.1.83,4.71,4.71,0,0,1,0,5.13,2.63,2.63,0,0,1-2.06.84,2.7,2.7,0,0,1-2.1-.83A3.71,3.71,0,0,1,137,103.78Zm1.92,0a3.38,3.38,0,0,0,.29,1.69.7.7,0,0,0,.61.31.69.69,0,0,0,.61-.31,3.41,3.41,0,0,0,.28-1.69,3.34,3.34,0,0,0-.28-1.68.69.69,0,0,0-.61-.33.71.71,0,0,0-.61.32A3.38,3.38,0,0,0,139,103.76ZM141.73,114H139.9l6.86-13.59h1.78Zm4-3.38a3.71,3.71,0,0,1,.76-2.57,3,3,0,0,1,4.16,0,4.73,4.73,0,0,1,0,5.14,2.63,2.63,0,0,1-2.06.84,2.7,2.7,0,0,1-2.1-.84A3.69,3.69,0,0,1,145.72,110.59Zm1.92,0a3.31,3.31,0,0,0,.29,1.68.71.71,0,0,0,.61.32.69.69,0,0,0,.61-.31,5.07,5.07,0,0,0,0-3.38.76.76,0,0,0-1.22,0A3.38,3.38,0,0,0,147.64,110.58Z"/><circle class="cls-3" cx="158.06" cy="95.67" r="6.82"/></svg>