<svg id="Layer_1" data-name="Layer 1" xmlns="http://www.w3.org/2000/svg" viewBox="0 0 292.7 331.41"><defs><style>.cls-1{fill:#808285;}.cls-2,.cls-3{fill:none;stroke-linecap:square;}.cls-2,.cls-5{stroke:#808285;}.cls-2,.cls-3,.cls-5,.cls-6{stroke-miterlimit:10;stroke-width:2px;}.cls-3,.cls-6{stroke:#6cc04a;}.cls-4{fill:#48a548;}.cls-5,.cls-6{fill:#fff;}</style></defs><title>all_charts_L13</title><polygon class="cls-1" points="159.06 62.63 157.06 62.63 157.06 60.63 159.06 60.62 159.06 62.63"/><path class="cls-1" d="M159.06,234.52h-2v-2l2,0Zm0-5.05h-2v-2l2,0Zm0-5.06h-2v-2l2,0Zm0-5.06h-2v-2l2,0Zm0-5h-2v-2l2,0Zm0-5.06h-2v-2l2,0Zm0-5.05h-2v-2l2,0Zm0-5.06h-2v-2l2,0Zm0-5h-2v-2l2,0Zm0-5.06h-2v-2l2,0Zm0-5.05h-2v-2l2,0Zm0-5.06h-2v-2l2,0Zm0-5h-2v-2l2,0Zm0-5.06h-2v-2l2,0Zm0-5.06h-2v-2l2,0Zm0-5.05h-2v-2l2,0Zm0-5.06h-2v-2l2,0Zm0-5h-2v-2l2,0Zm0-5.06h-2v-2l2,0Zm0-5.05h-2v-2l2,0Zm0-5.06h-2v-2l2,0Zm0-5h-2v-2l2,0Zm0-5.06h-2v-2l2,0Zm0-5.06h-2v-2l2,0Zm0-5h-2v-2l2,0Zm0-5.06h-2v-2l2,0Zm0-5h-2v-2l2,0Zm0-5.06h-2V96l2,0Zm0-5h-2V91l2,0Zm0-5.06h-2v-2l2,0Zm0-5h-2v-2l2,0Zm0-5.06h-2v-2l2,0Zm0-5.06h-2v-2l2,0Zm0-5h-2v-2l2,0Z"/><polygon class="cls-1" points="159.06 239.57 157.06 239.57 157.06 237.57 159.06 237.56 159.06 239.57"/><path class="cls-1" d="M222.88,234.51h-2v-2l2,0Zm0-5.08h-2v-2l2,0Zm0-5.07h-2v-2l2,0Zm0-5.07h-2v-2l2,0Zm0-5.07h-2v-2l2,0Zm0-5.07h-2v-2l2,0Zm0-5.08h-2v-2l2,0Zm0-5.07h-2v-2l2,0Zm0-5.07h-2v-2l2,0Zm0-5.07h-2v-2l2,0Zm0-5.07h-2v-2l2,0Zm0-5.08h-2v-2l2,0Zm0-5.07h-2v-2l2,0Zm0-5.07h-2v-2l2,0Zm0-5.07h-2v-2l2,0Zm0-5.07h-2v-2l2,0Zm0-5.07h-2v-2l2,0Zm0-5.08h-2v-2l2,0Zm0-5.07h-2v-2l2,0Zm0-5.07h-2v-2l2,0Zm0-5.07h-2v-2l2,0Zm0-5.07h-2v-2l2,0Zm0-5.08h-2v-2l2,0Zm0-5.07h-2v-2l2,0Z"/><polygon class="cls-1" points="222.88 239.57 220.88 239.57 220.88 237.57 222.88 237.56 222.88 239.57"/><polyline class="cls-2" points="30.44 3.59 30.79 3.59 30.79 5 33.58 5 33.58 5.46 38.11 5.46 38.11 5.94 38.45 5.94 38.45 6.41 39.5 6.41 39.5 6.89 40.54 6.89 40.54 7.35 41.59 7.35 41.59 7.82 42.63 7.82 42.63 8.3 43.67 8.3 43.67 8.76 44.02 8.76 44.02 9.24 45.42 9.24 45.42 11.12 46.11 11.12 46.11 12.53 46.81 12.53 46.81 13.01 47.16 13.01 47.16 13.47 47.51 13.47 47.51 13.95 48.9 13.95 48.9 14.42 50.29 14.42 50.29 14.88 53.08 14.88 53.08 16.31 53.43 16.31 53.43 17.25 53.78 17.25 53.78 18.18 54.12 18.18 54.12 18.66 54.47 18.66 54.47 19.13 55.51 19.13 55.51 19.61 55.87 19.61 55.87 20.07 56.91 20.07 56.91 20.54 57.26 20.54 57.26 21.02 57.61 21.02 57.61 22.89 57.95 22.89 57.95 24.32 58.3 24.32 58.3 25.24 58.65 25.24 58.65 26.67 59 26.67 59 27.62 59.34 27.62 59.34 29.97 59.69 29.97 59.69 32.33 60.05 32.33 60.05 35.16 60.4 35.16 60.4 38.96 60.74 38.96 60.74 40.37 61.09 40.37 61.44 40.37 61.44 41.31 61.78 41.31 61.78 42.27 62.13 42.27 62.13 42.74 62.48 42.74 62.48 43.22 65.96 43.22 65.96 43.7 67.36 43.7 67.36 44.64 67.7 44.64 67.7 45.12 68.4 45.12 68.4 45.59 69.45 45.59 69.45 46.07 73.62 46.07 73.62 46.55 74.67 46.55 74.67 47.01 76.76 47.01 76.76 47.49 77.11 47.49 77.11 47.97 77.45 47.97 77.45 48.44 78.85 48.44 78.85 48.92 79.55 48.92 79.55 49.4 79.89 49.4 79.89 49.88 80.94 49.88 80.94 50.34 81.98 50.34 81.98 51.3 85.12 51.3 85.12 51.77 86.16 51.77 86.16 52.73 86.86 52.73 86.86 53.19 87.2 53.19 87.2 54.62 87.9 54.62 87.9 55.1 88.25 55.1 88.25 56.06 88.6 56.06 88.6 56.52 88.95 56.52 88.95 58.91 89.29 58.91 89.29 61.28 89.64 61.28 89.64 62.24 89.99 62.24 89.99 62.71 90.34 62.71 90.34 63.19 90.69 63.19 90.69 63.66 91.03 63.66 91.03 64.61 91.39 64.61 91.73 64.61 91.73 65.09 92.08 65.09 92.08 65.57 92.43 65.57 92.43 66.04 93.47 66.04 93.47 66.52 95.57 66.52 95.57 67 95.91 67 95.91 67.48 96.96 67.48 96.96 68.42 97.65 68.42 97.65 68.9 100.79 68.9 100.79 69.38 102.18 69.38 102.18 69.86 102.53 69.86 102.53 70.33 103.22 70.33 103.22 70.81 104.27 70.81 104.27 71.29 104.62 71.29 104.62 71.77 105.66 71.77 106.7 71.77 106.7 72.25 110.89 72.25 110.89 72.71 112.97 72.71 112.97 73.19 113.32 73.19 113.32 73.67 116.11 73.67 116.11 74.64 116.46 74.64 116.46 75.12 116.8 75.12 116.8 76.06 117.15 76.06 117.15 77.02 117.5 77.02 117.5 77.5 118.19 77.5 118.19 78.46 118.54 78.46 118.54 79.89 118.89 79.89 118.89 81.81 119.94 81.81 119.94 82.29 120.29 82.29 120.29 82.77 120.98 82.77 120.98 83.25 121.33 83.25 121.33 83.73 123.42 83.73 123.42 84.21 124.12 84.21 124.12 84.69 126.2 84.69 126.2 85.17 129.68 85.17 129.68 85.65 134.56 85.65 134.56 86.13 138.04 86.13 138.04 86.61 141.53 86.61 144.66 86.61 145.01 86.61 145.35 86.61 145.35 87.09 145.7 87.09 146.05 87.09 146.05 87.59 146.75 87.59 146.75 88.07 147.1 88.07 147.1 88.56 147.45 88.56 147.45 90.04 147.8 90.04 147.8 91.51 148.14 91.51 148.14 92 148.49 92 148.49 92.51 148.84 92.51 148.84 93.01 149.18 93.01 149.88 93.01 149.88 93.54 150.24 93.54 150.58 93.54 150.58 94.05 150.93 94.05 151.63 94.05 151.97 94.05 151.97 94.59 152.67 94.59 153.02 94.59 153.36 94.59 154.07 94.59 154.07 95.13 155.11 95.13 155.11 95.67 160.33 95.67 161.73 95.67 162.42 95.67 162.77 95.67 163.12 95.67 163.12 96.77 163.47 96.77 163.81 96.77 164.16 96.77 164.51 96.77 164.85 96.77 164.85 97.35 165.21 97.35 165.21 97.93 165.55 97.93 166.25 97.93 166.25 98.52 166.6 98.52 166.95 98.52 166.95 99.13 167.3 99.13 167.3 100.4 167.64 100.4 168.34 100.4 168.69 100.4 168.69 101.05 169.04 101.05 169.38 101.05 169.74 101.05 170.08 101.05 170.43 101.05 170.78 101.05 171.47 101.05 171.82 101.05 172.17 101.05 173.57 101.05 173.57 101.75 174.26 101.75 174.61 101.75 174.96 101.75 175.3 101.75 175.65 101.75 176.35 101.75 177.75 101.75 178.09 101.75 178.44 101.75 178.79 101.75 179.14 101.75 179.48 101.75 179.83 101.75 180.18 101.75 180.53 101.75 182.62 101.75 183.66 101.75 184.71 101.75 185.41 101.75 186.1 101.75 186.1 102.58 186.45 102.58 186.45 103.42 186.8 103.42 189.24 103.42 189.24 104.29 190.63 104.29 190.97 104.29 191.32 104.29 191.67 104.29 192.02 104.29 192.37 104.29 193.07 104.29 193.42 104.29 193.76 104.29 193.76 105.22 194.11 105.22 194.46 105.22 194.81 105.22 194.81 106.25 195.15 106.25 195.5 106.25 195.85 106.25 196.19 106.25 196.19 107.37 196.55 107.37 196.9 107.37 197.25 107.37 197.25 108.59 197.59 108.59 197.94 108.59 198.29 108.59 198.64 108.59 198.98 108.59 199.33 108.59 200.03 108.59 200.73 108.59 201.08 108.59 201.42 108.59 201.77 108.59 201.77 110.1 202.12 110.1 202.81 110.1 203.86 110.1 204.21 110.1 204.91 110.1 205.26 110.1 205.95 110.1 208.39 110.1 208.74 110.1 209.43 110.1 209.78 110.1 210.82 110.1 211.18 110.1 211.18 111.97 211.52 111.97 212.22 111.97 215.01 111.97 216.75 111.97 218.48 111.97 219.88 111.97 219.88 114.06 221.97 114.06 222.66 114.06 223.01 114.06 223.36 114.06 223.71 114.06 223.71 116.48 224.06 116.48 224.41 116.48 224.76 116.48 225.45 116.48 225.8 116.48 226.84 116.48 227.54 116.48 228.24 116.48 228.59 116.48 229.63 116.48 229.98 116.48 231.72 116.48 232.42 116.48 233.11 116.48 233.81 116.48 235.55 116.48 235.55 120.58 236.25 120.58 236.6 120.58 237.98 120.58 238.33 120.58 241.12 120.58 244.26 120.58 245.65 120.58 246.7 120.58 246.7 126.53 247.39 126.53 250.18 126.53 251.22 126.53 252.96 126.53 253.31 126.53 255.4 126.53 256.44 126.53 256.79 126.53 257.49 126.53 257.83 126.53 258.54 126.53 259.58 126.53 259.93 126.53 262.72 126.53 264.1 126.53 267.59 126.53 271.77 126.53 279.08 126.53"/><polyline class="cls-3" points="30.44 3.59 30.79 3.59 30.79 5.9 34.28 5.9 34.28 6.36 37.41 6.36 37.41 6.83 37.76 6.83 37.76 7.29 38.8 7.29 38.8 8.69 39.84 8.69 39.84 9.15 40.19 9.15 40.19 10.08 41.94 10.08 41.94 10.54 43.33 10.54 43.33 11.01 45.42 11.01 45.42 11.47 46.11 11.47 46.11 11.94 46.46 11.94 46.46 12.4 47.16 12.4 47.16 12.87 48.9 12.87 48.9 13.33 52.73 13.33 52.73 14.28 53.08 14.28 53.08 14.74 53.43 14.74 53.43 15.21 55.87 15.21 55.87 15.67 57.26 15.67 57.26 16.14 57.61 16.14 57.61 17.07 57.95 17.07 57.95 17.53 58.3 17.53 58.3 18.46 58.65 18.46 58.65 19.39 59 19.39 59.34 19.39 59.34 20.32 59.69 20.32 59.69 21.73 60.05 21.73 60.05 27.32 60.4 27.32 60.4 29.66 60.74 29.66 60.74 30.59 61.09 30.59 61.09 32.93 61.44 32.93 61.44 33.86 61.78 33.86 61.78 34.32 62.13 34.32 62.13 34.8 62.48 34.8 62.83 34.8 62.83 35.27 64.57 35.27 64.57 35.73 65.96 35.73 65.96 36.2 71.18 36.2 71.18 36.68 72.23 36.68 72.23 37.14 74.32 37.14 74.32 37.61 81.98 37.61 81.98 38.07 83.03 38.07 83.03 38.55 83.38 38.55 83.38 39.02 84.42 39.02 84.42 39.48 86.16 39.48 86.16 39.95 87.2 39.95 88.6 39.95 88.6 40.89 89.29 40.89 89.29 41.84 89.64 41.84 89.64 43.71 90.34 43.71 90.34 44.18 92.43 44.18 92.43 44.66 93.12 44.66 93.12 45.12 93.47 45.12 93.47 45.59 94.86 45.59 94.86 46.07 95.22 46.07 100.79 46.07 100.79 46.53 103.57 46.53 103.57 47 104.27 47 104.27 47.48 106.36 47.48 106.36 47.94 110.89 47.94 110.89 48.41 111.58 48.41 111.58 48.88 112.63 48.88 112.63 49.35 113.67 49.35 113.67 49.83 116.46 49.83 116.46 50.3 118.89 50.3 118.89 50.76 120.63 50.76 120.63 51.24 122.02 51.24 122.02 51.71 122.72 51.71 122.72 52.19 123.08 52.19 123.08 52.65 123.42 52.65 123.42 53.13 124.12 53.13 124.12 53.6 126.2 53.6 126.2 54.08 129.34 54.08 129.34 54.56 130.04 54.56 130.04 55.02 132.13 55.02 132.13 55.5 133.17 55.5 133.17 55.97 137.35 55.97 137.35 56.45 138.04 56.45 138.04 56.93 140.48 56.93 142.58 56.93 143.27 56.93 143.62 56.93 144.31 56.93 144.66 56.93 145.01 56.93 145.35 56.93 146.41 56.93 146.75 56.93 147.1 56.93 147.45 56.93 147.8 56.93 147.8 57.42 148.14 57.42 148.14 57.94 148.49 57.94 148.84 57.94 148.84 58.45 149.18 58.45 149.54 58.45 149.54 58.99 149.88 58.99 150.24 58.99 150.24 59.51 150.58 59.51 150.58 60.06 151.28 60.06 151.63 60.06 151.63 60.6 153.72 60.6 154.07 60.6 154.41 60.6 155.11 60.6 155.11 61.16 155.46 61.16 156.15 61.16 156.15 61.71 156.5 61.71 156.85 61.71 157.54 61.71 158.59 61.71 159.63 61.71 159.98 61.71 160.33 61.71"/><path class="cls-1" d="M125.35,103.75,123,104a1.8,1.8,0,0,0-.45-1.09,1.37,1.37,0,0,0-1-.35,1.61,1.61,0,0,0-1.32.71,5.81,5.81,0,0,0-.69,2.92,2.92,2.92,0,0,1,2.3-1.09,3.5,3.5,0,0,1,2.65,1.18,4.3,4.3,0,0,1,1.1,3,4.36,4.36,0,0,1-1.16,3.17,4.22,4.22,0,0,1-6.19-.32c-.83-1-1.25-2.66-1.25-5s.43-4.06,1.31-5.1a4.2,4.2,0,0,1,3.4-1.57,3.64,3.64,0,0,1,2.43.82A3.85,3.85,0,0,1,125.35,103.75Zm-5.6,5.39a2.81,2.81,0,0,0,.56,1.86,1.64,1.64,0,0,0,1.26.65,1.48,1.48,0,0,0,1.15-.53,2.75,2.75,0,0,0,.45-1.76,2.81,2.81,0,0,0-.49-1.84,1.57,1.57,0,0,0-2.43,0A2.41,2.41,0,0,0,119.75,109.14Z"/><path class="cls-1" d="M133.32,113.48h-2.47v-9.31a8.46,8.46,0,0,1-3.19,1.87V103.8a7.2,7.2,0,0,0,2.1-1.2,4.56,4.56,0,0,0,1.55-2.06h2Z"/><path class="cls-1" d="M137,103.78a3.71,3.71,0,0,1,.76-2.57,2.62,2.62,0,0,1,2.06-.83,2.69,2.69,0,0,1,2.1.83,4.71,4.71,0,0,1,0,5.13,2.64,2.64,0,0,1-2.06.84,2.7,2.7,0,0,1-2.1-.83A3.71,3.71,0,0,1,137,103.78Zm1.92,0a3.38,3.38,0,0,0,.29,1.69.7.7,0,0,0,.61.31.69.69,0,0,0,.61-.31,3.41,3.41,0,0,0,.28-1.69,3.34,3.34,0,0,0-.28-1.68.69.69,0,0,0-.61-.33.71.71,0,0,0-.61.32A3.38,3.38,0,0,0,139,103.76ZM141.73,114H139.9l6.86-13.59h1.78Zm4-3.38a3.71,3.71,0,0,1,.76-2.57,3,3,0,0,1,4.16,0,4.73,4.73,0,0,1,0,5.14,2.63,2.63,0,0,1-2.06.84,2.7,2.7,0,0,1-2.1-.84A3.69,3.69,0,0,1,145.72,110.59Zm1.92,0a3.31,3.31,0,0,0,.29,1.68.71.71,0,0,0,.61.32.7.7,0,0,0,.61-.31,5.07,5.07,0,0,0,0-3.38.76.76,0,0,0-1.22,0A3.38,3.38,0,0,0,147.64,110.58Z"/><path class="cls-1" d="M181.65,129.75l2.46-.25a2.13,2.13,0,0,0,.62,1.32,1.7,1.7,0,0,0,1.2.49,1.67,1.67,0,0,0,1.31-.63,2.9,2.9,0,0,0,.53-1.89,2.64,2.64,0,0,0-.53-1.79,1.78,1.78,0,0,0-1.38-.59,2.54,2.54,0,0,0-1.91.94l-2-.29,1.26-6.7h6.53v2.31h-4.66l-.38,2.19a3.74,3.74,0,0,1,4.47.78,4.31,4.31,0,0,1,1.14,3.1,4.68,4.68,0,0,1-.92,2.84,4.09,4.09,0,0,1-3.49,1.71,4.33,4.33,0,0,1-2.91-1A3.92,3.92,0,0,1,181.65,129.75Z"/><path class="cls-1" d="M191.53,129.65l2.39-.29a2.28,2.28,0,0,0,.62,1.39,1.65,1.65,0,0,0,1.21.49,1.7,1.7,0,0,0,1.29-.58,2.26,2.26,0,0,0,.52-1.57,2,2,0,0,0-.5-1.47,1.57,1.57,0,0,0-1.22-.55,4,4,0,0,0-1.13.19l.27-2a2.14,2.14,0,0,0,1.53-.43,1.57,1.57,0,0,0,.53-1.23,1.37,1.37,0,0,0-.39-1,1.39,1.39,0,0,0-1-.39,1.46,1.46,0,0,0-1.08.44,2.08,2.08,0,0,0-.55,1.28l-2.27-.39a5.2,5.2,0,0,1,.71-1.86,3.25,3.25,0,0,1,1.34-1.1,4.43,4.43,0,0,1,1.92-.4,3.81,3.81,0,0,1,2.92,1.16,2.94,2.94,0,0,1-1,4.85,3,3,0,0,1,1.77,1.06,3.11,3.11,0,0,1,.66,2,3.89,3.89,0,0,1-1.23,2.89,4.62,4.62,0,0,1-6,.19A4,4,0,0,1,191.53,129.65Z"/><path class="cls-1" d="M201.65,123.36a3.68,3.68,0,0,1,.76-2.56,2.64,2.64,0,0,1,2.06-.84,2.73,2.73,0,0,1,2.11.83,4.73,4.73,0,0,1,0,5.14,2.65,2.65,0,0,1-2.06.83,2.7,2.7,0,0,1-2.11-.83A3.69,3.69,0,0,1,201.65,123.36Zm1.92,0a3.35,3.35,0,0,0,.29,1.69.75.75,0,0,0,1.23,0,3.5,3.5,0,0,0,.28-1.69,3.43,3.43,0,0,0-.28-1.67.7.7,0,0,0-.62-.33.71.71,0,0,0-.61.32A3.34,3.34,0,0,0,203.57,123.34Zm2.78,10.22h-1.83l6.87-13.6h1.77Zm4-3.39a3.73,3.73,0,0,1,.76-2.56,3,3,0,0,1,4.17,0,3.68,3.68,0,0,1,.76,2.56,3.73,3.73,0,0,1-.76,2.58,2.65,2.65,0,0,1-2.06.83,2.7,2.7,0,0,1-2.11-.83A3.79,3.79,0,0,1,210.34,130.17Zm1.93,0a3.18,3.18,0,0,0,.29,1.67.73.73,0,0,0,1.21,0,3.34,3.34,0,0,0,.29-1.68,3.38,3.38,0,0,0-.28-1.69.72.72,0,0,0-.62-.32.68.68,0,0,0-.6.32A3.25,3.25,0,0,0,212.27,130.17Z"/><path class="cls-4" d="M141.08,39.87V37.58h8.45v1.79a13.19,13.19,0,0,0-2.13,3,17.18,17.18,0,0,0-1.65,4.09,15.24,15.24,0,0,0-.55,3.87h-2.39a16.4,16.4,0,0,1,1.11-5.45,18.11,18.11,0,0,1,2.78-5Z"/><path class="cls-4" d="M151.13,47l2.46-.26a2.11,2.11,0,0,0,.62,1.32,1.7,1.7,0,0,0,1.2.49,1.67,1.67,0,0,0,1.31-.63,2.9,2.9,0,0,0,.53-1.89,2.58,2.58,0,0,0-.53-1.78,1.74,1.74,0,0,0-1.38-.59,2.5,2.5,0,0,0-1.91.94l-2-.29,1.26-6.71h6.53v2.31h-4.65l-.39,2.19a3.66,3.66,0,0,1,1.69-.41,3.72,3.72,0,0,1,2.78,1.19,4.31,4.31,0,0,1,1.14,3.1,4.6,4.6,0,0,1-.92,2.84,4.09,4.09,0,0,1-3.49,1.71,4.33,4.33,0,0,1-2.91-1A3.92,3.92,0,0,1,151.13,47Z"/><path class="cls-4" d="M161.12,40.59a3.71,3.71,0,0,1,.76-2.57,2.64,2.64,0,0,1,2.06-.84,2.71,2.71,0,0,1,2.11.84,3.74,3.74,0,0,1,.76,2.57,3.73,3.73,0,0,1-.76,2.56A2.65,2.65,0,0,1,164,44a2.73,2.73,0,0,1-2.11-.83A3.71,3.71,0,0,1,161.12,40.59Zm1.93,0a3.27,3.27,0,0,0,.29,1.69.67.67,0,0,0,.6.31.71.71,0,0,0,.62-.31,3.53,3.53,0,0,0,.28-1.69,3.45,3.45,0,0,0-.28-1.68.7.7,0,0,0-.62-.33.68.68,0,0,0-.6.32A3.27,3.27,0,0,0,163.05,40.57Zm2.77,10.21H164l6.87-13.6h1.78Zm4-3.38a3.76,3.76,0,0,1,.76-2.57,3,3,0,0,1,4.17,0,3.71,3.71,0,0,1,.76,2.57,3.69,3.69,0,0,1-.76,2.57,2.64,2.64,0,0,1-2.06.84,2.71,2.71,0,0,1-2.11-.84A3.74,3.74,0,0,1,169.81,47.4Zm1.93,0a3.2,3.2,0,0,0,.29,1.68.7.7,0,0,0,.61.32.67.67,0,0,0,.6-.31,3.38,3.38,0,0,0,.29-1.69,3.41,3.41,0,0,0-.28-1.69.71.71,0,0,0-.61-.32.69.69,0,0,0-.61.32A3.27,3.27,0,0,0,171.74,47.39Z"/><circle class="cls-5" cx="158.06" cy="95.67" r="6.82"/><circle class="cls-5" cx="221.88" cy="114.48" r="6.82"/><circle class="cls-6" cx="158.06" cy="61.62" r="6.82"/></svg>