<svg id="Layer_1" data-name="Layer 1" xmlns="http://www.w3.org/2000/svg" xmlns:xlink="http://www.w3.org/1999/xlink" viewBox="0 0 292.7 331.41"><defs><style>.cls-1{fill:url(#linear-gradient);}.cls-2{fill:#808285;}.cls-10,.cls-3,.cls-4{fill:none;}.cls-3,.cls-6{stroke:#808285;}.cls-10,.cls-3,.cls-4,.cls-8{stroke-linecap:square;}.cls-3,.cls-4,.cls-6,.cls-7{stroke-miterlimit:10;stroke-width:2px;}.cls-4,.cls-7{stroke:#6cc04a;}.cls-5{fill:#48a548;}.cls-6,.cls-7,.cls-8{fill:#fff;}.cls-10,.cls-8{stroke:#585858;}.cls-9{fill:#585858;}</style><linearGradient id="linear-gradient" x1="30.44" y1="65.06" x2="281.17" y2="65.06" gradientUnits="userSpaceOnUse"><stop offset="0.76" stop-color="#daedda"/><stop offset="0.85" stop-color="#e5f2e5"/><stop offset="0.99" stop-color="#fff"/></linearGradient></defs><title>all_charts_L13</title><polygon class="cls-1" points="30.44 3.59 30.79 3.59 30.79 5.9 34.28 5.9 34.28 6.36 37.41 6.36 37.41 6.83 37.76 6.83 37.76 7.29 38.8 7.29 38.8 8.69 39.84 8.69 39.84 9.15 40.19 9.15 40.19 10.08 41.94 10.08 41.94 10.54 43.33 10.54 43.33 11.01 45.42 11.01 45.42 11.47 46.11 11.47 46.11 11.94 46.46 11.94 46.46 12.4 47.16 12.4 47.16 12.87 48.9 12.87 48.9 13.33 52.73 13.33 52.73 14.28 53.08 14.28 53.08 14.74 53.43 14.74 53.43 15.21 55.87 15.21 55.87 15.67 57.26 15.67 57.26 16.14 57.61 16.14 57.61 17.07 57.95 17.07 57.95 17.53 58.3 17.53 58.3 18.46 58.65 18.46 58.65 19.39 59 19.39 59.34 19.39 59.34 20.32 59.69 20.32 59.69 21.73 60.05 21.73 60.05 27.32 60.4 27.32 60.4 29.66 60.74 29.66 60.74 30.59 61.09 30.59 61.09 32.93 61.44 32.93 61.44 33.86 61.78 33.86 61.78 34.32 62.13 34.32 62.13 34.8 62.48 34.8 62.83 34.8 62.83 35.27 64.57 35.27 64.57 35.73 65.96 35.73 65.96 36.2 71.18 36.2 71.18 36.68 72.23 36.68 72.23 37.14 74.32 37.14 74.32 37.61 81.98 37.61 81.98 38.07 83.03 38.07 83.03 38.55 83.38 38.55 83.38 39.02 84.42 39.02 84.42 39.48 86.16 39.48 86.16 39.95 87.2 39.95 88.6 39.95 88.6 40.89 89.29 40.89 89.29 41.84 89.64 41.84 89.64 43.71 90.34 43.71 90.34 44.18 92.43 44.18 92.43 44.66 93.12 44.66 93.12 45.12 93.47 45.12 93.47 45.59 94.86 45.59 94.86 46.07 95.22 46.07 100.79 46.07 100.79 46.53 103.57 46.53 103.57 47 104.27 47 104.27 47.48 106.36 47.48 106.36 47.94 110.89 47.94 110.89 48.41 111.58 48.41 111.58 48.88 112.63 48.88 112.63 49.35 113.67 49.35 113.67 49.83 116.46 49.83 116.46 50.3 118.89 50.3 118.89 50.76 120.63 50.76 120.63 51.24 122.02 51.24 122.02 51.71 122.72 51.71 122.72 52.19 123.08 52.19 123.08 52.65 123.42 52.65 123.42 53.13 124.12 53.13 124.12 53.6 126.2 53.6 126.2 54.08 129.34 54.08 129.34 54.56 130.04 54.56 130.04 55.02 132.13 55.02 132.13 55.5 133.17 55.5 133.17 55.97 137.35 55.97 137.35 56.45 138.04 56.45 138.04 56.93 140.48 56.93 142.58 56.93 143.27 56.93 143.62 56.93 144.31 56.93 144.66 56.93 145.01 56.93 145.35 56.93 146.41 56.93 146.75 56.93 147.1 56.93 147.45 56.93 147.8 56.93 147.8 57.42 148.14 57.42 148.14 57.94 148.49 57.94 148.84 57.94 148.84 58.45 149.18 58.45 149.54 58.45 149.54 58.99 149.88 58.99 150.24 58.99 150.24 59.51 150.58 59.51 150.58 60.06 151.28 60.06 151.63 60.06 151.63 60.6 153.72 60.6 154.07 60.6 154.41 60.6 155.11 60.6 155.11 61.16 155.46 61.16 156.15 61.16 156.15 61.71 156.5 61.71 156.85 61.71 157.54 61.71 158.59 61.71 159.63 61.71 159.98 61.71 160.33 61.71 162.42 61.71 162.77 61.71 163.12 61.71 163.47 61.71 163.81 61.71 164.16 61.71 164.51 61.71 164.85 61.71 165.21 61.71 165.21 62.33 165.55 62.33 165.91 62.33 165.91 62.97 166.25 62.97 166.6 62.97 166.95 62.97 166.95 63.62 167.3 63.62 167.3 64.29 167.64 64.29 168.34 64.29 168.69 64.29 169.04 64.29 169.38 64.29 169.74 64.29 170.43 64.29 171.13 64.29 171.47 64.29 171.82 64.29 172.17 64.29 172.52 64.29 173.57 64.29 173.57 65.05 174.26 65.05 174.61 65.05 174.96 65.05 175.65 65.05 176 65.05 176.35 65.05 176.69 65.05 177.04 65.05 177.4 65.05 177.4 65.85 178.44 65.85 178.79 65.85 179.14 65.85 179.48 65.85 179.83 65.85 180.18 65.85 180.53 65.85 182.27 65.85 182.62 65.85 182.97 65.85 183.31 65.85 183.31 66.73 183.66 66.73 184.71 66.73 185.06 66.73 185.41 66.73 186.1 66.73 188.19 66.73 188.54 66.73 188.89 66.73 188.89 67.66 189.24 67.66 189.59 67.66 189.93 67.66 190.28 67.66 190.28 68.63 190.97 68.63 191.32 68.63 192.02 68.63 192.37 68.63 192.72 68.63 193.42 68.63 193.76 68.63 194.11 68.63 194.46 68.63 194.81 68.63 195.15 68.63 195.5 68.63 195.85 68.63 196.19 68.63 196.55 68.63 196.9 68.63 197.25 68.63 197.59 68.63 197.59 69.88 197.94 69.88 198.29 69.88 198.64 69.88 198.98 69.88 199.68 69.88 199.68 71.2 200.03 71.2 200.73 71.2 201.08 71.2 201.42 71.2 201.77 71.2 202.12 71.2 202.47 71.2 202.81 71.2 203.16 71.2 203.51 71.2 204.21 71.2 204.91 71.2 205.26 71.2 205.95 71.2 206.3 71.2 206.64 71.2 206.99 71.2 207.34 71.2 207.69 71.2 208.39 71.2 208.74 71.2 209.43 71.2 210.13 71.2 211.52 71.2 211.87 71.2 212.92 71.2 213.61 71.2 213.96 71.2 214.31 71.2 214.65 71.2 217.09 71.2 217.44 71.2 218.48 71.2 220.93 71.2 221.27 71.2 221.62 71.2 222.31 71.2 222.66 71.2 223.01 71.2 223.36 71.2 223.71 71.2 224.06 71.2 224.76 71.2 225.8 71.2 226.15 71.2 226.84 71.2 227.54 71.2 229.28 71.2 230.33 71.2 230.33 74.85 230.68 74.85 232.07 74.85 233.11 74.85 233.46 74.85 234.16 74.85 235.55 74.85 235.9 74.85 236.6 74.85 237.29 74.85 243.56 74.85 244.26 74.85 244.95 74.85 246.7 74.85 247.39 74.85 247.74 74.85 248.09 74.85 248.78 74.85 250.52 74.85 251.92 74.85 252.27 74.85 252.61 74.85 253.31 74.85 253.66 74.85 254 74.85 254.36 74.85 256.1 74.85 256.79 74.85 258.19 74.85 264.45 74.85 265.15 74.85 265.85 74.85 281.17 74.85 279.08 126.53 271.77 126.53 267.59 126.53 264.1 126.53 262.72 126.53 259.93 126.53 259.58 126.53 258.54 126.53 257.83 126.53 257.49 126.53 256.79 126.53 256.44 126.53 255.4 126.53 253.31 126.53 252.96 126.53 251.22 126.53 250.18 126.53 247.39 126.53 246.7 126.53 246.7 120.58 245.65 120.58 244.26 120.58 241.12 120.58 238.33 120.58 237.98 120.58 236.6 120.58 236.25 120.58 235.55 120.58 235.55 116.48 233.81 116.48 233.11 116.48 232.42 116.48 231.72 116.48 229.98 116.48 229.63 116.48 228.59 116.48 228.24 116.48 227.54 116.48 226.84 116.48 225.8 116.48 225.45 116.48 224.76 116.48 224.41 116.48 224.06 116.48 223.71 116.48 223.71 114.06 223.36 114.06 223.01 114.06 222.66 114.06 221.97 114.06 219.88 114.06 219.88 111.97 218.48 111.97 216.75 111.97 215.01 111.97 212.22 111.97 211.52 111.97 211.18 111.97 211.18 110.1 210.82 110.1 209.78 110.1 209.43 110.1 208.74 110.1 208.39 110.1 205.95 110.1 205.26 110.1 204.91 110.1 204.21 110.1 203.86 110.1 202.81 110.1 202.12 110.1 201.77 110.1 201.77 108.59 201.42 108.59 201.08 108.59 200.73 108.59 200.03 108.59 199.33 108.59 198.98 108.59 198.64 108.59 198.29 108.59 197.94 108.59 197.59 108.59 197.25 108.59 197.25 107.37 196.9 107.37 196.55 107.37 196.19 107.37 196.19 106.25 195.85 106.25 195.5 106.25 195.15 106.25 194.81 106.25 194.81 105.22 194.46 105.22 194.11 105.22 193.76 105.22 193.76 104.29 193.42 104.29 193.07 104.29 192.37 104.29 192.02 104.29 191.67 104.29 191.32 104.29 190.97 104.29 190.63 104.29 189.24 104.29 189.24 103.42 186.8 103.42 186.45 103.42 186.45 102.58 186.1 102.58 186.1 101.75 185.41 101.75 184.71 101.75 183.66 101.75 182.62 101.75 180.53 101.75 180.18 101.75 179.83 101.75 179.48 101.75 179.14 101.75 178.79 101.75 178.44 101.75 178.09 101.75 177.75 101.75 176.35 101.75 175.65 101.75 175.3 101.75 174.96 101.75 174.61 101.75 174.26 101.75 173.57 101.75 173.57 101.05 172.17 101.05 171.82 101.05 171.47 101.05 170.78 101.05 170.43 101.05 170.08 101.05 169.74 101.05 169.38 101.05 169.04 101.05 168.69 101.05 168.69 100.4 168.34 100.4 167.64 100.4 167.3 100.4 167.3 99.13 166.95 99.13 166.95 98.52 166.6 98.52 166.25 98.52 166.25 97.93 165.55 97.93 165.21 97.93 165.21 97.35 164.85 97.35 164.85 96.77 164.51 96.77 164.16 96.77 163.81 96.77 163.47 96.77 163.12 96.77 163.12 95.67 162.77 95.67 162.42 95.67 161.73 95.67 160.33 95.67 155.11 95.67 155.11 95.13 154.07 95.13 154.07 94.59 153.36 94.59 153.02 94.59 152.67 94.59 151.97 94.59 151.97 94.05 151.63 94.05 150.93 94.05 150.58 94.05 150.58 93.54 150.24 93.54 149.88 93.54 149.88 93.01 149.18 93.01 148.84 93.01 148.84 92.51 148.49 92.51 148.49 92 148.14 92 148.14 91.51 147.8 91.51 147.8 90.04 147.45 90.04 147.45 88.56 147.1 88.56 147.1 88.07 146.75 88.07 146.75 87.59 146.05 87.59 146.05 87.09 145.7 87.09 145.35 87.09 145.35 86.61 145.01 86.61 144.66 86.61 141.53 86.61 138.04 86.61 138.04 86.13 134.56 86.13 134.56 85.65 129.68 85.65 129.68 85.17 126.2 85.17 126.2 84.69 124.12 84.69 124.12 84.21 123.42 84.21 123.42 83.73 121.33 83.73 121.33 83.25 120.98 83.25 120.98 82.77 120.29 82.77 120.29 82.29 119.94 82.29 119.94 81.81 118.89 81.81 118.89 79.89 118.54 79.89 118.54 78.46 118.19 78.46 118.19 77.5 117.5 77.5 117.5 77.02 117.15 77.02 117.15 76.06 116.8 76.06 116.8 75.12 116.46 75.12 116.46 74.64 116.11 74.64 116.11 73.67 113.32 73.67 113.32 73.19 112.97 73.19 112.97 72.71 110.89 72.71 110.89 72.25 106.7 72.25 106.7 71.77 105.66 71.77 104.62 71.77 104.62 71.29 104.27 71.29 104.27 70.81 103.22 70.81 103.22 70.33 102.53 70.33 102.53 69.86 102.18 69.86 102.18 69.38 100.79 69.38 100.79 68.9 97.65 68.9 97.65 68.42 96.96 68.42 96.96 67.48 95.91 67.48 95.91 67 95.57 67 95.57 66.52 93.47 66.52 93.47 66.04 92.43 66.04 92.43 65.57 92.08 65.57 92.08 65.09 91.73 65.09 91.73 64.61 91.39 64.61 91.03 64.61 91.03 63.66 90.69 63.66 90.69 63.19 90.34 63.19 90.34 62.71 89.99 62.71 89.99 62.24 89.64 62.24 89.64 61.28 89.29 61.28 89.29 58.91 88.95 58.91 88.95 56.52 88.6 56.52 88.6 56.06 88.25 56.06 88.25 55.1 87.9 55.1 87.9 54.62 87.2 54.62 87.2 53.19 86.86 53.19 86.86 52.73 86.16 52.73 86.16 51.77 85.12 51.77 85.12 51.3 81.98 51.3 81.98 50.34 80.94 50.34 80.94 49.88 79.89 49.88 79.89 49.4 79.55 49.4 79.55 48.92 78.85 48.92 78.85 48.44 77.45 48.44 77.45 47.97 77.11 47.97 77.11 47.49 76.76 47.49 76.76 47.01 74.67 47.01 74.67 46.55 73.62 46.55 73.62 46.07 69.45 46.07 69.45 45.59 68.4 45.59 68.4 45.12 67.7 45.12 67.7 44.64 67.36 44.64 67.36 43.7 65.96 43.7 65.96 43.22 62.48 43.22 62.48 42.74 62.13 42.74 62.13 42.27 61.78 42.27 61.78 41.31 61.44 41.31 61.44 40.37 61.09 40.37 60.74 40.37 60.74 38.96 60.4 38.96 60.4 35.16 60.05 35.16 60.05 32.33 59.69 32.33 59.69 29.97 59.34 29.97 59.34 27.62 59 27.62 59 26.67 58.65 26.67 58.65 25.24 58.3 25.24 58.3 24.32 57.95 24.32 57.95 22.89 57.61 22.89 57.61 21.02 57.26 21.02 57.26 20.54 56.91 20.54 56.91 20.07 55.87 20.07 55.87 19.61 55.51 19.61 55.51 19.13 54.47 19.13 54.47 18.66 54.12 18.66 54.12 18.18 53.78 18.18 53.78 17.25 53.43 17.25 53.43 16.31 53.08 16.31 53.08 14.88 50.29 14.88 50.29 14.42 48.9 14.42 48.9 13.95 47.51 13.95 47.51 13.47 47.16 13.47 47.16 13.01 46.81 13.01 46.81 12.53 46.11 12.53 46.11 11.12 45.42 11.12 45.42 9.24 44.02 9.24 44.02 8.76 43.67 8.76 43.67 8.3 42.63 8.3 42.63 7.82 41.59 7.82 41.59 7.35 40.54 7.35 40.54 6.89 39.5 6.89 39.5 6.41 38.45 6.41 38.45 5.94 38.11 5.94 38.11 5.46 33.58 5.46 33.58 5 30.79 5 30.79 3.59 30.44 3.59"/><polygon class="cls-2" points="159.06 62.63 157.06 62.63 157.06 60.63 159.06 60.62 159.06 62.63"/><path class="cls-2" d="M159.06,234.52h-2v-2l2,0Zm0-5.05h-2v-2l2,0Zm0-5.06h-2v-2l2,0Zm0-5.06h-2v-2l2,0Zm0-5h-2v-2l2,0Zm0-5.06h-2v-2l2,0Zm0-5.05h-2v-2l2,0Zm0-5.06h-2v-2l2,0Zm0-5h-2v-2l2,0Zm0-5.06h-2v-2l2,0Zm0-5.05h-2v-2l2,0Zm0-5.06h-2v-2l2,0Zm0-5h-2v-2l2,0Zm0-5.06h-2v-2l2,0Zm0-5.06h-2v-2l2,0Zm0-5.05h-2v-2l2,0Zm0-5.06h-2v-2l2,0Zm0-5h-2v-2l2,0Zm0-5.06h-2v-2l2,0Zm0-5.05h-2v-2l2,0Zm0-5.06h-2v-2l2,0Zm0-5h-2v-2l2,0Zm0-5.06h-2v-2l2,0Zm0-5.06h-2v-2l2,0Zm0-5h-2v-2l2,0Zm0-5.06h-2v-2l2,0Zm0-5h-2v-2l2,0Zm0-5.06h-2V96l2,0Zm0-5h-2V91l2,0Zm0-5.06h-2v-2l2,0Zm0-5h-2v-2l2,0Zm0-5.06h-2v-2l2,0Zm0-5.06h-2v-2l2,0Zm0-5h-2v-2l2,0Z"/><polygon class="cls-2" points="159.06 239.57 157.06 239.57 157.06 237.57 159.06 237.56 159.06 239.57"/><polygon class="cls-2" points="222.88 72.21 220.88 72.21 220.88 70.21 222.88 70.2 222.88 72.21"/><path class="cls-2" d="M222.88,234.51h-2v-2l2,0Zm0-5.08h-2v-2l2,0Zm0-5.07h-2v-2l2,0Zm0-5.07h-2v-2l2,0Zm0-5.07h-2v-2l2,0Zm0-5.07h-2v-2l2,0Zm0-5.08h-2v-2l2,0Zm0-5.07h-2v-2l2,0Zm0-5.07h-2v-2l2,0Zm0-5.07h-2v-2l2,0Zm0-5.07h-2v-2l2,0Zm0-5.08h-2v-2l2,0Zm0-5.07h-2v-2l2,0Zm0-5.07h-2v-2l2,0Zm0-5.07h-2v-2l2,0Zm0-5.07h-2v-2l2,0Zm0-5.07h-2v-2l2,0Zm0-5.08h-2v-2l2,0Zm0-5.07h-2v-2l2,0Zm0-5.07h-2v-2l2,0Zm0-5.07h-2v-2l2,0Zm0-5.07h-2v-2l2,0Zm0-5.08h-2v-2l2,0Zm0-5.07h-2v-2l2,0Zm0-5.07h-2v-2l2,0Zm0-5.07h-2v-2l2,0Zm0-5.07h-2v-2l2,0Zm0-5.07h-2v-2l2,0Zm0-5.08h-2v-2l2,0Zm0-5.07h-2v-2l2,0Zm0-5.07h-2v-2l2,0Zm0-5.07h-2v-2l2,0Z"/><polygon class="cls-2" points="222.88 239.57 220.88 239.57 220.88 237.57 222.88 237.56 222.88 239.57"/><polyline class="cls-3" points="30.44 3.59 30.79 3.59 30.79 5 33.58 5 33.58 5.46 38.11 5.46 38.11 5.94 38.45 5.94 38.45 6.41 39.5 6.41 39.5 6.89 40.54 6.89 40.54 7.35 41.59 7.35 41.59 7.82 42.63 7.82 42.63 8.3 43.67 8.3 43.67 8.76 44.02 8.76 44.02 9.24 45.42 9.24 45.42 11.12 46.11 11.12 46.11 12.53 46.81 12.53 46.81 13.01 47.16 13.01 47.16 13.47 47.51 13.47 47.51 13.95 48.9 13.95 48.9 14.42 50.29 14.42 50.29 14.88 53.08 14.88 53.08 16.31 53.43 16.31 53.43 17.25 53.78 17.25 53.78 18.18 54.12 18.18 54.12 18.66 54.47 18.66 54.47 19.13 55.51 19.13 55.51 19.61 55.87 19.61 55.87 20.07 56.91 20.07 56.91 20.54 57.26 20.54 57.26 21.02 57.61 21.02 57.61 22.89 57.95 22.89 57.95 24.32 58.3 24.32 58.3 25.24 58.65 25.24 58.65 26.67 59 26.67 59 27.62 59.34 27.62 59.34 29.97 59.69 29.97 59.69 32.33 60.05 32.33 60.05 35.16 60.4 35.16 60.4 38.96 60.74 38.96 60.74 40.37 61.09 40.37 61.44 40.37 61.44 41.31 61.78 41.31 61.78 42.27 62.13 42.27 62.13 42.74 62.48 42.74 62.48 43.22 65.96 43.22 65.96 43.7 67.36 43.7 67.36 44.64 67.7 44.64 67.7 45.12 68.4 45.12 68.4 45.59 69.45 45.59 69.45 46.07 73.62 46.07 73.62 46.55 74.67 46.55 74.67 47.01 76.76 47.01 76.76 47.49 77.11 47.49 77.11 47.97 77.45 47.97 77.45 48.44 78.85 48.44 78.85 48.92 79.55 48.92 79.55 49.4 79.89 49.4 79.89 49.88 80.94 49.88 80.94 50.34 81.98 50.34 81.98 51.3 85.12 51.3 85.12 51.77 86.16 51.77 86.16 52.73 86.86 52.73 86.86 53.19 87.2 53.19 87.2 54.62 87.9 54.62 87.9 55.1 88.25 55.1 88.25 56.06 88.6 56.06 88.6 56.52 88.95 56.52 88.95 58.91 89.29 58.91 89.29 61.28 89.64 61.28 89.64 62.24 89.99 62.24 89.99 62.71 90.34 62.71 90.34 63.19 90.69 63.19 90.69 63.66 91.03 63.66 91.03 64.61 91.39 64.61 91.73 64.61 91.73 65.09 92.08 65.09 92.08 65.57 92.43 65.57 92.43 66.04 93.47 66.04 93.47 66.52 95.57 66.52 95.57 67 95.91 67 95.91 67.48 96.96 67.48 96.96 68.42 97.65 68.42 97.65 68.9 100.79 68.9 100.79 69.38 102.18 69.38 102.18 69.86 102.53 69.86 102.53 70.33 103.22 70.33 103.22 70.81 104.27 70.81 104.27 71.29 104.62 71.29 104.62 71.77 105.66 71.77 106.7 71.77 106.7 72.25 110.89 72.25 110.89 72.71 112.97 72.71 112.97 73.19 113.32 73.19 113.32 73.67 116.11 73.67 116.11 74.64 116.46 74.64 116.46 75.12 116.8 75.12 116.8 76.06 117.15 76.06 117.15 77.02 117.5 77.02 117.5 77.5 118.19 77.5 118.19 78.46 118.54 78.46 118.54 79.89 118.89 79.89 118.89 81.81 119.94 81.81 119.94 82.29 120.29 82.29 120.29 82.77 120.98 82.77 120.98 83.25 121.33 83.25 121.33 83.73 123.42 83.73 123.42 84.21 124.12 84.21 124.12 84.69 126.2 84.69 126.2 85.17 129.68 85.17 129.68 85.65 134.56 85.65 134.56 86.13 138.04 86.13 138.04 86.61 141.53 86.61 144.66 86.61 145.01 86.61 145.35 86.61 145.35 87.09 145.7 87.09 146.05 87.09 146.05 87.59 146.75 87.59 146.75 88.07 147.1 88.07 147.1 88.56 147.45 88.56 147.45 90.04 147.8 90.04 147.8 91.51 148.14 91.51 148.14 92 148.49 92 148.49 92.51 148.84 92.51 148.84 93.01 149.18 93.01 149.88 93.01 149.88 93.54 150.24 93.54 150.58 93.54 150.58 94.05 150.93 94.05 151.63 94.05 151.97 94.05 151.97 94.59 152.67 94.59 153.02 94.59 153.36 94.59 154.07 94.59 154.07 95.13 155.11 95.13 155.11 95.67 160.33 95.67 161.73 95.67 162.42 95.67 162.77 95.67 163.12 95.67 163.12 96.77 163.47 96.77 163.81 96.77 164.16 96.77 164.51 96.77 164.85 96.77 164.85 97.35 165.21 97.35 165.21 97.93 165.55 97.93 166.25 97.93 166.25 98.52 166.6 98.52 166.95 98.52 166.95 99.13 167.3 99.13 167.3 100.4 167.64 100.4 168.34 100.4 168.69 100.4 168.69 101.05 169.04 101.05 169.38 101.05 169.74 101.05 170.08 101.05 170.43 101.05 170.78 101.05 171.47 101.05 171.82 101.05 172.17 101.05 173.57 101.05 173.57 101.75 174.26 101.75 174.61 101.75 174.96 101.75 175.3 101.75 175.65 101.75 176.35 101.75 177.75 101.75 178.09 101.75 178.44 101.75 178.79 101.75 179.14 101.75 179.48 101.75 179.83 101.75 180.18 101.75 180.53 101.75 182.62 101.75 183.66 101.75 184.71 101.75 185.41 101.75 186.1 101.75 186.1 102.58 186.45 102.58 186.45 103.42 186.8 103.42 189.24 103.42 189.24 104.29 190.63 104.29 190.97 104.29 191.32 104.29 191.67 104.29 192.02 104.29 192.37 104.29 193.07 104.29 193.42 104.29 193.76 104.29 193.76 105.22 194.11 105.22 194.46 105.22 194.81 105.22 194.81 106.25 195.15 106.25 195.5 106.25 195.85 106.25 196.19 106.25 196.19 107.37 196.55 107.37 196.9 107.37 197.25 107.37 197.25 108.59 197.59 108.59 197.94 108.59 198.29 108.59 198.64 108.59 198.98 108.59 199.33 108.59 200.03 108.59 200.73 108.59 201.08 108.59 201.42 108.59 201.77 108.59 201.77 110.1 202.12 110.1 202.81 110.1 203.86 110.1 204.21 110.1 204.91 110.1 205.26 110.1 205.95 110.1 208.39 110.1 208.74 110.1 209.43 110.1 209.78 110.1 210.82 110.1 211.18 110.1 211.18 111.97 211.52 111.97 212.22 111.97 215.01 111.97 216.75 111.97 218.48 111.97 219.88 111.97 219.88 114.06 221.97 114.06 222.66 114.06 223.01 114.06 223.36 114.06 223.71 114.06 223.71 116.48 224.06 116.48 224.41 116.48 224.76 116.48 225.45 116.48 225.8 116.48 226.84 116.48 227.54 116.48 228.24 116.48 228.59 116.48 229.63 116.48 229.98 116.48 231.72 116.48 232.42 116.48 233.11 116.48 233.81 116.48 235.55 116.48 235.55 120.58 236.25 120.58 236.6 120.58 237.98 120.58 238.33 120.58 241.12 120.58 244.26 120.58 245.65 120.58 246.7 120.58 246.7 126.53 247.39 126.53 250.18 126.53 251.22 126.53 252.96 126.53 253.31 126.53 255.4 126.53 256.44 126.53 256.79 126.53 257.49 126.53 257.83 126.53 258.54 126.53 259.58 126.53 259.93 126.53 262.72 126.53 264.1 126.53 267.59 126.53 271.77 126.53 279.08 126.53"/><path class="cls-2" d="M181.65,129.75l2.46-.25a2.13,2.13,0,0,0,.62,1.32,1.7,1.7,0,0,0,1.2.49,1.67,1.67,0,0,0,1.31-.63,2.9,2.9,0,0,0,.53-1.89,2.59,2.59,0,0,0-.53-1.79,1.77,1.77,0,0,0-1.38-.59,2.54,2.54,0,0,0-1.91.94l-2-.29,1.27-6.7h6.53v2.31h-4.66l-.38,2.19a3.74,3.74,0,0,1,4.47.78,4.31,4.31,0,0,1,1.14,3.1,4.62,4.62,0,0,1-.92,2.84,4.09,4.09,0,0,1-3.49,1.71,4.33,4.33,0,0,1-2.91-1A3.92,3.92,0,0,1,181.65,129.75Z"/><path class="cls-2" d="M191.53,129.65l2.4-.29a2.22,2.22,0,0,0,.61,1.39,1.65,1.65,0,0,0,1.21.49,1.7,1.7,0,0,0,1.29-.58,2.26,2.26,0,0,0,.52-1.57,2,2,0,0,0-.5-1.47,1.57,1.57,0,0,0-1.22-.55,4,4,0,0,0-1.13.19l.27-2a2.14,2.14,0,0,0,1.53-.43,1.57,1.57,0,0,0,.53-1.23,1.37,1.37,0,0,0-.39-1,1.39,1.39,0,0,0-1-.39,1.46,1.46,0,0,0-1.08.44,2,2,0,0,0-.54,1.28l-2.28-.39a5.2,5.2,0,0,1,.71-1.86,3.25,3.25,0,0,1,1.34-1.1,4.43,4.43,0,0,1,1.92-.4,3.81,3.81,0,0,1,2.92,1.16,2.94,2.94,0,0,1-1,4.85,3,3,0,0,1,1.77,1.06,3.11,3.11,0,0,1,.67,2,3.87,3.87,0,0,1-1.25,2.89,4.61,4.61,0,0,1-6,.19A4,4,0,0,1,191.53,129.65Z"/><path class="cls-2" d="M201.65,123.36a3.68,3.68,0,0,1,.76-2.56,2.64,2.64,0,0,1,2.06-.84,2.73,2.73,0,0,1,2.11.83,4.73,4.73,0,0,1,0,5.14,2.65,2.65,0,0,1-2.07.83,2.69,2.69,0,0,1-2.1-.83A3.69,3.69,0,0,1,201.65,123.36Zm1.93,0a3.38,3.38,0,0,0,.28,1.69.75.75,0,0,0,1.23,0,3.5,3.5,0,0,0,.28-1.69,3.43,3.43,0,0,0-.28-1.67.7.7,0,0,0-.62-.33.71.71,0,0,0-.61.32A3.36,3.36,0,0,0,203.58,123.34Zm2.77,10.22h-1.83l6.87-13.6h1.77Zm4-3.39a3.73,3.73,0,0,1,.76-2.56,3,3,0,0,1,4.17,0,3.68,3.68,0,0,1,.76,2.56,3.73,3.73,0,0,1-.76,2.58,2.63,2.63,0,0,1-2.06.83,2.7,2.7,0,0,1-2.11-.83A3.79,3.79,0,0,1,210.34,130.17Zm1.93,0a3.18,3.18,0,0,0,.29,1.67.73.73,0,0,0,1.21,0,3.34,3.34,0,0,0,.29-1.68,3.38,3.38,0,0,0-.28-1.69.72.72,0,0,0-.62-.32.68.68,0,0,0-.6.32A3.25,3.25,0,0,0,212.27,130.17Z"/><polyline class="cls-4" points="30.44 3.59 30.79 3.59 30.79 5.9 34.28 5.9 34.28 6.36 37.41 6.36 37.41 6.83 37.76 6.83 37.76 7.29 38.8 7.29 38.8 8.69 39.84 8.69 39.84 9.15 40.19 9.15 40.19 10.08 41.94 10.08 41.94 10.54 43.33 10.54 43.33 11.01 45.42 11.01 45.42 11.47 46.11 11.47 46.11 11.94 46.46 11.94 46.46 12.4 47.16 12.4 47.16 12.87 48.9 12.87 48.9 13.33 52.73 13.33 52.73 14.28 53.08 14.28 53.08 14.74 53.43 14.74 53.43 15.21 55.87 15.21 55.87 15.67 57.26 15.67 57.26 16.14 57.61 16.14 57.61 17.07 57.95 17.07 57.95 17.53 58.3 17.53 58.3 18.46 58.65 18.46 58.65 19.39 59 19.39 59.34 19.39 59.34 20.32 59.69 20.32 59.69 21.73 60.05 21.73 60.05 27.32 60.4 27.32 60.4 29.66 60.74 29.66 60.74 30.59 61.09 30.59 61.09 32.93 61.44 32.93 61.44 33.86 61.78 33.86 61.78 34.32 62.13 34.32 62.13 34.8 62.48 34.8 62.83 34.8 62.83 35.27 64.57 35.27 64.57 35.73 65.96 35.73 65.96 36.2 71.18 36.2 71.18 36.68 72.23 36.68 72.23 37.14 74.32 37.14 74.32 37.61 81.98 37.61 81.98 38.07 83.03 38.07 83.03 38.55 83.38 38.55 83.38 39.02 84.42 39.02 84.42 39.48 86.16 39.48 86.16 39.95 87.2 39.95 88.6 39.95 88.6 40.89 89.29 40.89 89.29 41.84 89.64 41.84 89.64 43.71 90.34 43.71 90.34 44.18 92.43 44.18 92.43 44.66 93.12 44.66 93.12 45.12 93.47 45.12 93.47 45.59 94.86 45.59 94.86 46.07 95.22 46.07 100.79 46.07 100.79 46.53 103.57 46.53 103.57 47 104.27 47 104.27 47.48 106.36 47.48 106.36 47.94 110.89 47.94 110.89 48.41 111.58 48.41 111.58 48.88 112.63 48.88 112.63 49.35 113.67 49.35 113.67 49.83 116.46 49.83 116.46 50.3 118.89 50.3 118.89 50.76 120.63 50.76 120.63 51.24 122.02 51.24 122.02 51.71 122.72 51.71 122.72 52.19 123.08 52.19 123.08 52.65 123.42 52.65 123.42 53.13 124.12 53.13 124.12 53.6 126.2 53.6 126.2 54.08 129.34 54.08 129.34 54.56 130.04 54.56 130.04 55.02 132.13 55.02 132.13 55.5 133.17 55.5 133.17 55.97 137.35 55.97 137.35 56.45 138.04 56.45 138.04 56.93 140.48 56.93 142.58 56.93 143.27 56.93 143.62 56.93 144.31 56.93 144.66 56.93 145.01 56.93 145.35 56.93 146.41 56.93 146.75 56.93 147.1 56.93 147.45 56.93 147.8 56.93 147.8 57.42 148.14 57.42 148.14 57.94 148.49 57.94 148.84 57.94 148.84 58.45 149.18 58.45 149.54 58.45 149.54 58.99 149.88 58.99 150.24 58.99 150.24 59.51 150.58 59.51 150.58 60.06 151.28 60.06 151.63 60.06 151.63 60.6 153.72 60.6 154.07 60.6 154.41 60.6 155.11 60.6 155.11 61.16 155.46 61.16 156.15 61.16 156.15 61.71 156.5 61.71 156.85 61.71 157.54 61.71 158.59 61.71 159.63 61.71 159.98 61.71 160.33 61.71 162.42 61.71 162.77 61.71 163.12 61.71 163.47 61.71 163.81 61.71 164.16 61.71 164.51 61.71 164.85 61.71 165.21 61.71 165.21 62.33 165.55 62.33 165.91 62.33 165.91 62.97 166.25 62.97 166.6 62.97 166.95 62.97 166.95 63.62 167.3 63.62 167.3 64.29 167.64 64.29 168.34 64.29 168.69 64.29 169.04 64.29 169.38 64.29 169.74 64.29 170.43 64.29 171.13 64.29 171.47 64.29 171.82 64.29 172.17 64.29 172.52 64.29 173.57 64.29 173.57 65.05 174.26 65.05 174.61 65.05 174.96 65.05 175.65 65.05 176 65.05 176.35 65.05 176.69 65.05 177.04 65.05 177.4 65.05 177.4 65.85 178.44 65.85 178.79 65.85 179.14 65.85 179.48 65.85 179.83 65.85 180.18 65.85 180.53 65.85 182.27 65.85 182.62 65.85 182.97 65.85 183.31 65.85 183.31 66.73 183.66 66.73 184.71 66.73 185.06 66.73 185.41 66.73 186.1 66.73 188.19 66.73 188.54 66.73 188.89 66.73 188.89 67.66 189.24 67.66 189.59 67.66 189.93 67.66 190.28 67.66 190.28 68.63 190.97 68.63 191.32 68.63 192.02 68.63 192.37 68.63 192.72 68.63 193.42 68.63 193.76 68.63 194.11 68.63 194.46 68.63 194.81 68.63 195.15 68.63 195.5 68.63 195.85 68.63 196.19 68.63 196.55 68.63 196.9 68.63 197.25 68.63 197.59 68.63 197.59 69.88 197.94 69.88 198.29 69.88 198.64 69.88 198.98 69.88 199.68 69.88 199.68 71.2 200.03 71.2 200.73 71.2 201.08 71.2 201.42 71.2 201.77 71.2 202.12 71.2 202.47 71.2 202.81 71.2 203.16 71.2 203.51 71.2 204.21 71.2 204.91 71.2 205.26 71.2 205.95 71.2 206.3 71.2 206.64 71.2 206.99 71.2 207.34 71.2 207.69 71.2 208.39 71.2 208.74 71.2 209.43 71.2 210.13 71.2 211.52 71.2 211.87 71.2 212.92 71.2 213.61 71.2 213.96 71.2 214.31 71.2 214.65 71.2 217.09 71.2 217.44 71.2 218.48 71.2 220.93 71.2 221.27 71.2 221.62 71.2 222.31 71.2 222.66 71.2 223.01 71.2 223.36 71.2 223.71 71.2 224.06 71.2 224.76 71.2 225.8 71.2 226.15 71.2 226.84 71.2 227.54 71.2 229.28 71.2 230.33 71.2 230.33 74.85 230.68 74.85 232.07 74.85 233.11 74.85 233.46 74.85 234.16 74.85 235.55 74.85 235.9 74.85 236.6 74.85 237.29 74.85 243.56 74.85 244.26 74.85 244.95 74.85 246.7 74.85 247.39 74.85 247.74 74.85 248.09 74.85 248.78 74.85 250.52 74.85 251.92 74.85 252.27 74.85 252.61 74.85 253.31 74.85 253.66 74.85 254 74.85 254.36 74.85 256.1 74.85 256.79 74.85 258.19 74.85 264.45 74.85 265.15 74.85 265.85 74.85 281.17 74.85"/><path class="cls-2" d="M125.35,103.75,123,104a1.8,1.8,0,0,0-.45-1.09,1.37,1.37,0,0,0-1-.35,1.65,1.65,0,0,0-1.33.71,6,6,0,0,0-.68,2.92,2.92,2.92,0,0,1,2.3-1.09,3.5,3.5,0,0,1,2.65,1.18,4.3,4.3,0,0,1,1.1,3,4.36,4.36,0,0,1-1.16,3.17,4.22,4.22,0,0,1-6.19-.32c-.83-1-1.25-2.66-1.25-5s.43-4.06,1.31-5.1a4.2,4.2,0,0,1,3.4-1.57,3.64,3.64,0,0,1,2.43.82A3.85,3.85,0,0,1,125.35,103.75Zm-5.59,5.39a2.81,2.81,0,0,0,.55,1.86,1.64,1.64,0,0,0,1.26.65,1.48,1.48,0,0,0,1.15-.53,2.75,2.75,0,0,0,.45-1.76,2.81,2.81,0,0,0-.49-1.84,1.57,1.57,0,0,0-2.43,0A2.41,2.41,0,0,0,119.76,109.14Z"/><path class="cls-2" d="M133.32,113.48h-2.47v-9.31a8.46,8.46,0,0,1-3.19,1.87V103.8a7.2,7.2,0,0,0,2.1-1.2,4.56,4.56,0,0,0,1.55-2.06h2Z"/><path class="cls-2" d="M137,103.78a3.71,3.71,0,0,1,.77-2.57,2.62,2.62,0,0,1,2.06-.83,2.69,2.69,0,0,1,2.1.83,4.71,4.71,0,0,1,0,5.13,2.64,2.64,0,0,1-2.06.84,2.7,2.7,0,0,1-2.1-.83A3.71,3.71,0,0,1,137,103.78Zm1.93,0a3.38,3.38,0,0,0,.29,1.69.7.7,0,0,0,.61.31.69.69,0,0,0,.61-.31,3.41,3.41,0,0,0,.28-1.69,3.34,3.34,0,0,0-.28-1.68.69.69,0,0,0-.61-.33.71.71,0,0,0-.61.32A3.38,3.38,0,0,0,139,103.76ZM141.73,114H139.9l6.86-13.59h1.78Zm4-3.38a3.71,3.71,0,0,1,.76-2.57,3,3,0,0,1,4.16,0,4.73,4.73,0,0,1,0,5.14,2.63,2.63,0,0,1-2.06.84,2.68,2.68,0,0,1-2.1-.84A3.69,3.69,0,0,1,145.72,110.59Zm1.92,0a3.31,3.31,0,0,0,.29,1.68.71.71,0,0,0,.61.32.69.69,0,0,0,.61-.31,5.24,5.24,0,0,0,0-3.38.69.69,0,0,0-.61-.31.68.68,0,0,0-.61.31A3.38,3.38,0,0,0,147.64,110.58Z"/><path class="cls-5" d="M141.08,39.87V37.58h8.45v1.79a13.19,13.19,0,0,0-2.13,3,17.18,17.18,0,0,0-1.65,4.09,15.24,15.24,0,0,0-.55,3.87h-2.39a16.4,16.4,0,0,1,1.11-5.45,18.11,18.11,0,0,1,2.78-5Z"/><path class="cls-5" d="M151.13,47l2.46-.26a2.11,2.11,0,0,0,.62,1.32,1.7,1.7,0,0,0,1.2.49,1.67,1.67,0,0,0,1.31-.63,2.84,2.84,0,0,0,.53-1.89,2.58,2.58,0,0,0-.53-1.78,1.74,1.74,0,0,0-1.38-.59,2.5,2.5,0,0,0-1.91.94l-2-.29,1.26-6.71h6.53v2.31h-4.66l-.38,2.19a3.66,3.66,0,0,1,1.69-.41,3.72,3.72,0,0,1,2.78,1.19,4.31,4.31,0,0,1,1.14,3.1,4.6,4.6,0,0,1-.92,2.84,4.09,4.09,0,0,1-3.49,1.71,4.33,4.33,0,0,1-2.91-1A3.92,3.92,0,0,1,151.13,47Z"/><path class="cls-5" d="M161.12,40.59a3.71,3.71,0,0,1,.76-2.57,2.65,2.65,0,0,1,2.06-.84,2.71,2.71,0,0,1,2.11.84,3.74,3.74,0,0,1,.76,2.57,3.73,3.73,0,0,1-.76,2.56A2.65,2.65,0,0,1,164,44a2.73,2.73,0,0,1-2.11-.83A3.71,3.71,0,0,1,161.12,40.59Zm1.93,0a3.27,3.27,0,0,0,.29,1.69.67.67,0,0,0,.6.31.71.71,0,0,0,.62-.31,3.41,3.41,0,0,0,.28-1.69,3.34,3.34,0,0,0-.28-1.68.7.7,0,0,0-.62-.33.68.68,0,0,0-.6.32A3.27,3.27,0,0,0,163.05,40.57Zm2.77,10.21H164l6.86-13.6h1.78Zm4-3.38a3.76,3.76,0,0,1,.76-2.57,3,3,0,0,1,4.17,0,3.71,3.71,0,0,1,.76,2.57,3.69,3.69,0,0,1-.76,2.57,2.64,2.64,0,0,1-2.06.84,2.71,2.71,0,0,1-2.11-.84A3.74,3.74,0,0,1,169.81,47.4Zm1.93,0a3.31,3.31,0,0,0,.29,1.68.71.71,0,0,0,.61.32.67.67,0,0,0,.6-.31,3.38,3.38,0,0,0,.29-1.69,3.41,3.41,0,0,0-.28-1.69.71.71,0,0,0-.61-.32.69.69,0,0,0-.61.32A3.38,3.38,0,0,0,171.74,47.39Z"/><path class="cls-5" d="M204.37,49.1V46.81h8.45V48.6a13.1,13.1,0,0,0-2.13,2.95A17.53,17.53,0,0,0,209,55.64a15.42,15.42,0,0,0-.56,3.87H206.1a16.58,16.58,0,0,1,1.1-5.44,18.25,18.25,0,0,1,2.79-5Z"/><path class="cls-5" d="M220.7,59.51h-2.47v-9.3A8.65,8.65,0,0,1,215,52.08V49.84a7.2,7.2,0,0,0,2.1-1.2,4.56,4.56,0,0,0,1.56-2.06h2Z"/><path class="cls-5" d="M224.41,49.81a3.68,3.68,0,0,1,.76-2.56,2.64,2.64,0,0,1,2.06-.84,2.73,2.73,0,0,1,2.11.83,3.74,3.74,0,0,1,.76,2.57,3.76,3.76,0,0,1-.76,2.57,3,3,0,0,1-4.17,0A3.69,3.69,0,0,1,224.41,49.81Zm1.92,0a3.38,3.38,0,0,0,.29,1.69.71.71,0,0,0,.61.32.73.73,0,0,0,.62-.32,3.53,3.53,0,0,0,.28-1.69,3.43,3.43,0,0,0-.28-1.67.74.74,0,0,0-1.23,0A3.34,3.34,0,0,0,226.33,49.79ZM229.11,60h-1.83l6.87-13.6h1.77Zm4-3.39a3.68,3.68,0,0,1,.76-2.56,3,3,0,0,1,4.17,0,3.73,3.73,0,0,1,.76,2.56A3.79,3.79,0,0,1,238,59.2,2.68,2.68,0,0,1,236,60a2.73,2.73,0,0,1-2.11-.83A3.73,3.73,0,0,1,233.1,56.62Zm1.93,0a3.2,3.2,0,0,0,.29,1.68.73.73,0,0,0,1.21,0,3.38,3.38,0,0,0,.29-1.69,3.36,3.36,0,0,0-.28-1.68.72.72,0,0,0-.62-.32.68.68,0,0,0-.6.32A3.23,3.23,0,0,0,235,56.61Z"/><circle class="cls-6" cx="158.06" cy="95.67" r="6.82"/><circle class="cls-6" cx="221.88" cy="114.48" r="6.82"/><circle class="cls-7" cx="158.06" cy="61.62" r="6.82"/><circle class="cls-7" cx="221.62" cy="71.2" r="6.82"/><rect class="cls-8" x="37.85" y="170.41" width="247.12" height="62.19"/><path class="cls-9" d="M50,185.54v-5.35H48.11V179.1h5.11v1.09h-1.9v5.35Z"/><path class="cls-9" d="M53.77,183.14a2.53,2.53,0,0,1,.3-1.19,2.09,2.09,0,0,1,.86-.88,2.58,2.58,0,0,1,1.24-.3,2.33,2.33,0,0,1,1.74.69,2.57,2.57,0,0,1,0,3.49,2.32,2.32,0,0,1-1.72.7,2.74,2.74,0,0,1-1.22-.29,2,2,0,0,1-.89-.86A2.82,2.82,0,0,1,53.77,183.14Zm1.26.07a1.55,1.55,0,0,0,.33,1.06,1.08,1.08,0,0,0,1.63,0,1.93,1.93,0,0,0,0-2.13,1.08,1.08,0,0,0-1.63,0A1.56,1.56,0,0,0,55,183.21Z"/><path class="cls-9" d="M61.69,180.87v1h-.84v1.88a6.41,6.41,0,0,0,0,.66.31.31,0,0,0,.11.16.37.37,0,0,0,.21.06,1.64,1.64,0,0,0,.5-.12l.1,1a2.47,2.47,0,0,1-1,.19,1.48,1.48,0,0,1-.61-.12.91.91,0,0,1-.39-.29,1.12,1.12,0,0,1-.17-.48,5.41,5.41,0,0,1,0-.87v-2H59v-1h.57V180l1.24-.72v1.64Z"/><path class="cls-9" d="M63.47,182.3l-1.12-.2a1.76,1.76,0,0,1,.65-1,2.43,2.43,0,0,1,1.37-.32,3,3,0,0,1,1.23.19,1.24,1.24,0,0,1,.57.5,2.54,2.54,0,0,1,.17,1.11l0,1.44a4.82,4.82,0,0,0,.06.9,2.5,2.5,0,0,0,.22.63H65.38q0-.12-.12-.36a1.27,1.27,0,0,0,0-.15,2.1,2.1,0,0,1-.68.46,2,2,0,0,1-.77.16,1.53,1.53,0,0,1-1.13-.4,1.29,1.29,0,0,1-.42-1,1.39,1.39,0,0,1,.19-.71,1.21,1.21,0,0,1,.53-.47,4.16,4.16,0,0,1,1-.29,7.18,7.18,0,0,0,1.2-.3v-.13a.64.64,0,0,0-.17-.5,1,1,0,0,0-.67-.16.91.91,0,0,0-.51.13A1,1,0,0,0,63.47,182.3Zm1.65,1c-.16,0-.41.12-.75.19a2.17,2.17,0,0,0-.67.21.53.53,0,0,0-.24.44.61.61,0,0,0,.19.45.7.7,0,0,0,.49.19,1.12,1.12,0,0,0,.64-.22.76.76,0,0,0,.29-.41,2.11,2.11,0,0,0,.05-.6Z"/><path class="cls-9" d="M67.55,185.54V179.1h1.24v6.44Z"/><path class="cls-9" d="M72.57,185.54V179.1h1.27l2.64,4.3v-4.3h1.2v6.44h-1.3l-2.6-4.2v4.2Z"/><path class="cls-9" d="M78.76,183.14a2.43,2.43,0,0,1,.31-1.19,2.09,2.09,0,0,1,.86-.88,2.56,2.56,0,0,1,1.24-.3,2.32,2.32,0,0,1,1.73.69,2.37,2.37,0,0,1,.68,1.73A2.42,2.42,0,0,1,82.9,185a2.34,2.34,0,0,1-1.72.7,2.78,2.78,0,0,1-1.23-.29,2,2,0,0,1-.88-.86A2.71,2.71,0,0,1,78.76,183.14Zm1.27.07a1.55,1.55,0,0,0,.33,1.06,1.07,1.07,0,0,0,1.62,0,1.88,1.88,0,0,0,0-2.13,1.07,1.07,0,0,0-1.62,0A1.56,1.56,0,0,0,80,183.21Z"/><path class="cls-9" d="M84.55,185.54v-1.23h1.23v1.23Z"/><path class="cls-5" d="M60.05,200.68l1.23-.13a1.08,1.08,0,0,0,.31.66.82.82,0,0,0,.6.25.84.84,0,0,0,.66-.32,1.46,1.46,0,0,0,.26-.94,1.31,1.31,0,0,0-.26-.89.89.89,0,0,0-.7-.3,1.27,1.27,0,0,0-.95.47l-1-.14.63-3.36H64.1v1.16H61.77l-.2,1.09a1.92,1.92,0,0,1,2.24.39,2.16,2.16,0,0,1,.57,1.55,2.3,2.3,0,0,1-.46,1.42,2,2,0,0,1-1.74.86,2.18,2.18,0,0,1-1.46-.48A2,2,0,0,1,60.05,200.68Z"/><path class="cls-5" d="M68.2,202.34H67v-4.66a4.25,4.25,0,0,1-1.59.94V197.5a3.85,3.85,0,0,0,1-.6,2.36,2.36,0,0,0,.77-1h1Z"/><path class="cls-5" d="M72.46,202.34V201H69.83V200l2.79-4.09h1V200h.8V201h-.8v1.3Zm0-2.38v-2.21L71,200Z"/><path class="cls-2" d="M60.05,211.48l1.23-.13a1.08,1.08,0,0,0,.31.66.85.85,0,0,0,.6.24.83.83,0,0,0,.66-.31,1.48,1.48,0,0,0,.26-.95,1.35,1.35,0,0,0-.26-.89.92.92,0,0,0-.7-.29,1.23,1.23,0,0,0-.95.47l-1-.15.63-3.35H64.1v1.16H61.77l-.2,1.09a1.87,1.87,0,0,1,.85-.21,1.84,1.84,0,0,1,1.39.6,2.16,2.16,0,0,1,.57,1.55,2.3,2.3,0,0,1-.46,1.42,2,2,0,0,1-1.74.85,2.18,2.18,0,0,1-1.46-.48A1.94,1.94,0,0,1,60.05,211.48Z"/><path class="cls-2" d="M67.12,206.67a1.77,1.77,0,0,1,1.47.66,5.76,5.76,0,0,1,0,5.26,1.77,1.77,0,0,1-1.46.65,1.84,1.84,0,0,1-1.51-.72,4.22,4.22,0,0,1-.58-2.58,4.17,4.17,0,0,1,.64-2.61A1.73,1.73,0,0,1,67.12,206.67Zm0,1a.65.65,0,0,0-.4.14,1.1,1.1,0,0,0-.27.51,7.38,7.38,0,0,0-.13,1.62,6.62,6.62,0,0,0,.12,1.55,1,1,0,0,0,.29.57.6.6,0,0,0,.39.14.63.63,0,0,0,.4-.14,1,1,0,0,0,.28-.51,7.5,7.5,0,0,0,.12-1.61,6.83,6.83,0,0,0-.11-1.56,1.15,1.15,0,0,0-.29-.57A.63.63,0,0,0,67.12,207.69Z"/><path class="cls-2" d="M70.06,211.48l1.23-.13a1,1,0,0,0,.31.66.85.85,0,0,0,.6.24.81.81,0,0,0,.65-.31,1.42,1.42,0,0,0,.27-.95,1.3,1.3,0,0,0-.27-.89.88.88,0,0,0-.69-.29,1.23,1.23,0,0,0-1,.47l-1-.15.63-3.35H74.1v1.16H71.78l-.2,1.09a1.88,1.88,0,0,1,2.24.39,2.16,2.16,0,0,1,.57,1.55,2.3,2.3,0,0,1-.46,1.42,2,2,0,0,1-1.75.85,2.15,2.15,0,0,1-1.45-.48A1.94,1.94,0,0,1,70.06,211.48Z"/><path class="cls-9" d="M104,185.54V179.1h1.27l2.63,4.3v-4.3h1.21v6.44h-1.31l-2.59-4.2v4.2Z"/><path class="cls-9" d="M110.14,183.14a2.53,2.53,0,0,1,.3-1.19,2.09,2.09,0,0,1,.86-.88,2.58,2.58,0,0,1,1.24-.3,2.33,2.33,0,0,1,1.74.69,2.57,2.57,0,0,1,0,3.49,2.32,2.32,0,0,1-1.72.7,2.74,2.74,0,0,1-1.22-.29,2,2,0,0,1-.89-.86A2.82,2.82,0,0,1,110.14,183.14Zm1.27.07a1.54,1.54,0,0,0,.32,1.06,1.08,1.08,0,0,0,1.63,0,1.88,1.88,0,0,0,0-2.13,1.08,1.08,0,0,0-1.63,0A1.56,1.56,0,0,0,111.41,183.21Z"/><path class="cls-9" d="M115.92,185.54v-1.23h1.24v1.23Z"/><path class="cls-9" d="M121.79,185.54l-1.48-4.67h1.2l.88,3.06.8-3.06h1.19l.78,3.06.89-3.06h1.22l-1.5,4.67h-1.18l-.81-3-.79,3Z"/><path class="cls-9" d="M127.92,180.24V179.1h1.24v1.14Zm0,5.3v-4.67h1.24v4.67Z"/><path class="cls-9" d="M132.56,180.87v1h-.84v1.88a4.26,4.26,0,0,0,0,.66.26.26,0,0,0,.11.16.37.37,0,0,0,.21.06,1.64,1.64,0,0,0,.5-.12l.1,1a2.5,2.5,0,0,1-1,.19,1.48,1.48,0,0,1-.61-.12.85.85,0,0,1-.39-.29,1.12,1.12,0,0,1-.17-.48,5.41,5.41,0,0,1,0-.87v-2h-.57v-1h.57V180l1.24-.72v1.64Z"/><path class="cls-9" d="M134.65,179.1v2.37a1.8,1.8,0,0,1,1.42-.7,1.71,1.71,0,0,1,.77.16,1.27,1.27,0,0,1,.52.4,1.42,1.42,0,0,1,.24.55,5.07,5.07,0,0,1,.06.92v2.74h-1.23v-2.46a4.17,4.17,0,0,0-.07-.94.63.63,0,0,0-.25-.31.79.79,0,0,0-.45-.12,1,1,0,0,0-.55.15.84.84,0,0,0-.35.45,2.57,2.57,0,0,0-.11.89v2.34h-1.24V179.1Z"/><path class="cls-9" d="M141.42,185.54V179.1h4.78v1.09h-3.48v1.43H146v1.08h-3.24v1.76h3.6v1.08Z"/><path class="cls-9" d="M148.7,185.54l-1.88-4.67h1.29l.88,2.39.26.79c.06-.2.11-.34.12-.4l.14-.39.88-2.39h1.27l-1.85,4.67Z"/><path class="cls-9" d="M155.12,184.05l1.23.21a2,2,0,0,1-.75,1,2.17,2.17,0,0,1-1.28.36,2.09,2.09,0,0,1-1.8-.8,2.65,2.65,0,0,1-.46-1.61,2.57,2.57,0,0,1,.6-1.81,2,2,0,0,1,1.54-.66,2.07,2.07,0,0,1,1.64.69,3.08,3.08,0,0,1,.58,2.1h-3.1a1.28,1.28,0,0,0,.3.86.94.94,0,0,0,.71.3.72.72,0,0,0,.49-.16A1,1,0,0,0,155.12,184.05Zm.07-1.24a1.19,1.19,0,0,0-.28-.82.88.88,0,0,0-1.31,0,1.12,1.12,0,0,0-.25.8Z"/><path class="cls-9" d="M161.67,185.54h-1.24v-2.38a3.42,3.42,0,0,0-.08-1,.68.68,0,0,0-.25-.34.71.71,0,0,0-.43-.13,1,1,0,0,0-.58.18.94.94,0,0,0-.35.46,4.34,4.34,0,0,0-.09,1.08v2.11h-1.24v-4.67h1.15v.69a1.91,1.91,0,0,1,2.29-.64,1.25,1.25,0,0,1,.51.37,1.55,1.55,0,0,1,.24.52,4.19,4.19,0,0,1,.07.83Z"/><path class="cls-9" d="M165.06,180.87v1h-.84v1.88a4.26,4.26,0,0,0,0,.66.26.26,0,0,0,.11.16.37.37,0,0,0,.21.06,1.64,1.64,0,0,0,.5-.12l.1,1a2.52,2.52,0,0,1-1,.19,1.46,1.46,0,0,1-.6-.12.8.8,0,0,1-.39-.29,1.12,1.12,0,0,1-.17-.48,5.41,5.41,0,0,1,0-.87v-2h-.57v-1H163V180l1.24-.72v1.64Z"/><path class="cls-5" d="M130.31,202.34h-1.23v-4.66a4.29,4.29,0,0,1-1.6.94V197.5a3.85,3.85,0,0,0,1-.6,2.31,2.31,0,0,0,.78-1h1Z"/><path class="cls-5" d="M132.11,200.63l1.2-.15a1.16,1.16,0,0,0,.3.7.85.85,0,0,0,.61.24.79.79,0,0,0,.64-.29,1.24,1.24,0,0,0,0-1.52.81.81,0,0,0-.62-.27,2.21,2.21,0,0,0-.56.09l.13-1a1.16,1.16,0,0,0,.77-.22.8.8,0,0,0,.26-.61.67.67,0,0,0-.71-.72.77.77,0,0,0-.54.22,1.08,1.08,0,0,0-.27.65l-1.14-.2a2.51,2.51,0,0,1,.36-.93,1.53,1.53,0,0,1,.67-.55,2.32,2.32,0,0,1,1-.2,1.91,1.91,0,0,1,1.46.58,1.46,1.46,0,0,1-.48,2.42,1.5,1.5,0,0,1,.89.54,1.52,1.52,0,0,1,.33,1,2,2,0,0,1-.62,1.45,2.3,2.3,0,0,1-3,.09A2,2,0,0,1,132.11,200.63Z"/><path class="cls-5" d="M137.18,200.68l1.23-.13a1,1,0,0,0,.31.66.83.83,0,0,0,1.25-.07,1.41,1.41,0,0,0,.27-.94,1.26,1.26,0,0,0-.27-.89.86.86,0,0,0-.69-.3,1.27,1.27,0,0,0-.95.47l-1-.14L138,196h3.26v1.16H138.9l-.2,1.09a1.86,1.86,0,0,1,.85-.2,1.88,1.88,0,0,1,1.39.59,2.16,2.16,0,0,1,.57,1.55,2.3,2.3,0,0,1-.46,1.42,2,2,0,0,1-1.74.86,2.18,2.18,0,0,1-1.46-.48A2,2,0,0,1,137.18,200.68Z"/><path class="cls-2" d="M131.32,212v1.14H127a3,3,0,0,1,.43-1.23,7.89,7.89,0,0,1,1.38-1.54,8.62,8.62,0,0,0,1-1.06,1.32,1.32,0,0,0,.25-.75.86.86,0,0,0-.22-.64.82.82,0,0,0-.61-.22.85.85,0,0,0-.62.23,1.22,1.22,0,0,0-.26.78l-1.23-.13a2,2,0,0,1,.69-1.46,2.3,2.3,0,0,1,1.45-.44,2.13,2.13,0,0,1,1.5.51,1.69,1.69,0,0,1,.54,1.28,2.31,2.31,0,0,1-.15.83,3.54,3.54,0,0,1-.5.82,7.35,7.35,0,0,1-.81.82c-.39.36-.63.6-.74.71a2.3,2.3,0,0,0-.25.35Z"/><path class="cls-2" d="M135.31,213.13h-1.23v-4.65a4.39,4.39,0,0,1-1.59.94V208.3a3.85,3.85,0,0,0,1-.6,2.36,2.36,0,0,0,.77-1h1Z"/><path class="cls-2" d="M141.34,208.27l-1.19.13a.87.87,0,0,0-.23-.54.65.65,0,0,0-.48-.18.82.82,0,0,0-.66.35,3,3,0,0,0-.34,1.47,1.43,1.43,0,0,1,1.15-.55,1.76,1.76,0,0,1,1.32.59,2.12,2.12,0,0,1,.55,1.52,2.18,2.18,0,0,1-.58,1.59,2,2,0,0,1-1.49.59,2,2,0,0,1-1.6-.75,5.25,5.25,0,0,1,0-5,2.1,2.1,0,0,1,1.7-.78,1.76,1.76,0,0,1,1.21.41A1.87,1.87,0,0,1,141.34,208.27ZM138.55,211a1.43,1.43,0,0,0,.27.93.83.83,0,0,0,.63.33A.74.74,0,0,0,140,212a1.37,1.37,0,0,0,.22-.88,1.45,1.45,0,0,0-.24-.92.8.8,0,0,0-.62-.29.76.76,0,0,0-.6.28A1.23,1.23,0,0,0,138.55,211Z"/><path class="cls-9" d="M179.3,185.54V179.1h1.3v2.53h2.55V179.1h1.3v6.44h-1.3v-2.82H180.6v2.82Z"/><path class="cls-9" d="M186.7,182.3l-1.12-.2a1.81,1.81,0,0,1,.65-1,2.45,2.45,0,0,1,1.37-.32,3,3,0,0,1,1.24.19,1.26,1.26,0,0,1,.56.5,2.54,2.54,0,0,1,.17,1.11V184a6.22,6.22,0,0,0,.05.9,2.55,2.55,0,0,0,.23.63h-1.23a3.34,3.34,0,0,1-.11-.36.81.81,0,0,0-.05-.15,2.06,2.06,0,0,1-.67.46,2,2,0,0,1-.77.16,1.57,1.57,0,0,1-1.14-.4,1.39,1.39,0,0,1-.22-1.69,1.16,1.16,0,0,1,.53-.47,3.88,3.88,0,0,1,1-.29,7.77,7.77,0,0,0,1.2-.3v-.13a.61.61,0,0,0-.18-.5,1,1,0,0,0-.66-.16.74.74,0,0,0-.82.59Zm1.66,1a7.42,7.42,0,0,1-.76.19,2.27,2.27,0,0,0-.67.21.53.53,0,0,0-.24.44.65.65,0,0,0,.19.45.72.72,0,0,0,.5.19,1.09,1.09,0,0,0,.63-.22.84.84,0,0,0,.3-.41,2.57,2.57,0,0,0,.05-.6Z"/><path class="cls-9" d="M190.29,185.54v-1l1.75-2c.28-.33.5-.56.64-.7l-.57,0h-1.65v-1h3.86v.88l-1.79,2.05-.62.69c.34,0,.55,0,.63,0h1.91v1.08Z"/><path class="cls-9" d="M196.21,182.3l-1.12-.2a1.71,1.71,0,0,1,.65-1,2.41,2.41,0,0,1,1.37-.32,3,3,0,0,1,1.23.19,1.24,1.24,0,0,1,.57.5,2.57,2.57,0,0,1,.16,1.11V184a4.82,4.82,0,0,0,.06.9,2.5,2.5,0,0,0,.22.63h-1.22q0-.12-.12-.36c0-.08,0-.13,0-.15a2.1,2.1,0,0,1-.68.46,2,2,0,0,1-.77.16,1.57,1.57,0,0,1-1.14-.4,1.39,1.39,0,0,1-.22-1.69,1.16,1.16,0,0,1,.53-.47,3.88,3.88,0,0,1,1-.29,7.18,7.18,0,0,0,1.2-.3v-.13a.61.61,0,0,0-.18-.5,1,1,0,0,0-.66-.16.91.91,0,0,0-.51.13A.84.84,0,0,0,196.21,182.3Zm1.65,1c-.16,0-.41.12-.75.19a2.26,2.26,0,0,0-.68.21.53.53,0,0,0-.24.44.62.62,0,0,0,.2.45.7.7,0,0,0,.49.19,1.15,1.15,0,0,0,.64-.22.82.82,0,0,0,.29-.41,2.57,2.57,0,0,0,.05-.6Z"/><path class="cls-9" d="M201.47,185.54h-1.23v-4.67h1.14v.67a2.06,2.06,0,0,1,.53-.62,1,1,0,0,1,.54-.15,1.61,1.61,0,0,1,.81.23l-.38,1.08a1,1,0,0,0-.58-.2.65.65,0,0,0-.44.14,1,1,0,0,0-.29.52,8,8,0,0,0-.1,1.56Z"/><path class="cls-9" d="M208.07,185.54h-1.15v-.69a1.81,1.81,0,0,1-.67.6,1.75,1.75,0,0,1-.79.2,1.78,1.78,0,0,1-1.37-.65,3.14,3.14,0,0,1,0-3.61,1.83,1.83,0,0,1,2.77,0V179.1h1.23Zm-3.3-2.43a2.14,2.14,0,0,0,.21,1.08.94.94,0,0,0,.84.48.91.91,0,0,0,.72-.36,1.67,1.67,0,0,0,.3-1.09,1.83,1.83,0,0,0-.29-1.15.9.9,0,0,0-.74-.36.94.94,0,0,0-.74.35A1.58,1.58,0,0,0,204.77,183.11Z"/><path class="cls-9" d="M211.8,185.54V179.1h2.74a4.91,4.91,0,0,1,1.5.17,1.51,1.51,0,0,1,.75.62,1.92,1.92,0,0,1,.28,1,1.67,1.67,0,0,1-.43,1.19,2,2,0,0,1-1.27.6,2.76,2.76,0,0,1,.69.54,6.41,6.41,0,0,1,.74,1l.79,1.26H216l-.93-1.4a10.79,10.79,0,0,0-.69-.95,1,1,0,0,0-.39-.27,2.52,2.52,0,0,0-.66-.07h-.26v2.69Zm1.3-3.72h1a4.51,4.51,0,0,0,1.17-.08.68.68,0,0,0,.37-.27.9.9,0,0,0,.13-.48.77.77,0,0,0-.18-.53.82.82,0,0,0-.49-.25c-.1,0-.42,0-.95,0h-1Z"/><path class="cls-9" d="M219.21,182.3l-1.12-.2a1.71,1.71,0,0,1,.65-1,2.41,2.41,0,0,1,1.37-.32,3,3,0,0,1,1.23.19,1.24,1.24,0,0,1,.57.5,2.57,2.57,0,0,1,.16,1.11V184a4.82,4.82,0,0,0,.06.9,2.5,2.5,0,0,0,.22.63h-1.22q0-.12-.12-.36c0-.08,0-.13,0-.15a2.1,2.1,0,0,1-.68.46,2,2,0,0,1-.77.16,1.57,1.57,0,0,1-1.14-.4,1.39,1.39,0,0,1-.22-1.69,1.16,1.16,0,0,1,.53-.47,3.88,3.88,0,0,1,1-.29,7.18,7.18,0,0,0,1.2-.3v-.13a.61.61,0,0,0-.18-.5,1,1,0,0,0-.66-.16.91.91,0,0,0-.51.13A.84.84,0,0,0,219.21,182.3Zm1.65,1c-.16,0-.41.12-.75.19a2.26,2.26,0,0,0-.68.21.53.53,0,0,0-.24.44.62.62,0,0,0,.2.45.7.7,0,0,0,.49.19,1.15,1.15,0,0,0,.64-.22.82.82,0,0,0,.29-.41,2.57,2.57,0,0,0,.05-.6Z"/><path class="cls-9" d="M225.43,180.87v1h-.84v1.88a4.26,4.26,0,0,0,0,.66.26.26,0,0,0,.11.16.37.37,0,0,0,.21.06,1.64,1.64,0,0,0,.5-.12l.1,1a2.52,2.52,0,0,1-1,.19,1.46,1.46,0,0,1-.6-.12.8.8,0,0,1-.39-.29,1.12,1.12,0,0,1-.17-.48,5.41,5.41,0,0,1,0-.87v-2h-.57v-1h.57V180l1.24-.72v1.64Z"/><path class="cls-9" d="M226.28,180.24V179.1h1.24v1.14Zm0,5.3v-4.67h1.24v4.67Z"/><path class="cls-9" d="M228.5,183.14a2.53,2.53,0,0,1,.3-1.19,2.15,2.15,0,0,1,.86-.88,2.58,2.58,0,0,1,1.24-.3,2.33,2.33,0,0,1,1.74.69,2.57,2.57,0,0,1,0,3.49,2.32,2.32,0,0,1-1.72.7,2.74,2.74,0,0,1-1.22-.29,2.05,2.05,0,0,1-.89-.86A2.82,2.82,0,0,1,228.5,183.14Zm1.26.07a1.5,1.5,0,0,0,.34,1.06,1,1,0,0,0,.81.37,1,1,0,0,0,.81-.37,1.88,1.88,0,0,0,0-2.13,1.07,1.07,0,0,0-.81-.37,1.05,1.05,0,0,0-.81.37A1.51,1.51,0,0,0,229.76,183.21Z"/><path class="cls-9" d="M238.83,187.43H238a8.31,8.31,0,0,1-1-2.1,6.79,6.79,0,0,1-.36-2.12,6.69,6.69,0,0,1,.44-2.41,8.24,8.24,0,0,1,1-1.81h.84a14.48,14.48,0,0,0-.83,2.26,8.52,8.52,0,0,0-.22,2,8.38,8.38,0,0,0,.13,1.48,9.49,9.49,0,0,0,.37,1.44A13.52,13.52,0,0,0,238.83,187.43Z"/><path class="cls-9" d="M239.54,184.05l1.2-.13a.84.84,0,0,0,.22.54.68.68,0,0,0,.49.17.77.77,0,0,0,.65-.35,3,3,0,0,0,.34-1.45,1.46,1.46,0,0,1-1.16.54,1.74,1.74,0,0,1-1.31-.59,2.13,2.13,0,0,1-.55-1.53,2.17,2.17,0,0,1,.58-1.58,2,2,0,0,1,1.48-.6,2,2,0,0,1,1.61.76,5.25,5.25,0,0,1,0,5,2.1,2.1,0,0,1-1.7.78,1.78,1.78,0,0,1-1.22-.4A2,2,0,0,1,239.54,184.05Zm2.8-2.7a1.42,1.42,0,0,0-.28-.92.8.8,0,0,0-.63-.33.71.71,0,0,0-.57.27,1.31,1.31,0,0,0-.23.88,1.39,1.39,0,0,0,.25.92.78.78,0,0,0,.61.29.75.75,0,0,0,.6-.28A1.25,1.25,0,0,0,242.34,181.35Z"/><path class="cls-9" d="M245.58,182.06a1.41,1.41,0,0,1-.7-.55,1.53,1.53,0,0,1-.22-.78,1.56,1.56,0,0,1,.51-1.19,2.4,2.4,0,0,1,2.85,0,1.56,1.56,0,0,1,.51,1.19,1.44,1.44,0,0,1-.23.8,1.51,1.51,0,0,1-.66.53,1.83,1.83,0,0,1,.82.63,1.74,1.74,0,0,1,.28,1,2,2,0,0,1-.57,1.45,2.09,2.09,0,0,1-1.52.55,2.28,2.28,0,0,1-1.46-.46,1.79,1.79,0,0,1-.69-1.49,1.87,1.87,0,0,1,.26-1A1.7,1.7,0,0,1,245.58,182.06Zm.14,1.52a1.17,1.17,0,0,0,.26.8.83.83,0,0,0,.65.28.8.8,0,0,0,.63-.27,1.15,1.15,0,0,0,.25-.8,1,1,0,0,0-.25-.72.83.83,0,0,0-.65-.28.79.79,0,0,0-.67.31A1.15,1.15,0,0,0,245.72,183.58Zm.11-2.76a.71.71,0,0,0,.77.78.8.8,0,0,0,.56-1.34.74.74,0,0,0-.55-.21.77.77,0,0,0-.57.21A.76.76,0,0,0,245.83,180.82Z"/><path class="cls-9" d="M249.79,185.54v-1.23H251v1.23Z"/><path class="cls-9" d="M254.44,185.54v-1.3h-2.63v-1.08l2.79-4.09h1v4.09h.8v1.08h-.8v1.3Zm0-2.38V181l-1.48,2.2Z"/><path class="cls-9" d="M257,180.69a1.8,1.8,0,0,1,.39-1.28,1.31,1.31,0,0,1,1-.42,1.38,1.38,0,0,1,1.05.41,1.89,1.89,0,0,1,.38,1.29,1.86,1.86,0,0,1-.38,1.28,1.32,1.32,0,0,1-1,.42,1.33,1.33,0,0,1-1.05-.42A1.8,1.8,0,0,1,257,180.69Zm1,0a1.73,1.73,0,0,0,.14.84.36.36,0,0,0,.31.16.33.33,0,0,0,.3-.16,2.59,2.59,0,0,0,0-1.68.33.33,0,0,0-.3-.16.36.36,0,0,0-.31.16A1.73,1.73,0,0,0,258,180.68Zm1.39,5.11h-.92l3.43-6.8h.89Zm2-1.7a1.88,1.88,0,0,1,.38-1.28,1.5,1.5,0,0,1,2.08,0,2.36,2.36,0,0,1,0,2.57,1.31,1.31,0,0,1-1,.42,1.33,1.33,0,0,1-1.05-.42A1.89,1.89,0,0,1,261.38,184.09Zm1,0a1.59,1.59,0,0,0,.15.84.36.36,0,0,0,.6,0,1.59,1.59,0,0,0,.15-.84,1.73,1.73,0,0,0-.14-.84.36.36,0,0,0-.31-.16.33.33,0,0,0-.3.16A1.59,1.59,0,0,0,262.34,184.09Z"/><path class="cls-9" d="M271.92,183.17l1.26.4a2.82,2.82,0,0,1-1,1.57,3,3,0,0,1-3.82-.37,3.34,3.34,0,0,1-.83-2.39,3.52,3.52,0,0,1,.83-2.5,2.87,2.87,0,0,1,2.19-.89,2.69,2.69,0,0,1,1.92.7,2.58,2.58,0,0,1,.66,1.18l-1.29.31a1.34,1.34,0,0,0-1.36-1.08,1.44,1.44,0,0,0-1.16.52,2.48,2.48,0,0,0-.45,1.66,2.74,2.74,0,0,0,.44,1.74,1.4,1.4,0,0,0,1.14.52,1.32,1.32,0,0,0,.9-.33A2,2,0,0,0,271.92,183.17Z"/><path class="cls-9" d="M274.26,185.54V179.1h1.3v6.44Z"/><path class="cls-9" d="M276.44,187.43c.25-.52.42-.92.52-1.2a9.55,9.55,0,0,0,.28-1c.08-.36.14-.71.19-1a8.31,8.31,0,0,0,.06-1,8.52,8.52,0,0,0-.23-2,13.36,13.36,0,0,0-.82-2.26h.84a8.43,8.43,0,0,1,1,2,6.69,6.69,0,0,1,.36,2.15,7.17,7.17,0,0,1-.29,2,8.36,8.36,0,0,1-1.08,2.32Z"/><path class="cls-5" d="M198.34,195.87a1.75,1.75,0,0,1,1.46.67,4.23,4.23,0,0,1,.63,2.62,4.31,4.31,0,0,1-.63,2.63,1.77,1.77,0,0,1-1.46.66,1.84,1.84,0,0,1-1.52-.73,5.91,5.91,0,0,1,.06-5.19A1.77,1.77,0,0,1,198.34,195.87Zm0,1a.6.6,0,0,0-.4.15.87.87,0,0,0-.27.51,10.12,10.12,0,0,0,0,3.17,1.07,1.07,0,0,0,.28.56.59.59,0,0,0,.4.14.65.65,0,0,0,.4-.14.94.94,0,0,0,.27-.51,10.12,10.12,0,0,0,0-3.17,1.07,1.07,0,0,0-.28-.56A.6.6,0,0,0,198.34,196.89Z"/><path class="cls-5" d="M201.52,202.34V201.1h1.24v1.24Z"/><path class="cls-5" d="M203.77,200.68l1.24-.13a1,1,0,0,0,.31.66.81.81,0,0,0,.59.25.84.84,0,0,0,.66-.32,1.41,1.41,0,0,0,.27-.94,1.26,1.26,0,0,0-.27-.89.89.89,0,0,0-.69-.3,1.25,1.25,0,0,0-.95.47l-1-.14.64-3.36h3.26v1.16h-2.33l-.19,1.09a1.79,1.79,0,0,1,.84-.2,1.89,1.89,0,0,1,1.4.59,2.16,2.16,0,0,1,.57,1.55,2.36,2.36,0,0,1-.46,1.42,2.05,2.05,0,0,1-1.75.86,2.15,2.15,0,0,1-1.45-.48A2,2,0,0,1,203.77,200.68Z"/><path class="cls-5" d="M208.76,197.13V196H213v.9a6.68,6.68,0,0,0-1.06,1.48,8.63,8.63,0,0,0-.82,2,7.68,7.68,0,0,0-.28,1.94h-1.19a8.24,8.24,0,0,1,.55-2.73,9.23,9.23,0,0,1,1.39-2.48Z"/><path class="cls-5" d="M218.58,204.23h-.85a8.76,8.76,0,0,1-1-2.11,7,7,0,0,1-.35-2.12,6.68,6.68,0,0,1,.44-2.4,8,8,0,0,1,1-1.81h.84a13.21,13.21,0,0,0-.83,2.26,8.79,8.79,0,0,0-.09,3.46,9.07,9.07,0,0,0,.37,1.43A13.46,13.46,0,0,0,218.58,204.23Z"/><path class="cls-5" d="M221.35,195.87a1.75,1.75,0,0,1,1.46.67,4.23,4.23,0,0,1,.63,2.62,4.31,4.31,0,0,1-.63,2.63,1.77,1.77,0,0,1-1.46.66,1.84,1.84,0,0,1-1.52-.73,5.91,5.91,0,0,1,.06-5.19A1.77,1.77,0,0,1,221.35,195.87Zm0,1a.6.6,0,0,0-.4.15.87.87,0,0,0-.27.51,6.7,6.7,0,0,0-.13,1.61,7.55,7.55,0,0,0,.11,1.56,1.15,1.15,0,0,0,.29.56.59.59,0,0,0,.4.14.65.65,0,0,0,.4-.14.94.94,0,0,0,.27-.51,10.12,10.12,0,0,0,0-3.17,1.07,1.07,0,0,0-.28-.56A.6.6,0,0,0,221.35,196.89Z"/><path class="cls-5" d="M224.53,202.34V201.1h1.23v1.24Z"/><path class="cls-5" d="M229.19,202.34V201h-2.64V200l2.8-4.09h1V200h.8V201h-.8v1.3Zm0-2.38v-2.21L227.71,200Z"/><path class="cls-5" d="M231.73,200.63l1.19-.15a1.11,1.11,0,0,0,.31.7.85.85,0,0,0,.61.24.81.81,0,0,0,.64-.29,1.13,1.13,0,0,0,.26-.78,1,1,0,0,0-.25-.74.8.8,0,0,0-.61-.27,2.22,2.22,0,0,0-.57.09l.14-1a1.13,1.13,0,0,0,.76-.22.78.78,0,0,0,.27-.61.7.7,0,0,0-.2-.52.68.68,0,0,0-.51-.2.77.77,0,0,0-.54.22,1,1,0,0,0-.27.65l-1.14-.2a2.51,2.51,0,0,1,.36-.93,1.53,1.53,0,0,1,.67-.55,2.24,2.24,0,0,1,1-.2,1.89,1.89,0,0,1,1.46.58,1.47,1.47,0,0,1,.46,1.07,1.5,1.5,0,0,1-.93,1.35A1.51,1.51,0,0,1,236,200.4a2,2,0,0,1-.62,1.45,2.31,2.31,0,0,1-3,.09A2,2,0,0,1,231.73,200.63Z"/><path class="cls-5" d="M236.37,200.46v-.92h5v.92Z"/><path class="cls-5" d="M243.86,195.87a1.75,1.75,0,0,1,1.47.67,5.74,5.74,0,0,1,0,5.25,1.74,1.74,0,0,1-1.46.66,1.82,1.82,0,0,1-1.51-.73,5.83,5.83,0,0,1,.06-5.19A1.75,1.75,0,0,1,243.86,195.87Zm0,1a.58.58,0,0,0-.39.15.94.94,0,0,0-.28.51,7.43,7.43,0,0,0-.12,1.61,6.89,6.89,0,0,0,.11,1.56,1.07,1.07,0,0,0,.29.56.57.57,0,0,0,.39.14.63.63,0,0,0,.4-.14,1,1,0,0,0,.28-.51,7.27,7.27,0,0,0,.13-1.61,6.66,6.66,0,0,0-.12-1.56,1.07,1.07,0,0,0-.29-.56A.59.59,0,0,0,243.86,196.89Z"/><path class="cls-5" d="M247.05,202.34V201.1h1.23v1.24Z"/><path class="cls-5" d="M249.28,197.13V196h4.23v.9a6.37,6.37,0,0,0-1.07,1.48,8.63,8.63,0,0,0-.82,2,7.68,7.68,0,0,0-.28,1.94h-1.19a8.24,8.24,0,0,1,.55-2.73,9.23,9.23,0,0,1,1.39-2.48Z"/><path class="cls-5" d="M256.71,202.34V201h-2.64V200l2.8-4.09h1V200h.8V201h-.8v1.3Zm0-2.38v-2.21L255.23,200Z"/><path class="cls-5" d="M259.21,204.23c.24-.52.42-.92.52-1.2a8.09,8.09,0,0,0,.27-1,8.51,8.51,0,0,0,.19-1,8.14,8.14,0,0,0,.06-1,8.4,8.4,0,0,0-.22-2,13.21,13.21,0,0,0-.83-2.26H260a7.6,7.6,0,0,1,1,2,6.36,6.36,0,0,1,.37,2.15,7.58,7.58,0,0,1-.29,2,8.25,8.25,0,0,1-1.09,2.32Z"/><path class="cls-2" d="M223.67,213.13h-1.23v-4.65a4.39,4.39,0,0,1-1.59.94V208.3a3.67,3.67,0,0,0,1-.6,2.31,2.31,0,0,0,.78-1h1Z"/><path class="cls-2" d="M225.78,213.13V211.9H227v1.23Z"/><path class="cls-2" d="M230.1,206.67a1.77,1.77,0,0,1,1.47.66,4.29,4.29,0,0,1,.63,2.63,4.23,4.23,0,0,1-.64,2.63,1.76,1.76,0,0,1-1.46.65,1.84,1.84,0,0,1-1.51-.72,4.29,4.29,0,0,1-.58-2.58,4.23,4.23,0,0,1,.64-2.61A1.75,1.75,0,0,1,230.1,206.67Zm0,1a.62.62,0,0,0-.39.14,1,1,0,0,0-.28.51,7.54,7.54,0,0,0-.12,1.62,7.44,7.44,0,0,0,.11,1.55,1.07,1.07,0,0,0,.29.57.62.62,0,0,0,.39.14.66.66,0,0,0,.41-.14,1.1,1.1,0,0,0,.27-.51,7.34,7.34,0,0,0,.13-1.61,6.66,6.66,0,0,0-.12-1.56,1.15,1.15,0,0,0-.29-.57A.61.61,0,0,0,230.1,207.69Z"/><path class="cls-2" d="M235.11,206.67a1.77,1.77,0,0,1,1.46.66,5.8,5.8,0,0,1,0,5.26,1.79,1.79,0,0,1-1.46.65,1.83,1.83,0,0,1-1.51-.72,5.87,5.87,0,0,1,.05-5.19A1.77,1.77,0,0,1,235.11,206.67Zm0,1a.65.65,0,0,0-.4.14.94.94,0,0,0-.27.51,6.79,6.79,0,0,0-.13,1.62,6.62,6.62,0,0,0,.12,1.55,1.07,1.07,0,0,0,.28.57.64.64,0,0,0,.8,0,.94.94,0,0,0,.27-.51,6.75,6.75,0,0,0,.13-1.61,7.48,7.48,0,0,0-.11-1.56,1.24,1.24,0,0,0-.29-.57A.65.65,0,0,0,235.11,207.69Z"/><line class="cls-10" x1="274.66" y1="191.53" x2="47.75" y2="191.53"/><path class="cls-9" d="M91.22,225H89.89l1.35-6.44h2.62a3,3,0,0,1,1.11.17,1.35,1.35,0,0,1,.64.54,1.69,1.69,0,0,1,.24.91,2.64,2.64,0,0,1-.19.95,2.24,2.24,0,0,1-.47.74,2.13,2.13,0,0,1-.59.42,3.38,3.38,0,0,1-.85.21,9.56,9.56,0,0,1-1.17.05h-.85Zm.73-3.52h.41a4.68,4.68,0,0,0,1.4-.13,1.19,1.19,0,0,0,.56-.42,1.15,1.15,0,0,0,.2-.64.65.65,0,0,0-.1-.38.64.64,0,0,0-.29-.22,3.36,3.36,0,0,0-.84-.07h-.94Z"/><path class="cls-9" d="M100.36,224.28,96,222.36V221.3l4.41-1.91v1.25l-3.08,1.18,3.08,1.22Z"/><path class="cls-9" d="M103.25,218.55a1.77,1.77,0,0,1,1.47.66,5.76,5.76,0,0,1,0,5.26,1.75,1.75,0,0,1-1.46.65,1.84,1.84,0,0,1-1.51-.72,5.83,5.83,0,0,1,.06-5.19A1.73,1.73,0,0,1,103.25,218.55Zm0,1a.65.65,0,0,0-.4.14,1.09,1.09,0,0,0-.27.52,7.21,7.21,0,0,0-.13,1.61,6.78,6.78,0,0,0,.12,1.56,1.07,1.07,0,0,0,.29.56.6.6,0,0,0,.39.14.63.63,0,0,0,.4-.14,1,1,0,0,0,.28-.51,11,11,0,0,0,0-3.17,1.15,1.15,0,0,0-.29-.57A.63.63,0,0,0,103.25,219.57Z"/><path class="cls-9" d="M106.43,225v-1.23h1.24V225Z"/><path class="cls-9" d="M110.76,218.55a1.77,1.77,0,0,1,1.46.66,5.8,5.8,0,0,1,0,5.26,1.76,1.76,0,0,1-1.46.65,1.86,1.86,0,0,1-1.52-.72,5.91,5.91,0,0,1,.06-5.19A1.77,1.77,0,0,1,110.76,218.55Zm0,1a.65.65,0,0,0-.4.14.94.94,0,0,0-.27.52,6.64,6.64,0,0,0-.13,1.61,7.62,7.62,0,0,0,.11,1.56,1.15,1.15,0,0,0,.29.56.64.64,0,0,0,.8,0,.94.94,0,0,0,.27-.51,6.75,6.75,0,0,0,.13-1.61,6.66,6.66,0,0,0-.12-1.56,1.16,1.16,0,0,0-.28-.57A.65.65,0,0,0,110.76,219.57Z"/><path class="cls-9" d="M115.76,218.55a1.79,1.79,0,0,1,1.47.66,4.36,4.36,0,0,1,.62,2.63,4.31,4.31,0,0,1-.63,2.63,1.75,1.75,0,0,1-1.46.65,1.84,1.84,0,0,1-1.51-.72,4.21,4.21,0,0,1-.58-2.57,4.25,4.25,0,0,1,.63-2.62A1.77,1.77,0,0,1,115.76,218.55Zm0,1a.65.65,0,0,0-.4.14,1.09,1.09,0,0,0-.27.52,7.21,7.21,0,0,0-.13,1.61,6.78,6.78,0,0,0,.12,1.56,1.07,1.07,0,0,0,.28.56.65.65,0,0,0,.4.14.63.63,0,0,0,.4-.14.94.94,0,0,0,.27-.51,6.75,6.75,0,0,0,.13-1.61,7.48,7.48,0,0,0-.11-1.56,1.15,1.15,0,0,0-.29-.57A.65.65,0,0,0,115.76,219.57Z"/><path class="cls-9" d="M121.84,225H120.6v-4.65a4.39,4.39,0,0,1-1.59.94v-1.12a3.85,3.85,0,0,0,1-.6,2.31,2.31,0,0,0,.78-1h1Z"/><path class="cls-9" d="M126.39,225v-6.44h1.24v2.32a1.75,1.75,0,0,1,1.35-.65,1.82,1.82,0,0,1,1.41.62,2.56,2.56,0,0,1,.56,1.77,2.68,2.68,0,0,1-.57,1.84,1.74,1.74,0,0,1-2.17.45,1.87,1.87,0,0,1-.67-.59V225Zm1.23-2.43a2,2,0,0,0,.23,1.07,1,1,0,0,0,.85.49.88.88,0,0,0,.7-.34,1.78,1.78,0,0,0,.28-1.11,1.85,1.85,0,0,0-.28-1.15,1,1,0,0,0-.75-.35.91.91,0,0,0-.73.34A1.57,1.57,0,0,0,127.62,222.58Z"/><path class="cls-9" d="M131.36,220.35h1.31l1.12,3.31,1.09-3.31h1.28l-1.65,4.49-.29.81a3.21,3.21,0,0,1-.31.62,1.42,1.42,0,0,1-.34.35,1.56,1.56,0,0,1-.47.21,2.47,2.47,0,0,1-.63.08,3.27,3.27,0,0,1-.7-.08l-.11-1a2.52,2.52,0,0,0,.52,0,.77.77,0,0,0,.64-.25,1.83,1.83,0,0,0,.32-.64Z"/><path class="cls-9" d="M139,223.68l1.24-.19a.94.94,0,0,0,.32.55,1.06,1.06,0,0,0,.68.19,1.19,1.19,0,0,0,.72-.18.38.38,0,0,0,.16-.33.32.32,0,0,0-.09-.23.91.91,0,0,0-.41-.16,6.82,6.82,0,0,1-1.89-.6,1.23,1.23,0,0,1-.56-1.06,1.3,1.3,0,0,1,.48-1,2.23,2.23,0,0,1,1.49-.42,2.55,2.55,0,0,1,1.42.32,1.52,1.52,0,0,1,.64.92l-1.16.21a.73.73,0,0,0-.28-.42,1.11,1.11,0,0,0-.6-.14,1.27,1.27,0,0,0-.7.14.3.3,0,0,0-.14.25.28.28,0,0,0,.12.22,4.91,4.91,0,0,0,1.16.35,3.52,3.52,0,0,1,1.38.55,1.16,1.16,0,0,1,.38.92,1.44,1.44,0,0,1-.53,1.1,2.38,2.38,0,0,1-1.59.46,2.58,2.58,0,0,1-1.51-.39A1.77,1.77,0,0,1,139,223.68Z"/><path class="cls-9" d="M146.59,220.35v1h-.84v1.88a6.69,6.69,0,0,0,0,.67.33.33,0,0,0,.11.15.31.31,0,0,0,.21.07,1.64,1.64,0,0,0,.5-.12l.1,1a2.3,2.3,0,0,1-1,.19,1.6,1.6,0,0,1-.6-.11,1,1,0,0,1-.4-.29,1.18,1.18,0,0,1-.17-.48,5.57,5.57,0,0,1,0-.87v-2h-.57v-1h.57v-.93l1.24-.72v1.65Z"/><path class="cls-9" d="M148.63,225H147.4v-4.66h1.14V221a2.2,2.2,0,0,1,.53-.62,1,1,0,0,1,.53-.15,1.53,1.53,0,0,1,.82.24l-.38,1.07a1.15,1.15,0,0,0-.58-.2.7.7,0,0,0-.44.14,1,1,0,0,0-.29.52,8.08,8.08,0,0,0-.1,1.56Z"/><path class="cls-9" d="M151.87,221.77l-1.12-.2a1.78,1.78,0,0,1,.65-1,2.37,2.37,0,0,1,1.37-.33,3,3,0,0,1,1.23.2,1.22,1.22,0,0,1,.57.49,2.57,2.57,0,0,1,.17,1.11l0,1.44a5,5,0,0,0,.06.91,2.64,2.64,0,0,0,.23.62h-1.23a3.34,3.34,0,0,1-.11-.36c0-.07,0-.12,0-.15a2.31,2.31,0,0,1-.68.47,1.94,1.94,0,0,1-.76.15,1.61,1.61,0,0,1-1.14-.39,1.29,1.29,0,0,1-.42-1,1.42,1.42,0,0,1,.19-.71,1.34,1.34,0,0,1,.53-.47,4.11,4.11,0,0,1,1-.29,6.34,6.34,0,0,0,1.19-.3v-.12a.63.63,0,0,0-.17-.51,1.08,1.08,0,0,0-.67-.15.86.86,0,0,0-.51.13A.93.93,0,0,0,151.87,221.77Zm1.65,1a4.89,4.89,0,0,1-.75.19,2.53,2.53,0,0,0-.67.22.51.51,0,0,0-.24.43.64.64,0,0,0,.19.45.67.67,0,0,0,.49.19,1,1,0,0,0,.64-.22.8.8,0,0,0,.3-.41,2.63,2.63,0,0,0,0-.6Z"/><path class="cls-9" d="M158.09,220.35v1h-.84v1.88a6.69,6.69,0,0,0,0,.67.33.33,0,0,0,.11.15.31.31,0,0,0,.21.07,1.58,1.58,0,0,0,.5-.12l.1,1a2.3,2.3,0,0,1-1,.19,1.64,1.64,0,0,1-.6-.11,1,1,0,0,1-.4-.29,1.18,1.18,0,0,1-.17-.48,5.57,5.57,0,0,1,0-.87v-2h-.57v-1H156v-.93l1.24-.72v1.65Z"/><path class="cls-9" d="M159,219.72v-1.15h1.24v1.15Zm0,5.29v-4.66h1.24V225Z"/><path class="cls-9" d="M160.91,220.35h.69V220a2.4,2.4,0,0,1,.12-.88,1,1,0,0,1,.46-.47,1.7,1.7,0,0,1,.85-.19,3.7,3.7,0,0,1,1,.16l-.17.86a3,3,0,0,0-.57-.07.46.46,0,0,0-.38.13.69.69,0,0,0-.12.48v.33h.92v1h-.92V225H161.6v-3.69h-.69Z"/><path class="cls-9" d="M164.45,219.72v-1.15h1.23v1.15Zm0,5.29v-4.66h1.23V225Z"/><path class="cls-9" d="M169.65,223.53l1.23.21a2.06,2.06,0,0,1-.75,1,2.24,2.24,0,0,1-1.28.35,2.11,2.11,0,0,1-1.8-.79,2.69,2.69,0,0,1-.46-1.61,2.59,2.59,0,0,1,.6-1.82,2,2,0,0,1,1.54-.66,2.07,2.07,0,0,1,1.64.69,3,3,0,0,1,.57,2.11h-3.09a1.25,1.25,0,0,0,.3.85,1,1,0,0,0,.71.31.78.78,0,0,0,.49-.16A1,1,0,0,0,169.65,223.53Zm.07-1.25a1.15,1.15,0,0,0-.28-.81.83.83,0,0,0-.64-.28.88.88,0,0,0-.67.29,1.18,1.18,0,0,0-.26.8Z"/><path class="cls-9" d="M176.23,225h-1.15v-.68a1.87,1.87,0,0,1-.67.59,1.75,1.75,0,0,1-.79.2,1.78,1.78,0,0,1-1.37-.65,2.64,2.64,0,0,1-.57-1.81,2.6,2.6,0,0,1,.55-1.8,1.84,1.84,0,0,1,1.41-.62,1.79,1.79,0,0,1,1.36.65v-2.32h1.23Zm-3.3-2.43a2.2,2.2,0,0,0,.21,1.08.94.94,0,0,0,.84.48.91.91,0,0,0,.72-.36,1.66,1.66,0,0,0,.3-1.08,1.86,1.86,0,0,0-.29-1.16,1,1,0,0,0-1.48,0A1.56,1.56,0,0,0,172.93,222.58Z"/><path class="cls-9" d="M180,225v-6.44h1.23V225Z"/><path class="cls-9" d="M182.16,222.62a2.6,2.6,0,0,1,.3-1.2,2.12,2.12,0,0,1,.86-.87,2.49,2.49,0,0,1,1.25-.31,2.32,2.32,0,0,1,1.73.69,2.57,2.57,0,0,1,0,3.49,2.28,2.28,0,0,1-1.72.7,2.77,2.77,0,0,1-1.22-.29,2,2,0,0,1-.89-.85A2.85,2.85,0,0,1,182.16,222.62Zm1.27.06a1.57,1.57,0,0,0,.33,1.07,1.09,1.09,0,0,0,1.62,0,1.59,1.59,0,0,0,.33-1.08,1.52,1.52,0,0,0-.33-1,1.07,1.07,0,0,0-1.62,0A1.53,1.53,0,0,0,183.43,222.68Z"/><path class="cls-9" d="M187.83,225.32l1.41.17a.48.48,0,0,0,.16.34.93.93,0,0,0,.56.13,1.39,1.39,0,0,0,.72-.14.65.65,0,0,0,.25-.31,2.39,2.39,0,0,0,0-.57v-.68a1.67,1.67,0,0,1-1.39.75,1.71,1.71,0,0,1-1.49-.79,2.68,2.68,0,0,1-.43-1.56,2.56,2.56,0,0,1,.56-1.8,1.84,1.84,0,0,1,1.4-.62,1.72,1.72,0,0,1,1.43.76v-.65h1.16v4.19a4.13,4.13,0,0,1-.14,1.23,1.54,1.54,0,0,1-.38.64,1.61,1.61,0,0,1-.66.37,3.72,3.72,0,0,1-1,.13,2.68,2.68,0,0,1-1.68-.41,1.26,1.26,0,0,1-.49-1Zm1.1-2.73a1.68,1.68,0,0,0,.29,1.08.89.89,0,0,0,.71.35,1,1,0,0,0,.76-.36,1.5,1.5,0,0,0,.32-1,1.62,1.62,0,0,0-.3-1.08.93.93,0,0,0-.76-.35.91.91,0,0,0-.73.34A1.64,1.64,0,0,0,188.93,222.59Z"/><path class="cls-9" d="M193.3,223.3v-1.24h2.43v1.24Z"/><path class="cls-9" d="M197.62,225h-1.24v-4.66h1.15V221a2.05,2.05,0,0,1,.53-.62,1,1,0,0,1,.53-.15,1.56,1.56,0,0,1,.82.24l-.39,1.07a1.09,1.09,0,0,0-.58-.2.67.67,0,0,0-.43.14,1,1,0,0,0-.29.52,7.31,7.31,0,0,0-.1,1.56Z"/><path class="cls-9" d="M200.86,221.77l-1.12-.2a1.73,1.73,0,0,1,.65-1,2.37,2.37,0,0,1,1.37-.33,3,3,0,0,1,1.23.2,1.22,1.22,0,0,1,.57.49,2.57,2.57,0,0,1,.17,1.11l0,1.44a5,5,0,0,0,.06.91,3.1,3.1,0,0,0,.22.62h-1.22q0-.12-.12-.36l0-.15a2.31,2.31,0,0,1-.68.47,1.94,1.94,0,0,1-.76.15,1.59,1.59,0,0,1-1.14-.39,1.29,1.29,0,0,1-.42-1,1.42,1.42,0,0,1,.19-.71,1.28,1.28,0,0,1,.53-.47,4.16,4.16,0,0,1,1-.29,6.29,6.29,0,0,0,1.2-.3v-.12a.66.66,0,0,0-.17-.51,1.08,1.08,0,0,0-.67-.15.84.84,0,0,0-.51.13A.93.93,0,0,0,200.86,221.77Zm1.65,1a5.62,5.62,0,0,1-.75.19,2.4,2.4,0,0,0-.67.22.51.51,0,0,0-.24.43.6.6,0,0,0,.19.45.66.66,0,0,0,.49.19,1,1,0,0,0,.64-.22.73.73,0,0,0,.29-.41,2,2,0,0,0,0-.6Z"/><path class="cls-9" d="M209.19,225H208v-2.38a3.29,3.29,0,0,0-.08-1,.7.7,0,0,0-.25-.35.77.77,0,0,0-.43-.12,1,1,0,0,0-.58.17,1,1,0,0,0-.35.47,4.19,4.19,0,0,0-.09,1.07V225h-1.24v-4.66h1.15V221a1.89,1.89,0,0,1,1.54-.79,1.78,1.78,0,0,1,.74.15,1.31,1.31,0,0,1,.52.37,1.64,1.64,0,0,1,.24.52,4.26,4.26,0,0,1,.07.83Z"/><path class="cls-9" d="M210.39,225v-6.44h1.24V222l1.45-1.64h1.52l-1.6,1.7,1.71,3h-1.33l-1.18-2.09-.57.6V225Z"/><path class="cls-9" d="M220.08,220.35v1h-.84v1.88a6.69,6.69,0,0,0,0,.67.33.33,0,0,0,.11.15.31.31,0,0,0,.21.07,1.64,1.64,0,0,0,.5-.12l.1,1a2.3,2.3,0,0,1-1,.19,1.6,1.6,0,0,1-.6-.11,1,1,0,0,1-.4-.29,1.18,1.18,0,0,1-.17-.48,5.57,5.57,0,0,1,0-.87v-2h-.57v-1H218v-.93l1.24-.72v1.65Z"/><path class="cls-9" d="M223.64,223.53l1.23.21a2.06,2.06,0,0,1-.75,1,2.24,2.24,0,0,1-1.28.35,2.11,2.11,0,0,1-1.8-.79,2.69,2.69,0,0,1-.46-1.61,2.59,2.59,0,0,1,.6-1.82,2,2,0,0,1,1.54-.66,2.07,2.07,0,0,1,1.64.69,3.09,3.09,0,0,1,.58,2.11h-3.09a1.2,1.2,0,0,0,.29.85,1,1,0,0,0,.71.31.78.78,0,0,0,.49-.16A1,1,0,0,0,223.64,223.53Zm.07-1.25a1.15,1.15,0,0,0-.28-.81.81.81,0,0,0-.64-.28.85.85,0,0,0-.66.29,1.09,1.09,0,0,0-.26.8Z"/><path class="cls-9" d="M225.51,223.68l1.24-.19a.89.89,0,0,0,.32.55,1,1,0,0,0,.68.19,1.24,1.24,0,0,0,.72-.18.41.41,0,0,0,.16-.33.32.32,0,0,0-.09-.23,1,1,0,0,0-.41-.16,6.81,6.81,0,0,1-1.9-.6,1.22,1.22,0,0,1-.55-1.06,1.27,1.27,0,0,1,.48-1,2.2,2.2,0,0,1,1.48-.42,2.59,2.59,0,0,1,1.43.32,1.57,1.57,0,0,1,.64.92l-1.17.21a.69.69,0,0,0-.28-.42,1.09,1.09,0,0,0-.59-.14,1.24,1.24,0,0,0-.7.14.28.28,0,0,0,0,.47,4.59,4.59,0,0,0,1.15.35,3.39,3.39,0,0,1,1.38.55,1.13,1.13,0,0,1,.39.92,1.41,1.41,0,0,1-.54,1.1,2.36,2.36,0,0,1-1.58.46,2.58,2.58,0,0,1-1.51-.39A1.69,1.69,0,0,1,225.51,223.68Z"/><path class="cls-9" d="M233.09,220.35v1h-.85v1.88a3.82,3.82,0,0,0,0,.67.23.23,0,0,0,.11.15.28.28,0,0,0,.21.07,1.54,1.54,0,0,0,.49-.12l.11,1a2.35,2.35,0,0,1-1,.19,1.64,1.64,0,0,1-.6-.11.87.87,0,0,1-.39-.29,1.18,1.18,0,0,1-.18-.48,8,8,0,0,1,0-.87v-2h-.57v-1H231v-.93l1.23-.72v1.65Z"/></svg>