<svg id="Layer_1" data-name="Layer 1" xmlns="http://www.w3.org/2000/svg" xmlns:xlink="http://www.w3.org/1999/xlink" viewBox="0 0 1298.46 863.93"><defs><style>.cls-1{fill:url(#linear-gradient);}.cls-10,.cls-2,.cls-3{fill:none;}.cls-2,.cls-6{stroke:#808285;}.cls-10,.cls-2,.cls-3,.cls-9{stroke-linecap:square;}.cls-2,.cls-3,.cls-6,.cls-8{stroke-miterlimit:10;stroke-width:4px;}.cls-3,.cls-8{stroke:#6cc04a;}.cls-4{fill:#808285;}.cls-5{fill:#585858;}.cls-6,.cls-8,.cls-9{fill:#fff;}.cls-7{fill:#48a548;}.cls-10,.cls-9{stroke:#585858;stroke-width:2px;}</style><linearGradient id="linear-gradient" x1="86.41" y1="185.88" x2="1252.78" y2="185.88" gradientUnits="userSpaceOnUse"><stop offset="0.77" stop-color="#daedda"/><stop offset="0.86" stop-color="#e5f2e5"/><stop offset="0.99" stop-color="#fff"/></linearGradient></defs><title>all_charts_L13</title><polygon class="cls-1" points="86.41 34.63 88.04 34.63 88.04 40.31 104.26 40.31 104.26 41.45 118.82 41.45 118.82 42.6 120.45 42.6 120.45 43.74 125.3 43.74 125.3 47.17 130.16 47.17 130.16 48.32 131.78 48.32 131.78 50.6 139.9 50.6 139.9 51.74 146.38 51.74 146.38 52.89 156.09 52.89 156.09 54.03 159.31 54.03 159.31 55.17 160.94 55.17 160.94 56.31 164.2 56.31 164.2 57.46 172.27 57.46 172.27 58.6 190.09 58.6 190.09 60.93 191.72 60.93 191.72 62.08 193.35 62.08 193.35 63.22 204.69 63.22 204.69 64.36 211.16 64.36 211.16 65.5 212.8 65.5 212.8 67.79 214.39 67.79 214.39 68.93 216.02 68.93 216.02 71.22 217.64 71.22 217.64 73.51 219.28 73.51 220.88 73.51 220.88 75.8 222.5 75.8 222.5 79.26 224.13 79.26 224.13 93.02 225.76 93.02 225.76 98.79 227.35 98.79 227.35 101.07 228.98 101.07 228.98 106.82 230.62 106.82 230.62 109.12 232.2 109.12 232.2 110.25 233.83 110.25 233.83 111.44 235.46 111.44 237.1 111.44 237.1 112.57 245.18 112.57 245.18 113.72 251.65 113.72 251.65 114.86 275.94 114.86 275.94 116.05 280.8 116.05 280.8 117.19 290.55 117.19 290.55 118.33 326.18 118.33 326.18 119.48 331.03 119.48 331.03 120.66 332.66 120.66 332.66 121.81 337.51 121.81 337.51 122.95 345.62 122.95 345.62 124.09 350.48 124.09 356.97 124.09 356.97 126.42 360.18 126.42 360.18 128.74 361.82 128.74 361.82 133.35 365.07 133.35 365.07 134.5 374.77 134.5 374.77 135.68 378 135.68 378 136.82 379.63 136.82 379.63 137.97 386.11 137.97 386.11 139.15 387.75 139.15 413.67 139.15 413.67 140.29 426.61 140.29 426.61 141.44 429.86 141.44 429.86 142.62 439.57 142.62 439.57 143.76 460.64 143.76 460.64 144.9 463.86 144.9 463.86 146.08 468.74 146.08 468.74 147.23 473.6 147.23 473.6 148.41 486.55 148.41 486.55 149.55 497.89 149.55 497.89 150.69 505.97 150.69 505.97 151.88 512.45 151.88 512.45 153.02 515.71 153.02 515.71 154.2 517.35 154.2 517.35 155.35 518.93 155.35 518.93 156.53 522.2 156.53 522.2 157.67 531.9 157.67 531.9 158.85 546.5 158.85 546.5 160.04 549.72 160.04 549.72 161.18 559.46 161.18 559.46 162.36 564.31 162.36 564.31 163.5 583.75 163.5 583.75 164.69 586.98 164.69 586.98 165.86 598.32 165.86 608.06 165.86 611.29 165.86 612.9 165.86 616.14 165.86 617.75 165.86 619.39 165.86 620.98 165.86 625.87 165.86 627.47 165.86 629.1 165.86 630.73 165.86 632.36 165.86 632.36 167.09 633.95 167.09 633.95 168.35 635.59 168.35 637.22 168.35 637.22 169.6 638.8 169.6 640.44 169.6 640.44 170.94 642.05 170.94 643.69 170.94 643.69 172.23 645.29 172.23 645.29 173.56 648.54 173.56 650.17 173.56 650.17 174.9 659.88 174.9 661.51 174.9 663.11 174.9 666.36 174.9 666.36 176.28 667.98 176.28 671.21 176.28 671.21 177.64 672.84 177.64 674.46 177.64 677.69 177.64 682.54 177.64 687.4 177.64 689.03 177.64 690.66 177.64 700.37 177.64 702 177.64 703.63 177.64 705.25 177.64 706.86 177.64 708.47 177.64 710.11 177.64 711.7 177.64 713.33 177.64 713.33 179.17 714.95 179.17 716.59 179.17 716.59 180.73 718.18 180.73 719.81 180.73 721.44 180.73 721.44 182.34 723.07 182.34 723.07 183.97 724.66 183.97 727.93 183.97 729.55 183.97 731.15 183.97 732.77 183.97 734.41 183.97 737.63 183.97 740.89 183.97 742.47 183.97 744.11 183.97 745.74 183.97 747.37 183.97 752.23 183.97 752.23 185.84 755.45 185.84 757.08 185.84 758.69 185.84 761.92 185.84 763.56 185.84 765.19 185.84 766.77 185.84 768.4 185.84 770.04 185.84 770.04 187.82 774.88 187.82 776.52 187.82 778.15 187.82 779.74 187.82 781.38 187.82 783 187.82 784.6 187.82 792.72 187.82 794.35 187.82 795.97 187.82 797.58 187.82 797.58 190 799.18 190 804.04 190 805.67 190 807.3 190 810.53 190 820.26 190 821.87 190 823.5 190 823.5 192.28 825.11 192.28 826.75 192.28 828.34 192.28 829.97 192.28 829.97 194.65 833.19 194.65 834.83 194.65 838.09 194.65 839.68 194.65 841.31 194.65 844.57 194.65 846.17 194.65 847.8 194.65 849.42 194.65 851.06 194.65 852.65 194.65 854.28 194.65 855.91 194.65 857.49 194.65 859.13 194.65 860.76 194.65 862.38 194.65 863.99 194.65 863.99 197.73 865.61 197.73 867.24 197.73 868.86 197.73 870.46 197.73 873.72 197.73 873.72 200.97 875.35 200.97 878.58 200.97 880.21 200.97 881.8 200.97 883.43 200.97 885.06 200.97 886.68 200.97 888.29 200.97 889.92 200.97 891.54 200.97 894.76 200.97 898.02 200.97 899.65 200.97 902.87 200.97 904.51 200.97 906.1 200.97 907.73 200.97 909.36 200.97 910.98 200.97 914.22 200.97 915.83 200.97 919.05 200.97 922.33 200.97 928.8 200.97 930.39 200.97 935.29 200.97 938.51 200.97 940.14 200.97 941.77 200.97 943.36 200.97 954.71 200.97 956.32 200.97 961.17 200.97 972.55 200.97 974.15 200.97 975.77 200.97 979 200.97 980.63 200.97 982.26 200.97 983.88 200.97 985.47 200.97 987.11 200.97 990.37 200.97 995.22 200.97 996.85 200.97 1000.08 200.97 1003.3 200.97 1011.42 200.97 1016.27 200.97 1016.27 209.97 1017.89 209.97 1024.38 209.97 1029.22 209.97 1030.86 209.97 1034.08 209.97 1040.57 209.97 1042.2 209.97 1045.45 209.97 1048.67 209.97 1077.82 209.97 1081.08 209.97 1084.31 209.97 1092.42 209.97 1095.64 209.97 1097.27 209.97 1098.91 209.97 1102.13 209.97 1110.23 209.97 1116.72 209.97 1118.35 209.97 1119.94 209.97 1123.2 209.97 1124.8 209.97 1126.42 209.97 1128.06 209.97 1136.16 209.97 1139.39 209.97 1145.87 209.97 1175.03 209.97 1178.28 209.97 1181.51 209.97 1252.78 209.97 1243.07 337.12 1209.07 337.12 1189.62 337.12 1173.4 337.12 1166.95 337.12 1153.98 337.12 1152.35 337.12 1147.5 337.12 1144.23 337.12 1142.65 337.12 1139.39 337.12 1137.76 337.12 1132.91 337.12 1123.2 337.12 1121.57 337.12 1113.45 337.12 1108.62 337.12 1095.64 337.12 1092.42 337.12 1092.42 322.49 1087.56 322.49 1081.08 322.49 1066.49 322.49 1053.52 322.49 1051.89 322.49 1045.45 322.49 1043.81 322.49 1040.57 322.49 1040.57 312.39 1032.49 312.39 1029.22 312.39 1025.99 312.39 1022.74 312.39 1014.66 312.39 1013.04 312.39 1008.2 312.39 1006.56 312.39 1003.3 312.39 1000.08 312.39 995.22 312.39 993.58 312.39 990.37 312.39 988.74 312.39 987.11 312.39 985.47 312.39 985.47 306.44 983.88 306.44 982.26 306.44 980.63 306.44 977.39 306.44 967.66 306.44 967.66 301.3 961.17 301.3 953.1 301.3 945 301.3 932.03 301.3 928.8 301.3 927.18 301.3 927.18 296.69 925.54 296.69 920.69 296.69 919.05 296.69 915.83 296.69 914.22 296.69 902.87 296.69 899.65 296.69 898.02 296.69 894.76 296.69 893.16 296.69 888.29 296.69 885.06 296.69 883.43 296.69 883.43 292.99 881.8 292.99 880.21 292.99 878.58 292.99 875.35 292.99 872.09 292.99 870.46 292.99 868.86 292.99 867.24 292.99 865.61 292.99 863.99 292.99 862.38 292.99 862.38 289.98 860.76 289.98 859.13 289.98 857.49 289.98 857.49 287.23 855.91 287.23 854.28 287.23 852.65 287.23 851.06 287.23 851.06 284.68 849.42 284.68 847.8 284.68 846.17 284.68 846.17 282.39 844.57 282.39 842.94 282.39 839.68 282.39 838.09 282.39 836.45 282.39 834.83 282.39 833.19 282.39 831.61 282.39 825.11 282.39 825.11 280.25 813.79 280.25 812.15 280.25 812.15 278.2 810.53 278.2 810.53 276.14 807.3 276.14 804.04 276.14 799.18 276.14 794.35 276.14 784.6 276.14 783 276.14 781.38 276.14 779.74 276.14 778.15 276.14 776.52 276.14 774.88 276.14 773.26 276.14 771.67 276.14 765.19 276.14 761.92 276.14 760.3 276.14 758.69 276.14 757.08 276.14 755.45 276.14 752.23 276.14 752.23 274.43 745.74 274.43 744.11 274.43 742.47 274.43 739.26 274.43 737.63 274.43 736.01 274.43 734.41 274.43 732.77 274.43 731.15 274.43 729.55 274.43 729.55 272.82 727.93 272.82 724.66 272.82 723.07 272.82 723.07 269.7 721.44 269.7 721.44 268.21 719.81 268.21 718.18 268.21 718.18 266.76 714.95 266.76 713.33 266.76 713.33 265.31 711.7 265.31 711.7 263.9 710.11 263.9 708.47 263.9 706.86 263.9 705.25 263.9 703.63 263.9 703.63 261.2 702 261.2 700.37 261.2 697.15 261.2 690.66 261.2 666.36 261.2 666.36 259.86 661.51 259.86 661.51 258.52 658.25 258.52 656.66 258.52 655.02 258.52 651.77 258.52 651.77 257.2 650.17 257.2 646.91 257.2 645.29 257.2 645.29 255.94 643.69 255.94 642.05 255.94 642.05 254.64 638.8 254.64 637.22 254.64 637.22 253.42 635.59 253.42 635.59 252.16 633.95 252.16 633.95 250.94 632.36 250.94 632.36 247.33 630.73 247.33 630.73 243.7 629.1 243.7 629.1 242.48 627.47 242.48 627.47 241.3 624.24 241.3 624.24 240.08 622.61 240.08 620.98 240.08 620.98 238.9 619.39 238.9 617.75 238.9 603.17 238.9 586.98 238.9 586.98 237.72 570.79 237.72 570.79 236.54 548.09 236.54 548.09 235.36 531.9 235.36 531.9 234.17 522.2 234.17 522.2 232.99 518.93 232.99 518.93 231.81 509.23 231.81 509.23 230.62 507.6 230.62 507.6 229.45 504.37 229.45 504.37 228.26 502.75 228.26 502.75 227.08 497.89 227.08 497.89 222.36 496.26 222.36 496.26 218.85 494.63 218.85 494.63 216.49 491.41 216.49 491.41 215.3 489.77 215.3 489.77 212.94 488.15 212.94 488.15 210.62 486.55 210.62 486.55 209.44 484.94 209.44 484.94 207.07 471.96 207.07 471.96 205.89 470.33 205.89 470.33 204.71 460.64 204.71 460.64 203.56 441.19 203.56 441.19 202.38 436.33 202.38 431.49 202.38 431.49 201.2 429.86 201.2 429.86 200.01 425 200.01 425 198.84 421.75 198.84 421.75 197.69 420.14 197.69 420.14 196.51 413.67 196.51 413.67 195.33 399.08 195.33 399.08 194.15 395.85 194.15 395.85 191.82 390.97 191.82 390.97 190.65 389.37 190.65 389.37 189.46 379.63 189.46 379.63 188.28 374.77 188.28 374.77 187.14 373.15 187.14 373.15 185.95 371.55 185.95 371.55 184.78 369.93 184.78 368.3 184.78 368.3 182.44 366.67 182.44 366.67 181.27 365.07 181.27 365.07 180.08 363.44 180.08 363.44 178.93 361.82 178.93 361.82 176.57 360.18 176.57 360.18 170.75 358.6 170.75 358.6 164.88 356.97 164.88 356.97 163.74 355.33 163.74 355.33 161.37 353.7 161.37 353.7 160.18 350.48 160.18 350.48 156.68 348.85 156.68 348.85 155.53 345.62 155.53 345.62 153.17 340.78 153.17 340.78 152.03 326.18 152.03 326.18 149.66 321.32 149.66 321.32 148.52 316.47 148.52 316.47 147.34 314.85 147.34 314.85 146.16 311.59 146.16 311.59 144.98 305.11 144.98 305.11 143.83 303.51 143.83 303.51 142.65 301.88 142.65 301.88 141.47 292.17 141.47 292.17 140.32 287.29 140.32 287.29 139.14 267.87 139.14 267.87 137.97 262.98 137.97 262.98 136.82 259.76 136.82 259.76 135.64 258.14 135.64 258.14 133.31 251.65 133.31 251.65 132.13 235.46 132.13 235.46 130.95 233.83 130.95 233.83 129.81 232.2 129.81 232.2 127.44 230.62 127.44 230.62 125.12 228.98 125.12 227.35 125.12 227.35 121.65 225.76 121.65 225.76 112.31 224.13 112.31 224.13 105.33 222.5 105.33 222.5 99.54 220.88 99.54 220.88 93.75 219.28 93.75 219.28 91.43 217.64 91.43 217.64 87.91 216.02 87.91 216.02 85.63 214.39 85.63 214.39 82.12 212.8 82.12 212.8 77.51 211.16 77.51 211.16 76.33 209.54 76.33 209.54 75.19 204.69 75.19 204.69 74.05 203.05 74.05 203.05 72.86 198.2 72.86 198.2 71.72 196.57 71.72 196.57 70.54 194.98 70.54 194.98 68.25 193.35 68.25 193.35 65.92 191.72 65.92 191.72 62.41 178.75 62.41 178.75 61.27 172.27 61.27 172.27 60.13 165.79 60.13 165.79 58.95 164.2 58.95 164.2 57.81 162.57 57.81 162.57 56.62 159.31 56.62 159.31 53.15 156.09 53.15 156.09 48.54 149.6 48.54 149.6 47.37 147.97 47.37 147.97 46.22 143.12 46.22 143.12 45.03 138.27 45.03 138.27 43.89 133.42 43.89 133.42 42.75 128.56 42.75 128.56 41.56 123.67 41.56 123.67 40.42 122.08 40.42 122.08 39.24 101 39.24 101 38.1 88.04 38.1 88.04 34.63 86.41 34.63"/><polyline class="cls-2" points="86.41 34.63 88.04 34.63 88.04 38.1 101 38.1 101 39.24 122.08 39.24 122.08 40.42 123.67 40.42 123.67 41.56 128.56 41.56 128.56 42.75 133.42 42.75 133.42 43.89 138.27 43.89 138.27 45.03 143.12 45.03 143.12 46.22 147.97 46.22 147.97 47.37 149.6 47.37 149.6 48.54 156.09 48.54 156.09 53.15 159.31 53.15 159.31 56.62 162.57 56.62 162.57 57.81 164.2 57.81 164.2 58.95 165.79 58.95 165.79 60.13 172.27 60.13 172.27 61.27 178.75 61.27 178.75 62.41 191.72 62.41 191.72 65.92 193.35 65.92 193.35 68.25 194.98 68.25 194.98 70.54 196.57 70.54 196.57 71.72 198.2 71.72 198.2 72.86 203.05 72.86 203.05 74.05 204.69 74.05 204.69 75.19 209.54 75.19 209.54 76.33 211.16 76.33 211.16 77.51 212.8 77.51 212.8 82.12 214.39 82.12 214.39 85.63 216.02 85.63 216.02 87.91 217.64 87.91 217.64 91.43 219.28 91.43 219.28 93.75 220.88 93.75 220.88 99.54 222.5 99.54 222.5 105.33 224.13 105.33 224.13 112.31 225.76 112.31 225.76 121.65 227.35 121.65 227.35 125.12 228.98 125.12 230.62 125.12 230.62 127.44 232.2 127.44 232.2 129.81 233.83 129.81 233.83 130.95 235.46 130.95 235.46 132.13 251.65 132.13 251.65 133.31 258.14 133.31 258.14 135.64 259.76 135.64 259.76 136.82 262.98 136.82 262.98 137.97 267.87 137.97 267.87 139.14 287.29 139.14 287.29 140.32 292.17 140.32 292.17 141.47 301.88 141.47 301.88 142.65 303.51 142.65 303.51 143.83 305.11 143.83 305.11 144.98 311.59 144.98 311.59 146.16 314.85 146.16 314.85 147.34 316.47 147.34 316.47 148.52 321.32 148.52 321.32 149.66 326.18 149.66 326.18 152.03 340.78 152.03 340.78 153.17 345.62 153.17 345.62 155.53 348.85 155.53 348.85 156.68 350.48 156.68 350.48 160.18 353.7 160.18 353.7 161.37 355.33 161.37 355.33 163.74 356.97 163.74 356.97 164.88 358.6 164.88 358.6 170.75 360.18 170.75 360.18 176.57 361.82 176.57 361.82 178.93 363.44 178.93 363.44 180.08 365.07 180.08 365.07 181.27 366.67 181.27 366.67 182.44 368.3 182.44 368.3 184.78 369.93 184.78 371.55 184.78 371.55 185.95 373.15 185.95 373.15 187.14 374.77 187.14 374.77 188.28 379.63 188.28 379.63 189.46 389.37 189.46 389.37 190.65 390.97 190.65 390.97 191.82 395.85 191.82 395.85 194.15 399.08 194.15 399.08 195.33 413.67 195.33 413.67 196.51 420.14 196.51 420.14 197.69 421.75 197.69 421.75 198.84 425 198.84 425 200.01 429.86 200.01 429.86 201.2 431.49 201.2 431.49 202.38 436.33 202.38 441.19 202.38 441.19 203.56 460.64 203.56 460.64 204.71 470.33 204.71 470.33 205.89 471.96 205.89 471.96 207.07 484.94 207.07 484.94 209.44 486.55 209.44 486.55 210.62 488.15 210.62 488.15 212.94 489.77 212.94 489.77 215.3 491.41 215.3 491.41 216.49 494.63 216.49 494.63 218.85 496.26 218.85 496.26 222.36 497.89 222.36 497.89 227.08 502.75 227.08 502.75 228.26 504.37 228.26 504.37 229.45 507.6 229.45 507.6 230.62 509.23 230.62 509.23 231.81 518.93 231.81 518.93 232.99 522.2 232.99 522.2 234.17 531.9 234.17 531.9 235.36 548.09 235.36 548.09 236.54 570.79 236.54 570.79 237.72 586.98 237.72 586.98 238.9 603.17 238.9 617.75 238.9 619.39 238.9 620.98 238.9 620.98 240.08 622.61 240.08 624.24 240.08 624.24 241.3 627.47 241.3 627.47 242.48 629.1 242.48 629.1 243.7 630.73 243.7 630.73 247.33 632.36 247.33 632.36 250.94 633.95 250.94 633.95 252.16 635.59 252.16 635.59 253.42 637.22 253.42 637.22 254.64 638.8 254.64 642.05 254.64 642.05 255.94 643.69 255.94 645.29 255.94 645.29 257.2 646.91 257.2 650.17 257.2 651.77 257.2 651.77 258.52 655.02 258.52 656.66 258.52 658.25 258.52 661.51 258.52 661.51 259.86 666.36 259.86 666.36 261.2 690.66 261.2 697.15 261.2 700.37 261.2 702 261.2 703.63 261.2 703.63 263.9 705.25 263.9 706.86 263.9 708.47 263.9 710.11 263.9 711.7 263.9 711.7 265.31 713.33 265.31 713.33 266.76 714.95 266.76 718.18 266.76 718.18 268.21 719.81 268.21 721.44 268.21 721.44 269.7 723.07 269.7 723.07 272.82 724.66 272.82 727.93 272.82 729.55 272.82 729.55 274.43 731.15 274.43 732.77 274.43 734.41 274.43 736.01 274.43 737.63 274.43 739.26 274.43 742.47 274.43 744.11 274.43 745.74 274.43 752.23 274.43 752.23 276.14 755.45 276.14 757.08 276.14 758.69 276.14 760.3 276.14 761.92 276.14 765.19 276.14 771.67 276.14 773.26 276.14 774.88 276.14 776.52 276.14 778.15 276.14 779.74 276.14 781.38 276.14 783 276.14 784.6 276.14 794.35 276.14 799.18 276.14 804.04 276.14 807.3 276.14 810.53 276.14 810.53 278.2 812.15 278.2 812.15 280.25 813.79 280.25 825.11 280.25 825.11 282.39 831.61 282.39 833.19 282.39 834.83 282.39 836.45 282.39 838.09 282.39 839.68 282.39 842.94 282.39 844.57 282.39 846.17 282.39 846.17 284.68 847.8 284.68 849.42 284.68 851.06 284.68 851.06 287.23 852.65 287.23 854.28 287.23 855.91 287.23 857.49 287.23 857.49 289.98 859.13 289.98 860.76 289.98 862.38 289.98 862.38 292.99 863.99 292.99 865.61 292.99 867.24 292.99 868.86 292.99 870.46 292.99 872.09 292.99 875.35 292.99 878.58 292.99 880.21 292.99 881.8 292.99 883.43 292.99 883.43 296.69 885.06 296.69 888.29 296.69 893.16 296.69 894.76 296.69 898.02 296.69 899.65 296.69 902.87 296.69 914.22 296.69 915.83 296.69 919.05 296.69 920.69 296.69 925.54 296.69 927.18 296.69 927.18 301.3 928.8 301.3 932.03 301.3 945 301.3 953.1 301.3 961.17 301.3 967.66 301.3 967.66 306.44 977.39 306.44 980.63 306.44 982.26 306.44 983.88 306.44 985.47 306.44 985.47 312.39 987.11 312.39 988.74 312.39 990.37 312.39 993.58 312.39 995.22 312.39 1000.08 312.39 1003.3 312.39 1006.56 312.39 1008.2 312.39 1013.04 312.39 1014.66 312.39 1022.74 312.39 1025.99 312.39 1029.22 312.39 1032.49 312.39 1040.57 312.39 1040.57 322.49 1043.81 322.49 1045.45 322.49 1051.89 322.49 1053.52 322.49 1066.49 322.49 1081.08 322.49 1087.56 322.49 1092.42 322.49 1092.42 337.12 1095.64 337.12 1108.62 337.12 1113.45 337.12 1121.57 337.12 1123.2 337.12 1132.91 337.12 1137.76 337.12 1139.39 337.12 1142.65 337.12 1144.23 337.12 1147.5 337.12 1152.35 337.12 1153.98 337.12 1166.95 337.12 1173.4 337.12 1189.62 337.12 1209.07 337.12 1243.07 337.12"/><polyline class="cls-3" points="86.41 34.63 88.04 34.63 88.04 40.31 104.26 40.31 104.26 41.45 118.82 41.45 118.82 42.6 120.45 42.6 120.45 43.74 125.3 43.74 125.3 47.17 130.16 47.17 130.16 48.32 131.78 48.32 131.78 50.6 139.9 50.6 139.9 51.74 146.38 51.74 146.38 52.89 156.09 52.89 156.09 54.03 159.31 54.03 159.31 55.17 160.94 55.17 160.94 56.31 164.2 56.31 164.2 57.46 172.27 57.46 172.27 58.6 190.09 58.6 190.09 60.93 191.72 60.93 191.72 62.08 193.35 62.08 193.35 63.22 204.69 63.22 204.69 64.36 211.16 64.36 211.16 65.5 212.8 65.5 212.8 67.79 214.39 67.79 214.39 68.93 216.02 68.93 216.02 71.22 217.64 71.22 217.64 73.51 219.28 73.51 220.88 73.51 220.88 75.8 222.5 75.8 222.5 79.26 224.13 79.26 224.13 93.02 225.76 93.02 225.76 98.79 227.35 98.79 227.35 101.07 228.98 101.07 228.98 106.82 230.62 106.82 230.62 109.12 232.2 109.12 232.2 110.25 233.83 110.25 233.83 111.44 235.46 111.44 237.1 111.44 237.1 112.57 245.18 112.57 245.18 113.72 251.65 113.72 251.65 114.86 275.94 114.86 275.94 116.05 280.8 116.05 280.8 117.19 290.55 117.19 290.55 118.33 326.18 118.33 326.18 119.48 331.03 119.48 331.03 120.66 332.66 120.66 332.66 121.81 337.51 121.81 337.51 122.95 345.62 122.95 345.62 124.09 350.48 124.09 356.97 124.09 356.97 126.42 360.18 126.42 360.18 128.74 361.82 128.74 361.82 133.35 365.07 133.35 365.07 134.5 374.77 134.5 374.77 135.68 378 135.68 378 136.82 379.63 136.82 379.63 137.97 386.11 137.97 386.11 139.15 387.75 139.15 413.67 139.15 413.67 140.29 426.61 140.29 426.61 141.44 429.86 141.44 429.86 142.62 439.57 142.62 439.57 143.76 460.64 143.76 460.64 144.9 463.86 144.9 463.86 146.08 468.74 146.08 468.74 147.23 473.6 147.23 473.6 148.41 486.55 148.41 486.55 149.55 497.89 149.55 497.89 150.69 505.97 150.69 505.97 151.88 512.45 151.88 512.45 153.02 515.71 153.02 515.71 154.2 517.35 154.2 517.35 155.35 518.93 155.35 518.93 156.53 522.2 156.53 522.2 157.67 531.9 157.67 531.9 158.85 546.5 158.85 546.5 160.04 549.72 160.04 549.72 161.18 559.46 161.18 559.46 162.36 564.31 162.36 564.31 163.5 583.75 163.5 583.75 164.69 586.98 164.69 586.98 165.86 598.32 165.86 608.06 165.86 611.29 165.86 612.9 165.86 616.14 165.86 617.75 165.86 619.39 165.86 620.98 165.86 625.87 165.86 627.47 165.86 629.1 165.86 630.73 165.86 632.36 165.86 632.36 167.09 633.95 167.09 633.95 168.35 635.59 168.35 637.22 168.35 637.22 169.6 638.8 169.6 640.44 169.6 640.44 170.94 642.05 170.94 643.69 170.94 643.69 172.23 645.29 172.23 645.29 173.56 648.54 173.56 650.17 173.56 650.17 174.9 659.88 174.9 661.51 174.9 663.11 174.9 666.36 174.9 666.36 176.28 667.98 176.28 671.21 176.28 671.21 177.64 672.84 177.64 674.46 177.64 677.69 177.64 682.54 177.64 687.4 177.64 689.03 177.64 690.66 177.64 700.37 177.64 702 177.64 703.63 177.64 705.25 177.64 706.86 177.64 708.47 177.64 710.11 177.64 711.7 177.64 713.33 177.64 713.33 179.17 714.95 179.17 716.59 179.17 716.59 180.73 718.18 180.73 719.81 180.73 721.44 180.73 721.44 182.34 723.07 182.34 723.07 183.97 724.66 183.97 727.93 183.97 729.55 183.97 731.15 183.97 732.77 183.97 734.41 183.97 737.63 183.97 740.89 183.97 742.47 183.97 744.11 183.97 745.74 183.97 747.37 183.97 752.23 183.97 752.23 185.84 755.45 185.84 757.08 185.84 758.69 185.84 761.92 185.84 763.56 185.84 765.19 185.84 766.77 185.84 768.4 185.84 770.04 185.84 770.04 187.82 774.88 187.82 776.52 187.82 778.15 187.82 779.74 187.82 781.38 187.82 783 187.82 784.6 187.82 792.72 187.82 794.35 187.82 795.97 187.82 797.58 187.82 797.58 190 799.18 190 804.04 190 805.67 190 807.3 190 810.53 190 820.26 190 821.87 190 823.5 190 823.5 192.28 825.11 192.28 826.75 192.28 828.34 192.28 829.97 192.28 829.97 194.65 833.19 194.65 834.83 194.65 838.09 194.65 839.68 194.65 841.31 194.65 844.57 194.65 846.17 194.65 847.8 194.65 849.42 194.65 851.06 194.65 852.65 194.65 854.28 194.65 855.91 194.65 857.49 194.65 859.13 194.65 860.76 194.65 862.38 194.65 863.99 194.65 863.99 197.73 865.61 197.73 867.24 197.73 868.86 197.73 870.46 197.73 873.72 197.73 873.72 200.97 875.35 200.97 878.58 200.97 880.21 200.97 881.8 200.97 883.43 200.97 885.06 200.97 886.68 200.97 888.29 200.97 889.92 200.97 891.54 200.97 894.76 200.97 898.02 200.97 899.65 200.97 902.87 200.97 904.51 200.97 906.1 200.97 907.73 200.97 909.36 200.97 910.98 200.97 914.22 200.97 915.83 200.97 919.05 200.97 922.33 200.97 928.8 200.97 930.39 200.97 935.29 200.97 938.51 200.97 940.14 200.97 941.77 200.97 943.36 200.97 954.71 200.97 956.32 200.97 961.17 200.97 972.55 200.97 974.15 200.97 975.77 200.97 979 200.97 980.63 200.97 982.26 200.97 983.88 200.97 985.47 200.97 987.11 200.97 990.37 200.97 995.22 200.97 996.85 200.97 1000.08 200.97 1003.3 200.97 1011.42 200.97 1016.27 200.97 1016.27 209.97 1017.89 209.97 1024.38 209.97 1029.22 209.97 1030.86 209.97 1034.08 209.97 1040.57 209.97 1042.2 209.97 1045.45 209.97 1048.67 209.97 1077.82 209.97 1081.08 209.97 1084.31 209.97 1092.42 209.97 1095.64 209.97 1097.27 209.97 1098.91 209.97 1102.13 209.97 1110.23 209.97 1116.72 209.97 1118.35 209.97 1119.94 209.97 1123.2 209.97 1124.8 209.97 1126.42 209.97 1128.06 209.97 1136.16 209.97 1139.39 209.97 1145.87 209.97 1175.03 209.97 1178.28 209.97 1181.51 209.97 1252.78 209.97"/><path class="cls-4" d="M715.2,295.49l-6.64.73a4.83,4.83,0,0,0-1.27-3,3.7,3.7,0,0,0-2.66-1,4.52,4.52,0,0,0-3.68,1.95c-1,1.31-1.63,4-1.89,8.13a8,8,0,0,1,6.38-3,9.76,9.76,0,0,1,7.36,3.28,11.85,11.85,0,0,1,3.06,8.44,12.15,12.15,0,0,1-3.22,8.82,11.74,11.74,0,0,1-17.19-.89q-3.5-4.21-3.49-13.81,0-9.84,3.64-14.18a11.72,11.72,0,0,1,9.44-4.35,10,10,0,0,1,6.75,2.28A10.69,10.69,0,0,1,715.2,295.49Zm-15.55,15a7.73,7.73,0,0,0,1.54,5.16,4.51,4.51,0,0,0,3.51,1.82,4,4,0,0,0,3.18-1.49c.84-1,1.27-2.62,1.27-4.88s-.46-4-1.37-5.12a4.4,4.4,0,0,0-6.76-.07A6.69,6.69,0,0,0,699.65,310.46Z"/><path class="cls-4" d="M737.32,322.52h-6.86V296.66a23.56,23.56,0,0,1-8.86,5.2v-6.22a19.87,19.87,0,0,0,5.83-3.34,12.61,12.61,0,0,0,4.32-5.72h5.57Z"/><path class="cls-4" d="M747.62,295.56c0-3.2.71-5.58,2.11-7.13a7.39,7.39,0,0,1,5.73-2.31,7.53,7.53,0,0,1,5.85,2.3c1.4,1.54,2.11,3.92,2.11,7.14s-.71,5.59-2.11,7.13a7.36,7.36,0,0,1-5.73,2.32,7.53,7.53,0,0,1-5.85-2.31C748.33,301.17,747.62,298.79,747.62,295.56Zm5.35,0c0,2.32.27,3.89.81,4.68a1.91,1.91,0,0,0,1.68.88,2,2,0,0,0,1.71-.88c.52-.79.78-2.36.78-4.68s-.26-3.89-.78-4.67a2,2,0,0,0-1.71-.9,1.91,1.91,0,0,0-1.68.88C753.24,291.63,753,293.19,753,295.52Zm7.71,28.36h-5.07l19.06-37.76h4.94Zm11.09-9.39q0-4.82,2.11-7.13a8.37,8.37,0,0,1,11.57,0q2.12,2.31,2.11,7.13t-2.11,7.15a7.39,7.39,0,0,1-5.72,2.32,7.54,7.54,0,0,1-5.85-2.32Q771.77,319.31,771.77,314.49Zm5.34,0c0,2.33.27,3.88.81,4.66a2,2,0,0,0,3.37,0c.54-.8.81-2.36.81-4.69s-.27-3.89-.79-4.69a2,2,0,0,0-1.7-.88,1.92,1.92,0,0,0-1.69.88C777.38,310.57,777.11,312.13,777.11,314.46Z"/><polygon class="cls-5" points="680.83 195.27 678.83 195.27 678.83 193.27 680.83 193.26 680.83 195.27"/><path class="cls-5" d="M680.83,611.23h-2v-2l2,0Zm0-5h-2v-2l2,0Zm0-5h-2v-2l2,0Zm0-5h-2v-2l2,0Zm0-5h-2v-2l2,0Zm0-5h-2v-2l2,0Zm0-5h-2v-2l2,0Zm0-5h-2v-2l2,0Zm0-5h-2v-2l2,0Zm0-5h-2v-2l2,0Zm0-5h-2v-2l2,0Zm0-5h-2v-2l2,0Zm0-5h-2v-2l2,0Zm0-5h-2v-2l2,0Zm0-5h-2v-2l2,0Zm0-5h-2v-2l2,0Zm0-5h-2v-2l2,0Zm0-5h-2v-2l2,0Zm0-5h-2v-2l2,0Zm0-5h-2v-2l2,0Zm0-5h-2v-2l2,0Zm0-5h-2v-2l2,0Zm0-5h-2v-2l2,0Zm0-5h-2v-2l2,0Zm0-5h-2v-2l2,0Zm0-5h-2v-2l2,0Zm0-5h-2v-2l2,0Zm0-5h-2v-2l2,0Zm0-5h-2v-2l2,0Zm0-5h-2v-2l2,0Zm0-5h-2v-2l2,0Zm0-5h-2v-2l2,0Zm0-5h-2v-2l2,0Zm0-5h-2v-2l2,0Zm0-5h-2v-2l2,0Zm0-5h-2v-2l2,0Zm0-5h-2v-2l2,0Zm0-5h-2v-2l2,0Zm0-5h-2v-2l2,0Zm0-5h-2v-2l2,0Zm0-5h-2v-2l2,0Zm0-5h-2v-2l2,0Zm0-5h-2v-2l2,0Zm0-5h-2v-2l2,0Zm0-5h-2v-2l2,0Zm0-5h-2v-2l2,0Zm0-5h-2v-2l2,0Zm0-5h-2v-2l2,0Zm0-5h-2v-2l2,0Zm0-5h-2v-2l2,0Zm0-5h-2v-2l2,0Zm0-5h-2v-2l2,0Zm0-5h-2v-2l2,0Zm0-5h-2v-2l2,0Zm0-5h-2v-2l2,0Zm0-5h-2v-2l2,0Zm0-5h-2v-2l2,0Zm0-5h-2v-2l2,0Zm0-5h-2v-2l2,0Zm0-5h-2v-2l2,0Zm0-5h-2v-2l2,0Zm0-5h-2v-2l2,0Zm0-5h-2v-2l2,0Zm0-5h-2v-2l2,0Zm0-5h-2v-2l2,0Zm0-5h-2v-2l2,0Zm0-5h-2v-2l2,0Zm0-5h-2v-2l2,0Zm0-5h-2v-2l2,0Zm0-5h-2v-2l2,0Zm0-5h-2v-2l2,0Zm0-5h-2v-2l2,0Zm0-5h-2v-2l2,0Zm0-5h-2v-2l2,0Zm0-5h-2v-2l2,0Zm0-5h-2v-2l2,0Zm0-5h-2v-2l2,0Zm0-5h-2v-2l2,0Zm0-5h-2v-2l2,0Zm0-5h-2v-2l2,0Zm0-5h-2v-2l2,0Zm0-5h-2v-2l2,0Zm0-5h-2v-2l2,0Z"/><polygon class="cls-5" points="680.83 616.23 678.83 616.23 678.83 614.23 680.83 614.22 680.83 616.23"/><circle class="cls-6" cx="679.83" cy="263.27" r="16.77"/><path class="cls-7" d="M692,124.23v-6.37h23.46v5a36.82,36.82,0,0,0-5.91,8.21,47.85,47.85,0,0,0-4.58,11.36,42.43,42.43,0,0,0-1.55,10.76h-6.61A45.84,45.84,0,0,1,699.83,138a50.74,50.74,0,0,1,7.73-13.8Z"/><path class="cls-7" d="M719.86,144l6.84-.71a5.86,5.86,0,0,0,1.73,3.68,4.72,4.72,0,0,0,3.32,1.35,4.6,4.6,0,0,0,3.64-1.74,8,8,0,0,0,1.49-5.26,7.2,7.2,0,0,0-1.48-4.95,4.9,4.9,0,0,0-3.84-1.65,7,7,0,0,0-5.3,2.62l-5.57-.81,3.52-18.63h18.14v6.42H729.41l-1.07,6.08a10.38,10.38,0,0,1,4.68-1.14,10.26,10.26,0,0,1,7.74,3.32,11.92,11.92,0,0,1,3.18,8.61,12.92,12.92,0,0,1-2.57,7.89,11.36,11.36,0,0,1-9.69,4.74,12,12,0,0,1-8.08-2.67A11,11,0,0,1,719.86,144Z"/><path class="cls-7" d="M747.62,126.21c0-3.2.71-5.58,2.11-7.13a7.39,7.39,0,0,1,5.73-2.32,7.53,7.53,0,0,1,5.85,2.31c1.4,1.54,2.11,3.92,2.11,7.14s-.71,5.59-2.11,7.13a7.36,7.36,0,0,1-5.73,2.32,7.53,7.53,0,0,1-5.85-2.31C748.33,131.82,747.62,129.43,747.62,126.21Zm5.35,0c0,2.33.27,3.89.81,4.69a1.91,1.91,0,0,0,1.68.88,2,2,0,0,0,1.71-.88c.52-.8.78-2.36.78-4.69s-.26-3.88-.78-4.66a2,2,0,0,0-1.71-.9,1.91,1.91,0,0,0-1.68.88C753.24,122.27,753,123.84,753,126.16Zm7.71,28.37h-5.07l19.06-37.77h4.94Zm11.09-9.4q0-4.8,2.11-7.13a8.37,8.37,0,0,1,11.57,0q2.12,2.33,2.11,7.13c0,3.23-.7,5.61-2.11,7.16a7.39,7.39,0,0,1-5.72,2.32,7.54,7.54,0,0,1-5.85-2.32C772.47,150.74,771.77,148.36,771.77,145.13Zm5.34,0c0,2.33.27,3.88.81,4.66a2,2,0,0,0,1.69.91,1.91,1.91,0,0,0,1.68-.88c.54-.8.81-2.36.81-4.69s-.27-3.89-.79-4.69a2,2,0,0,0-1.7-.88,1.92,1.92,0,0,0-1.69.88C777.38,141.22,777.11,142.78,777.11,145.11Z"/><circle class="cls-8" cx="679.83" cy="177.64" r="16.77"/><path class="cls-4" d="M989.06,358.08l6.83-.7a5.88,5.88,0,0,0,1.73,3.67,4.74,4.74,0,0,0,3.32,1.36,4.61,4.61,0,0,0,3.64-1.75,7.9,7.9,0,0,0,1.49-5.26,7.25,7.25,0,0,0-1.47-4.95,5,5,0,0,0-3.85-1.64,7,7,0,0,0-5.3,2.61l-5.56-.81L993.4,332h18.14v6.42H998.6l-1.07,6.08a10.47,10.47,0,0,1,12.42,2.17,12,12,0,0,1,3.18,8.62,12.92,12.92,0,0,1-2.57,7.88,11.34,11.34,0,0,1-9.69,4.74,12,12,0,0,1-8.08-2.66A11,11,0,0,1,989.06,358.08Z"/><path class="cls-4" d="M1016.52,357.79l6.64-.8a6.28,6.28,0,0,0,1.71,3.88,4.7,4.7,0,0,0,3.37,1.34,4.64,4.64,0,0,0,3.58-1.61,6.3,6.3,0,0,0,1.45-4.35,5.82,5.82,0,0,0-1.39-4.1,4.44,4.44,0,0,0-3.4-1.51,12,12,0,0,0-3.14.51l.75-5.59a6,6,0,0,0,4.25-1.21,4.28,4.28,0,0,0,1.46-3.4,3.69,3.69,0,0,0-3.93-4,4.14,4.14,0,0,0-3,1.22,5.75,5.75,0,0,0-1.51,3.57L1017,340.7a14.36,14.36,0,0,1,2-5.19,9,9,0,0,1,3.72-3.05,12.43,12.43,0,0,1,5.33-1.11,10.69,10.69,0,0,1,8.11,3.22,8.45,8.45,0,0,1,2.51,6q0,4.71-5.15,7.52a8.34,8.34,0,0,1,4.92,2.95,8.58,8.58,0,0,1,1.84,5.55,10.76,10.76,0,0,1-3.44,8,12.85,12.85,0,0,1-16.63.52A11,11,0,0,1,1016.52,357.79Z"/><path class="cls-4" d="M1044.62,340.34c0-3.21.71-5.59,2.11-7.13a7.36,7.36,0,0,1,5.73-2.32,7.56,7.56,0,0,1,5.85,2.3c1.4,1.54,2.11,3.92,2.11,7.15s-.71,5.58-2.11,7.12a7.36,7.36,0,0,1-5.73,2.32,7.53,7.53,0,0,1-5.85-2.3C1045.33,345.94,1044.62,343.56,1044.62,340.34Zm5.35,0c0,2.32.27,3.89.81,4.68a1.91,1.91,0,0,0,1.68.88,2,2,0,0,0,1.71-.88c.52-.79.78-2.36.78-4.68s-.26-3.89-.78-4.67a2,2,0,0,0-1.71-.9,1.91,1.91,0,0,0-1.68.88C1050.24,336.4,1050,338,1050,340.29Zm7.71,28.37h-5.07l19.06-37.77h4.94Zm11.09-9.4q0-4.81,2.11-7.13a8.37,8.37,0,0,1,11.57,0q2.11,2.31,2.11,7.13t-2.11,7.15a7.35,7.35,0,0,1-5.72,2.32,7.51,7.51,0,0,1-5.85-2.32Q1068.76,364.09,1068.77,359.26Zm5.34,0c0,2.33.27,3.88.81,4.66a1.92,1.92,0,0,0,1.69.91,1.89,1.89,0,0,0,1.68-.88c.54-.8.81-2.36.81-4.69s-.27-3.89-.79-4.69a2,2,0,0,0-1.7-.87,1.91,1.91,0,0,0-1.69.87C1074.38,355.34,1074.11,356.9,1074.11,359.23Z"/><polygon class="cls-5" points="976.83 195.27 974.83 195.27 974.83 193.27 976.83 193.26 976.83 195.27"/><path class="cls-5" d="M976.83,611.23h-2v-2l2,0Zm0-5h-2v-2l2,0Zm0-5h-2v-2l2,0Zm0-5h-2v-2l2,0Zm0-5h-2v-2l2,0Zm0-5h-2v-2l2,0Zm0-5h-2v-2l2,0Zm0-5h-2v-2l2,0Zm0-5h-2v-2l2,0Zm0-5h-2v-2l2,0Zm0-5h-2v-2l2,0Zm0-5h-2v-2l2,0Zm0-5h-2v-2l2,0Zm0-5h-2v-2l2,0Zm0-5h-2v-2l2,0Zm0-5h-2v-2l2,0Zm0-5h-2v-2l2,0Zm0-5h-2v-2l2,0Zm0-5h-2v-2l2,0Zm0-5h-2v-2l2,0Zm0-5h-2v-2l2,0Zm0-5h-2v-2l2,0Zm0-5h-2v-2l2,0Zm0-5h-2v-2l2,0Zm0-5h-2v-2l2,0Zm0-5h-2v-2l2,0Zm0-5h-2v-2l2,0Zm0-5h-2v-2l2,0Zm0-5h-2v-2l2,0Zm0-5h-2v-2l2,0Zm0-5h-2v-2l2,0Zm0-5h-2v-2l2,0Zm0-5h-2v-2l2,0Zm0-5h-2v-2l2,0Zm0-5h-2v-2l2,0Zm0-5h-2v-2l2,0Zm0-5h-2v-2l2,0Zm0-5h-2v-2l2,0Zm0-5h-2v-2l2,0Zm0-5h-2v-2l2,0Zm0-5h-2v-2l2,0Zm0-5h-2v-2l2,0Zm0-5h-2v-2l2,0Zm0-5h-2v-2l2,0Zm0-5h-2v-2l2,0Zm0-5h-2v-2l2,0Zm0-5h-2v-2l2,0Zm0-5h-2v-2l2,0Zm0-5h-2v-2l2,0Zm0-5h-2v-2l2,0Zm0-5h-2v-2l2,0Zm0-5h-2v-2l2,0Zm0-5h-2v-2l2,0Zm0-5h-2v-2l2,0Zm0-5h-2v-2l2,0Zm0-5h-2v-2l2,0Zm0-5h-2v-2l2,0Zm0-5h-2v-2l2,0Zm0-5h-2v-2l2,0Zm0-5h-2v-2l2,0Zm0-5h-2v-2l2,0Zm0-5h-2v-2l2,0Zm0-5h-2v-2l2,0Zm0-5h-2v-2l2,0Zm0-5h-2v-2l2,0Zm0-5h-2v-2l2,0Zm0-5h-2v-2l2,0Zm0-5h-2v-2l2,0Zm0-5h-2v-2l2,0Zm0-5h-2v-2l2,0Zm0-5h-2v-2l2,0Zm0-5h-2v-2l2,0Zm0-5h-2v-2l2,0Zm0-5h-2v-2l2,0Zm0-5h-2v-2l2,0Zm0-5h-2v-2l2,0Zm0-5h-2v-2l2,0Zm0-5h-2v-2l2,0Zm0-5h-2v-2l2,0Zm0-5h-2v-2l2,0Zm0-5h-2v-2l2,0Zm0-5h-2v-2l2,0Zm0-5h-2v-2l2,0Z"/><polygon class="cls-5" points="976.83 616.23 974.83 616.23 974.83 614.23 976.83 614.22 976.83 616.23"/><circle class="cls-6" cx="976.83" cy="306.44" r="16.77"/><path class="cls-7" d="M989,148.71v-6.37h23.46v5a37,37,0,0,0-5.91,8.2,48.1,48.1,0,0,0-4.58,11.37,42.42,42.42,0,0,0-1.55,10.75h-6.61a45.83,45.83,0,0,1,3.06-15.13,50.6,50.6,0,0,1,7.73-13.8Z"/><path class="cls-7" d="M1034.32,177.64h-6.86V151.79a23.69,23.69,0,0,1-8.86,5.2v-6.23a19.59,19.59,0,0,0,5.83-3.33,12.61,12.61,0,0,0,4.32-5.72h5.57Z"/><path class="cls-7" d="M1044.62,150.69c0-3.21.71-5.58,2.11-7.13a7.39,7.39,0,0,1,5.73-2.32,7.53,7.53,0,0,1,5.85,2.31c1.4,1.54,2.11,3.92,2.11,7.14s-.71,5.58-2.11,7.13a7.36,7.36,0,0,1-5.73,2.32,7.53,7.53,0,0,1-5.85-2.31C1045.33,156.29,1044.62,153.91,1044.62,150.69Zm5.35-.05c0,2.33.27,3.89.81,4.69a1.91,1.91,0,0,0,1.68.88,2,2,0,0,0,1.71-.88c.52-.8.78-2.36.78-4.69s-.26-3.88-.78-4.66a2,2,0,0,0-1.71-.9,1.93,1.93,0,0,0-1.68.87C1050.24,146.75,1050,148.31,1050,150.64Zm7.71,28.37h-5.07l19.06-37.77h4.94Zm11.09-9.4q0-4.8,2.11-7.13a8.37,8.37,0,0,1,11.57,0q2.11,2.33,2.11,7.13t-2.11,7.16a7.38,7.38,0,0,1-5.72,2.31,7.53,7.53,0,0,1-5.85-2.31Q1068.76,174.45,1068.77,169.61Zm5.34,0c0,2.33.27,3.88.81,4.66a1.94,1.94,0,0,0,1.69.9,1.89,1.89,0,0,0,1.68-.88q.81-1.19.81-4.68c0-2.33-.27-3.89-.79-4.69a1.93,1.93,0,0,0-1.7-.88,1.89,1.89,0,0,0-1.69.88C1074.38,165.7,1074.11,167.26,1074.11,169.59Z"/><circle class="cls-8" cx="976.83" cy="200.97" r="16.77"/><rect class="cls-9" x="590.36" y="441.89" width="679.89" height="156.2"/><line class="cls-10" x1="1245.42" y1="494.11" x2="611.91" y2="494.11"/><path class="cls-5" d="M616.26,479.37V466.29h-4.67v-2.67H624.1v2.67h-4.66v13.08Z"/><path class="cls-5" d="M625.43,473.51a6.06,6.06,0,0,1,.75-2.91,5,5,0,0,1,2.1-2.15,6.13,6.13,0,0,1,3-.74,5.7,5.7,0,0,1,4.24,1.68,5.77,5.77,0,0,1,1.66,4.25,5.91,5.91,0,0,1-1.67,4.29,5.68,5.68,0,0,1-4.21,1.7,6.64,6.64,0,0,1-3-.71,4.83,4.83,0,0,1-2.16-2.08A6.83,6.83,0,0,1,625.43,473.51Zm3.1.16a3.82,3.82,0,0,0,.8,2.6,2.57,2.57,0,0,0,2,.9,2.53,2.53,0,0,0,2-.9,3.8,3.8,0,0,0,.8-2.62,3.73,3.73,0,0,0-.8-2.58,2.53,2.53,0,0,0-2-.9,2.57,2.57,0,0,0-2,.9A3.82,3.82,0,0,0,628.53,473.67Z"/><path class="cls-5" d="M644.8,468v2.41h-2.06V475a11.09,11.09,0,0,0,.06,1.62.67.67,0,0,0,.27.39.85.85,0,0,0,.51.15,4,4,0,0,0,1.21-.29l.26,2.34a6,6,0,0,1-2.39.45,3.85,3.85,0,0,1-1.47-.27,2.28,2.28,0,0,1-1-.71,2.91,2.91,0,0,1-.42-1.18,13.71,13.71,0,0,1-.1-2.13v-5h-1.39V468h1.39V465.7l3-1.77v4Z"/><path class="cls-5" d="M649.15,471.44l-2.74-.49A4.3,4.3,0,0,1,648,468.5a5.85,5.85,0,0,1,3.36-.79,7.2,7.2,0,0,1,3,.47,3,3,0,0,1,1.39,1.22,6.17,6.17,0,0,1,.41,2.7l0,3.52a11.83,11.83,0,0,0,.15,2.22,6.71,6.71,0,0,0,.54,1.53h-3c-.08-.2-.18-.5-.3-.89a2.49,2.49,0,0,0-.1-.35,5.47,5.47,0,0,1-1.66,1.12,4.71,4.71,0,0,1-1.88.38,3.86,3.86,0,0,1-2.77-1,3.15,3.15,0,0,1-1-2.41,3.34,3.34,0,0,1,.46-1.73,3.06,3.06,0,0,1,1.3-1.16,9.9,9.9,0,0,1,2.4-.7,16.72,16.72,0,0,0,2.93-.74v-.3a1.54,1.54,0,0,0-.43-1.24,2.53,2.53,0,0,0-1.62-.37,2.17,2.17,0,0,0-1.26.31A2.22,2.22,0,0,0,649.15,471.44Zm4,2.45a16.83,16.83,0,0,1-1.83.46,5.66,5.66,0,0,0-1.65.53,1.27,1.27,0,0,0-.59,1.06,1.5,1.5,0,0,0,.47,1.1,1.66,1.66,0,0,0,1.21.46,2.64,2.64,0,0,0,1.55-.53,1.89,1.89,0,0,0,.72-1,5.93,5.93,0,0,0,.12-1.48Z"/><path class="cls-5" d="M659.13,479.37V463.62h3v15.75Z"/><path class="cls-5" d="M671.41,479.37V463.62h3.09L681,474.14V463.62h2.95v15.75h-3.19l-6.35-10.27v10.27Z"/><path class="cls-5" d="M686.55,473.51a6.05,6.05,0,0,1,.74-2.91,5,5,0,0,1,2.1-2.15,6.13,6.13,0,0,1,3-.74,5.72,5.72,0,0,1,4.25,1.68,5.81,5.81,0,0,1,1.65,4.25,5.91,5.91,0,0,1-1.67,4.29,5.68,5.68,0,0,1-4.21,1.7,6.67,6.67,0,0,1-3-.71,4.83,4.83,0,0,1-2.16-2.08A6.83,6.83,0,0,1,686.55,473.51Zm3.09.16a3.82,3.82,0,0,0,.8,2.6,2.65,2.65,0,0,0,4,0,3.85,3.85,0,0,0,.79-2.62,3.77,3.77,0,0,0-.79-2.58,2.65,2.65,0,0,0-4,0A3.82,3.82,0,0,0,689.64,473.67Z"/><path class="cls-5" d="M700.68,479.37v-3h3v3Z"/><path class="cls-7" d="M640.79,516.65l3-.31a2.55,2.55,0,0,0,.76,1.61,2.06,2.06,0,0,0,1.46.6,2,2,0,0,0,1.6-.77,3.46,3.46,0,0,0,.66-2.31,3.19,3.19,0,0,0-.65-2.18,2.19,2.19,0,0,0-1.69-.73,3.11,3.11,0,0,0-2.34,1.15l-2.45-.35,1.55-8.2h8V508H645l-.47,2.67a4.63,4.63,0,0,1,2.06-.5,4.57,4.57,0,0,1,3.41,1.46,5.26,5.26,0,0,1,1.39,3.79,5.64,5.64,0,0,1-1.13,3.47A5,5,0,0,1,646,521a5.31,5.31,0,0,1-3.56-1.18A4.85,4.85,0,0,1,640.79,516.65Z"/><path class="cls-7" d="M660.71,520.7h-3V509.32a10.62,10.62,0,0,1-3.9,2.29v-2.74a8.85,8.85,0,0,0,2.57-1.47,5.64,5.64,0,0,0,1.9-2.52h2.45Z"/><path class="cls-7" d="M671.14,520.7v-3.17h-6.45v-2.64l6.83-10h2.54v10h2v2.66h-2v3.17Zm0-5.83v-5.38l-3.62,5.38Z"/><path class="cls-4" d="M640.79,543.21l3-.31a2.58,2.58,0,0,0,.76,1.62,2,2,0,0,0,1.46.59,2,2,0,0,0,1.6-.76,3.51,3.51,0,0,0,.66-2.32,3.16,3.16,0,0,0-.65-2.17,2.16,2.16,0,0,0-1.69-.73,3.08,3.08,0,0,0-2.34,1.15l-2.45-.35,1.55-8.2h8v2.83H645l-.47,2.67a4.59,4.59,0,0,1,5.47,1,5.24,5.24,0,0,1,1.39,3.79,5.66,5.66,0,0,1-1.13,3.47,5,5,0,0,1-4.26,2.08,5.3,5.3,0,0,1-3.56-1.17A4.85,4.85,0,0,1,640.79,543.21Z"/><path class="cls-4" d="M658.08,531.45a4.3,4.3,0,0,1,3.58,1.63q1.55,1.93,1.54,6.42t-1.55,6.42a4.3,4.3,0,0,1-3.57,1.61,4.52,4.52,0,0,1-3.7-1.76Q653,544,653,539.46t1.55-6.4A4.3,4.3,0,0,1,658.08,531.45Zm0,2.5a1.5,1.5,0,0,0-1,.35,2.37,2.37,0,0,0-.67,1.25,17.21,17.21,0,0,0-.31,4,16.84,16.84,0,0,0,.28,3.8,2.65,2.65,0,0,0,.7,1.38,1.53,1.53,0,0,0,1.95,0,2.33,2.33,0,0,0,.67-1.25,17.06,17.06,0,0,0,.31-3.93,16.89,16.89,0,0,0-.28-3.81,2.82,2.82,0,0,0-.7-1.39A1.53,1.53,0,0,0,658.08,534Z"/><path class="cls-4" d="M665.26,543.21l3-.31a2.58,2.58,0,0,0,.76,1.62,2,2,0,0,0,1.46.59,2,2,0,0,0,1.6-.76,3.51,3.51,0,0,0,.66-2.32,3.16,3.16,0,0,0-.65-2.17,2.16,2.16,0,0,0-1.69-.73,3.08,3.08,0,0,0-2.34,1.15l-2.44-.35,1.54-8.2h8v2.83h-5.69l-.47,2.67a4.59,4.59,0,0,1,5.47,1,5.24,5.24,0,0,1,1.39,3.79,5.66,5.66,0,0,1-1.13,3.47,5,5,0,0,1-4.26,2.08,5.32,5.32,0,0,1-3.56-1.17A4.85,4.85,0,0,1,665.26,543.21Z"/><path class="cls-5" d="M803.74,479.37V463.62h3.1l6.44,10.52V463.62h3v15.75H813L806.7,469.1v10.27Z"/><path class="cls-5" d="M818.88,473.51a6.05,6.05,0,0,1,.74-2.91,5,5,0,0,1,2.1-2.15,6.15,6.15,0,0,1,3-.74,5.72,5.72,0,0,1,4.25,1.68,5.81,5.81,0,0,1,1.65,4.25,5.91,5.91,0,0,1-1.67,4.29,5.64,5.64,0,0,1-4.2,1.7,6.68,6.68,0,0,1-3-.71,4.83,4.83,0,0,1-2.16-2.08A6.83,6.83,0,0,1,818.88,473.51Zm3.09.16a3.77,3.77,0,0,0,.81,2.6,2.64,2.64,0,0,0,4,0,3.85,3.85,0,0,0,.8-2.62,3.78,3.78,0,0,0-.8-2.58,2.64,2.64,0,0,0-4,0A3.77,3.77,0,0,0,822,473.67Z"/><path class="cls-5" d="M833,479.37v-3h3v3Z"/><path class="cls-5" d="M847.37,479.37,843.76,468h2.93l2.14,7.48,2-7.48h2.91l1.91,7.48,2.18-7.48h3l-3.66,11.41h-2.9l-2-7.34-1.93,7.34Z"/><path class="cls-5" d="M862.35,466.42v-2.8h3v2.8Zm0,12.95V468h3v11.41Z"/><path class="cls-5" d="M873.69,468v2.41h-2.06V475a11.09,11.09,0,0,0,.06,1.62.67.67,0,0,0,.27.39.85.85,0,0,0,.51.15,4,4,0,0,0,1.21-.29l.26,2.34a6,6,0,0,1-2.38.45,3.78,3.78,0,0,1-1.47-.27,2.25,2.25,0,0,1-1-.71,2.91,2.91,0,0,1-.42-1.18,15.17,15.17,0,0,1-.1-2.13v-5h-1.38V468h1.38V465.7l3-1.77v4Z"/><path class="cls-5" d="M878.8,463.62v5.79a4.55,4.55,0,0,1,5.37-1.32,3.07,3.07,0,0,1,1.26,1,3.6,3.6,0,0,1,.58,1.33,12.18,12.18,0,0,1,.16,2.27v6.69h-3v-6a9.18,9.18,0,0,0-.17-2.28,1.54,1.54,0,0,0-.61-.77,1.94,1.94,0,0,0-1.09-.28,2.51,2.51,0,0,0-1.34.36,2.06,2.06,0,0,0-.87,1.1,6.69,6.69,0,0,0-.27,2.18v5.71h-3V463.62Z"/><path class="cls-5" d="M895.36,479.37V463.62H907v2.67h-8.5v3.49h7.91v2.65h-7.91v4.29h8.8v2.65Z"/><path class="cls-5" d="M913.15,479.37,908.55,468h3.17l2.15,5.83.62,1.94c.17-.49.27-.82.32-1,.1-.32.2-.64.32-1L917.3,468h3.1l-4.53,11.41Z"/><path class="cls-5" d="M928.86,475.74l3,.51a4.82,4.82,0,0,1-1.83,2.51,5.35,5.35,0,0,1-3.13.87,5.09,5.09,0,0,1-4.4-1.95,6.44,6.44,0,0,1-1.13-3.93,6.29,6.29,0,0,1,1.48-4.44,4.89,4.89,0,0,1,3.75-1.6,5.07,5.07,0,0,1,4,1.68c1,1.12,1.45,2.83,1.41,5.15h-7.57a3.09,3.09,0,0,0,.73,2.09,2.32,2.32,0,0,0,1.74.74,1.91,1.91,0,0,0,1.2-.38A2.47,2.47,0,0,0,928.86,475.74Zm.17-3.05a2.89,2.89,0,0,0-.68-2,2.05,2.05,0,0,0-1.57-.68,2.11,2.11,0,0,0-1.63.71,2.79,2.79,0,0,0-.63,2Z"/><path class="cls-5" d="M944.86,479.37h-3v-5.82a9,9,0,0,0-.19-2.39,1.68,1.68,0,0,0-.63-.84,1.8,1.8,0,0,0-1-.3,2.43,2.43,0,0,0-1.4.42,2.21,2.21,0,0,0-.86,1.14,10.08,10.08,0,0,0-.23,2.62v5.17h-3V468h2.81v1.68a4.56,4.56,0,0,1,3.76-1.93,4.69,4.69,0,0,1,1.82.35,3.28,3.28,0,0,1,1.26.92,3.42,3.42,0,0,1,.58,1.27,8.83,8.83,0,0,1,.17,2Z"/><path class="cls-5" d="M953.15,468v2.41h-2.06V475a11.09,11.09,0,0,0,.06,1.62.67.67,0,0,0,.27.39.85.85,0,0,0,.51.15,4,4,0,0,0,1.21-.29l.26,2.34a6,6,0,0,1-2.38.45,3.78,3.78,0,0,1-1.47-.27,2.25,2.25,0,0,1-1-.71,2.91,2.91,0,0,1-.42-1.18,15.17,15.17,0,0,1-.1-2.13v-5h-1.38V468h1.38V465.7l3-1.77v4Z"/><path class="cls-7" d="M868.19,520.7h-3V509.32a10.62,10.62,0,0,1-3.9,2.29v-2.74a8.69,8.69,0,0,0,2.56-1.47,5.6,5.6,0,0,0,1.91-2.52h2.44Z"/><path class="cls-7" d="M872.6,516.52l2.92-.36a2.72,2.72,0,0,0,.75,1.71,2.05,2.05,0,0,0,1.49.59,2,2,0,0,0,1.57-.71,2.72,2.72,0,0,0,.64-1.91,2.58,2.58,0,0,0-.61-1.8,2,2,0,0,0-1.5-.67,5.27,5.27,0,0,0-1.38.23l.33-2.46a2.63,2.63,0,0,0,1.87-.54,1.87,1.87,0,0,0,.64-1.49,1.69,1.69,0,0,0-.47-1.27,1.67,1.67,0,0,0-1.26-.47,1.82,1.82,0,0,0-1.32.53,2.56,2.56,0,0,0-.66,1.57l-2.79-.47a6.28,6.28,0,0,1,.88-2.28,4,4,0,0,1,1.63-1.35,5.58,5.58,0,0,1,2.35-.49,4.72,4.72,0,0,1,3.57,1.42,3.74,3.74,0,0,1,1.1,2.62,3.69,3.69,0,0,1-2.26,3.31,3.71,3.71,0,0,1,2.16,1.3,3.78,3.78,0,0,1,.81,2.44,4.71,4.71,0,0,1-1.51,3.53,5.65,5.65,0,0,1-7.32.24A4.84,4.84,0,0,1,872.6,516.52Z"/><path class="cls-7" d="M885,516.65l3-.31a2.56,2.56,0,0,0,.77,1.61,2.06,2.06,0,0,0,3.06-.17,3.52,3.52,0,0,0,.65-2.31,3.14,3.14,0,0,0-.65-2.18,2.18,2.18,0,0,0-1.69-.73,3.09,3.09,0,0,0-2.33,1.15l-2.45-.35,1.55-8.2h8V508h-5.69l-.48,2.67a4.67,4.67,0,0,1,2.07-.5,4.55,4.55,0,0,1,3.4,1.46,5.26,5.26,0,0,1,1.4,3.79,5.7,5.7,0,0,1-1.13,3.47,5,5,0,0,1-4.27,2.09,5.3,5.3,0,0,1-3.55-1.18A4.76,4.76,0,0,1,885,516.65Z"/><path class="cls-4" d="M870.67,544.46v2.8H860.08a7.27,7.27,0,0,1,1-3,19.9,19.9,0,0,1,3.39-3.78,20.34,20.34,0,0,0,2.5-2.57,3.32,3.32,0,0,0,.63-1.85,2.07,2.07,0,0,0-.55-1.55,2,2,0,0,0-1.49-.55,2,2,0,0,0-1.51.57,2.9,2.9,0,0,0-.64,1.89l-3-.3a4.9,4.9,0,0,1,1.69-3.57,5.6,5.6,0,0,1,3.54-1.09,5.1,5.1,0,0,1,3.66,1.26,4.12,4.12,0,0,1,1.34,3.12,5.35,5.35,0,0,1-.39,2,8.06,8.06,0,0,1-1.2,2,19.38,19.38,0,0,1-2,2c-1,.88-1.56,1.46-1.81,1.74a5.3,5.3,0,0,0-.62.84Z"/><path class="cls-4" d="M880.43,547.26h-3V535.89a10.46,10.46,0,0,1-3.9,2.29v-2.74a8.73,8.73,0,0,0,2.57-1.47,5.57,5.57,0,0,0,1.9-2.52h2.45Z"/><path class="cls-4" d="M895.17,535.37l-2.92.32a2.13,2.13,0,0,0-.56-1.33,1.65,1.65,0,0,0-1.17-.43,2,2,0,0,0-1.62.86,7.21,7.21,0,0,0-.83,3.58,3.51,3.51,0,0,1,2.8-1.33,4.29,4.29,0,0,1,3.24,1.44,5.2,5.2,0,0,1,1.35,3.71,5.31,5.31,0,0,1-1.42,3.88,5.17,5.17,0,0,1-7.56-.39c-1-1.24-1.54-3.26-1.54-6.08s.54-5,1.6-6.24a5.19,5.19,0,0,1,4.16-1.91,4.44,4.44,0,0,1,3,1A4.78,4.78,0,0,1,895.17,535.37ZM888.33,542a3.43,3.43,0,0,0,.67,2.27,2,2,0,0,0,1.55.8,1.77,1.77,0,0,0,1.4-.66,3.3,3.3,0,0,0,.55-2.15,3.48,3.48,0,0,0-.6-2.25,1.93,1.93,0,0,0-3,0A3,3,0,0,0,888.33,542Z"/><path class="cls-5" d="M759.18,581.65h-3.24l3.3-15.75h6.4a7.29,7.29,0,0,1,2.7.41,3.23,3.23,0,0,1,1.57,1.33,4.08,4.08,0,0,1,.58,2.22,6,6,0,0,1-.46,2.32,5.45,5.45,0,0,1-1.13,1.8,4.83,4.83,0,0,1-1.45,1,7.79,7.79,0,0,1-2.08.53,24.82,24.82,0,0,1-2.86.11h-2.07ZM761,573h1a11.84,11.84,0,0,0,3.43-.32,2.84,2.84,0,0,0,1.36-1,2.71,2.71,0,0,0,.49-1.55,1.6,1.6,0,0,0-.25-.94,1.47,1.47,0,0,0-.71-.53,7.62,7.62,0,0,0-2-.17h-2.32Z"/><path class="cls-5" d="M781.54,579.86l-10.8-4.7v-2.6l10.8-4.67V571L774,573.83l7.53,3Z"/><path class="cls-5" d="M788.61,565.84a4.29,4.29,0,0,1,3.57,1.63q1.55,1.93,1.54,6.42t-1.55,6.42a4.3,4.3,0,0,1-3.56,1.61,4.5,4.5,0,0,1-3.71-1.77q-1.41-1.75-1.41-6.3t1.55-6.4A4.3,4.3,0,0,1,788.61,565.84Zm0,2.5a1.51,1.51,0,0,0-1,.35,2.37,2.37,0,0,0-.67,1.25,17.21,17.21,0,0,0-.31,3.95,16.84,16.84,0,0,0,.28,3.8,2.58,2.58,0,0,0,.7,1.38,1.53,1.53,0,0,0,1,.35,1.5,1.5,0,0,0,1-.35,2.33,2.33,0,0,0,.67-1.25,17.06,17.06,0,0,0,.31-3.93,16.89,16.89,0,0,0-.28-3.81,2.82,2.82,0,0,0-.7-1.39A1.52,1.52,0,0,0,788.61,568.34Z"/><path class="cls-5" d="M796.38,581.65v-3h3v3Z"/><path class="cls-5" d="M807,565.84a4.3,4.3,0,0,1,3.58,1.63c1,1.29,1.54,3.43,1.54,6.42s-.52,5.12-1.55,6.42a4.3,4.3,0,0,1-3.57,1.61,4.5,4.5,0,0,1-3.7-1.77q-1.41-1.75-1.41-6.3t1.55-6.4A4.3,4.3,0,0,1,807,565.84Zm0,2.5a1.55,1.55,0,0,0-1,.35,2.44,2.44,0,0,0-.66,1.25,17.21,17.21,0,0,0-.31,3.95,16.84,16.84,0,0,0,.28,3.8,2.58,2.58,0,0,0,.7,1.38,1.5,1.5,0,0,0,1,.35,1.53,1.53,0,0,0,1-.35,2.33,2.33,0,0,0,.67-1.25,25.55,25.55,0,0,0,0-7.74,2.82,2.82,0,0,0-.7-1.39A1.53,1.53,0,0,0,807,568.34Z"/><path class="cls-5" d="M819.19,565.84a4.31,4.31,0,0,1,3.58,1.63q1.53,1.93,1.53,6.42t-1.55,6.42a4.3,4.3,0,0,1-3.56,1.61,4.52,4.52,0,0,1-3.71-1.77q-1.41-1.75-1.41-6.3t1.55-6.4A4.3,4.3,0,0,1,819.19,565.84Zm0,2.5a1.53,1.53,0,0,0-1,.35,2.37,2.37,0,0,0-.67,1.25,17.81,17.81,0,0,0-.31,3.95,17.47,17.47,0,0,0,.28,3.8,2.65,2.65,0,0,0,.7,1.38,1.53,1.53,0,0,0,1,.35,1.55,1.55,0,0,0,1-.35,2.39,2.39,0,0,0,.66-1.25,17.06,17.06,0,0,0,.31-3.93,16.89,16.89,0,0,0-.28-3.81,2.74,2.74,0,0,0-.7-1.39A1.5,1.5,0,0,0,819.19,568.34Z"/><path class="cls-5" d="M834,581.65h-3V570.28a10.46,10.46,0,0,1-3.9,2.28v-2.73a8.82,8.82,0,0,0,2.56-1.47,5.6,5.6,0,0,0,1.91-2.52H834Z"/><path class="cls-5" d="M845.18,581.65V565.9h3v5.68a4.28,4.28,0,0,1,3.31-1.59A4.44,4.44,0,0,1,855,571.5a6.23,6.23,0,0,1,1.36,4.33,6.57,6.57,0,0,1-1.39,4.5,4.34,4.34,0,0,1-3.38,1.58,4.09,4.09,0,0,1-1.92-.49A4.5,4.5,0,0,1,848,580v1.67Zm3-5.95a4.86,4.86,0,0,0,.56,2.62,2.4,2.4,0,0,0,2.08,1.21,2.15,2.15,0,0,0,1.71-.86,4.19,4.19,0,0,0,.7-2.69,4.49,4.49,0,0,0-.71-2.82,2.23,2.23,0,0,0-1.82-.86,2.27,2.27,0,0,0-1.8.84A3.87,3.87,0,0,0,848.18,575.7Z"/><path class="cls-5" d="M857.32,570.24h3.21l2.73,8.1,2.67-8.1h3.12l-4,11-.73,2a7.77,7.77,0,0,1-.75,1.53,3.36,3.36,0,0,1-.83.85,3.48,3.48,0,0,1-1.15.51,6,6,0,0,1-1.54.18,8.14,8.14,0,0,1-1.71-.18l-.27-2.36a7,7,0,0,0,1.28.14,1.91,1.91,0,0,0,1.56-.62,4.24,4.24,0,0,0,.77-1.58Z"/><path class="cls-5" d="M876,578.4l3-.46a2.19,2.19,0,0,0,.79,1.33,2.59,2.59,0,0,0,1.65.46,3,3,0,0,0,1.77-.43,1,1,0,0,0,.39-.81.79.79,0,0,0-.21-.56,2.3,2.3,0,0,0-1-.4,16.45,16.45,0,0,1-4.63-1.47,3,3,0,0,1-1.36-2.57,3.18,3.18,0,0,1,1.17-2.49,5.47,5.47,0,0,1,3.64-1,6.33,6.33,0,0,1,3.48.76A3.85,3.85,0,0,1,886.3,573l-2.84.52a1.77,1.77,0,0,0-.69-1,2.52,2.52,0,0,0-1.46-.35,3.32,3.32,0,0,0-1.71.33.71.71,0,0,0-.34.61.66.66,0,0,0,.3.55,11.48,11.48,0,0,0,2.82.85,8.34,8.34,0,0,1,3.37,1.34,2.8,2.8,0,0,1,.94,2.25,3.42,3.42,0,0,1-1.31,2.69,5.81,5.81,0,0,1-3.88,1.13,6.38,6.38,0,0,1-3.69-.94A4.4,4.4,0,0,1,876,578.4Z"/><path class="cls-5" d="M894.57,570.24v2.41H892.5v4.6a11.38,11.38,0,0,0,.06,1.63.68.68,0,0,0,.27.38.85.85,0,0,0,.51.15,3.92,3.92,0,0,0,1.21-.29l.26,2.34a6,6,0,0,1-2.38.45,3.78,3.78,0,0,1-1.47-.27,2.16,2.16,0,0,1-1-.71,2.72,2.72,0,0,1-.43-1.18,15.17,15.17,0,0,1-.1-2.13v-5h-1.38v-2.41h1.38V568l3-1.76v4Z"/><path class="cls-5" d="M899.55,581.65h-3V570.24h2.81v1.63a4.85,4.85,0,0,1,1.29-1.52,2.41,2.41,0,0,1,1.31-.36,3.83,3.83,0,0,1,2,.57l-.93,2.63a2.66,2.66,0,0,0-1.42-.5,1.68,1.68,0,0,0-1.07.35,2.41,2.41,0,0,0-.7,1.27,17.77,17.77,0,0,0-.25,3.82Z"/><path class="cls-5" d="M907.48,573.72l-2.74-.49a4.3,4.3,0,0,1,1.59-2.45,5.82,5.82,0,0,1,3.35-.79,7.2,7.2,0,0,1,3,.48,3,3,0,0,1,1.39,1.21,6.2,6.2,0,0,1,.4,2.7l0,3.52a12.92,12.92,0,0,0,.14,2.22,6.32,6.32,0,0,0,.55,1.53h-3c-.08-.2-.18-.5-.29-.89a2.1,2.1,0,0,0-.11-.35,5.31,5.31,0,0,1-1.65,1.12,4.61,4.61,0,0,1-1.88.38,3.88,3.88,0,0,1-2.78-1,3.18,3.18,0,0,1-1-2.41,3.24,3.24,0,0,1,.46-1.73,3.09,3.09,0,0,1,1.29-1.16,10.7,10.7,0,0,1,2.4-.7,16.9,16.9,0,0,0,2.94-.74v-.3a1.57,1.57,0,0,0-.43-1.24,2.58,2.58,0,0,0-1.63-.37,1.8,1.8,0,0,0-2,1.42Zm4,2.45a18.52,18.52,0,0,1-1.84.47,5.24,5.24,0,0,0-1.64.52,1.27,1.27,0,0,0-.6,1.07,1.47,1.47,0,0,0,.48,1.09,1.62,1.62,0,0,0,1.2.46,2.64,2.64,0,0,0,1.56-.53,2,2,0,0,0,.72-1,5.89,5.89,0,0,0,.12-1.47Z"/><path class="cls-5" d="M922.69,570.24v2.41h-2.06v4.6a11.38,11.38,0,0,0,.06,1.63.62.62,0,0,0,.26.38.85.85,0,0,0,.51.15,4,4,0,0,0,1.22-.29l.26,2.34a6.06,6.06,0,0,1-2.39.45,3.85,3.85,0,0,1-1.47-.27,2.16,2.16,0,0,1-1-.71,2.72,2.72,0,0,1-.43-1.18,15.72,15.72,0,0,1-.09-2.13v-5h-1.39v-2.41h1.39V568l3-1.76v4Z"/><path class="cls-5" d="M924.78,568.7v-2.8h3v2.8Zm0,12.95V570.24h3v11.41Z"/><path class="cls-5" d="M929.57,570.24h1.68v-.85a5.58,5.58,0,0,1,.31-2.15,2.41,2.41,0,0,1,1.12-1.16,4.33,4.33,0,0,1,2.08-.44,8.72,8.72,0,0,1,2.53.38l-.41,2.11a5.68,5.68,0,0,0-1.39-.17,1.26,1.26,0,0,0-.94.3,1.8,1.8,0,0,0-.28,1.18v.8h2.26v2.38h-2.26v9h-3v-9h-1.68Z"/><path class="cls-5" d="M938.22,568.7v-2.8h3v2.8Zm0,12.95V570.24h3v11.41Z"/><path class="cls-5" d="M950.94,578l3,.51a5,5,0,0,1-1.83,2.52,5.44,5.44,0,0,1-3.13.86,5.12,5.12,0,0,1-4.41-1.94,6.56,6.56,0,0,1-1.13-3.94,6.29,6.29,0,0,1,1.49-4.44,4.86,4.86,0,0,1,3.75-1.6,5.06,5.06,0,0,1,4,1.68q1.47,1.68,1.41,5.15h-7.56a3,3,0,0,0,.73,2.09,2.25,2.25,0,0,0,1.74.74,1.83,1.83,0,0,0,1.19-.38A2.37,2.37,0,0,0,950.94,578Zm.17-3a2.94,2.94,0,0,0-.67-2,2.07,2.07,0,0,0-1.57-.68,2.11,2.11,0,0,0-1.64.72,2.76,2.76,0,0,0-.63,2Z"/><path class="cls-5" d="M967,581.65h-2.8V580a4.61,4.61,0,0,1-1.65,1.45,4.23,4.23,0,0,1-1.92.48,4.37,4.37,0,0,1-3.37-1.58,6.47,6.47,0,0,1-1.4-4.42,6.35,6.35,0,0,1,1.37-4.41A4.43,4.43,0,0,1,960.7,570a4.26,4.26,0,0,1,3.31,1.59V565.9h3Zm-8-5.95a5.17,5.17,0,0,0,.5,2.64,2.29,2.29,0,0,0,2,1.19,2.21,2.21,0,0,0,1.77-.89A4.07,4.07,0,0,0,964,576a4.5,4.5,0,0,0-.71-2.83,2.34,2.34,0,0,0-3.62,0A3.88,3.88,0,0,0,959,575.7Z"/><path class="cls-5" d="M976.12,581.65V565.9h3v15.75Z"/><path class="cls-5" d="M981.53,575.79a6.06,6.06,0,0,1,.75-2.91,5,5,0,0,1,2.1-2.15,6.13,6.13,0,0,1,3-.74,5.68,5.68,0,0,1,4.24,1.68,5.77,5.77,0,0,1,1.66,4.25,5.91,5.91,0,0,1-1.67,4.29,5.68,5.68,0,0,1-4.21,1.7,6.67,6.67,0,0,1-3-.71,4.78,4.78,0,0,1-2.16-2.08A6.83,6.83,0,0,1,981.53,575.79Zm3.1.16a3.82,3.82,0,0,0,.8,2.6,2.57,2.57,0,0,0,2,.9,2.53,2.53,0,0,0,2-.9,3.8,3.8,0,0,0,.8-2.62,3.73,3.73,0,0,0-.8-2.58,2.53,2.53,0,0,0-2-.9,2.57,2.57,0,0,0-2,.9A3.82,3.82,0,0,0,984.63,576Z"/><path class="cls-5" d="M995.39,582.4l3.45.42a1.19,1.19,0,0,0,.4.83,2.2,2.2,0,0,0,1.35.32,3.56,3.56,0,0,0,1.77-.35,1.41,1.41,0,0,0,.6-.76,4.37,4.37,0,0,0,.15-1.39v-1.66a4.1,4.1,0,0,1-3.42,1.84,4.21,4.21,0,0,1-3.64-1.94,6.65,6.65,0,0,1-1.06-3.83,6.29,6.29,0,0,1,1.38-4.38,4.46,4.46,0,0,1,3.44-1.51,4.18,4.18,0,0,1,3.49,1.86v-1.61h2.82v10.24a10.3,10.3,0,0,1-.33,3,3.71,3.71,0,0,1-.93,1.57,4.15,4.15,0,0,1-1.61.89,8.31,8.31,0,0,1-2.54.32,6.57,6.57,0,0,1-4.11-1,3.09,3.09,0,0,1-1.22-2.52C995.38,582.67,995.38,582.55,995.39,582.4Zm2.7-6.69a4.11,4.11,0,0,0,.7,2.66,2.19,2.19,0,0,0,1.74.84,2.4,2.4,0,0,0,1.87-.86,3.82,3.82,0,0,0,.76-2.56,4,4,0,0,0-.73-2.63,2.3,2.3,0,0,0-1.85-.86,2.24,2.24,0,0,0-1.79.84A3.94,3.94,0,0,0,998.09,575.71Z"/><path class="cls-5" d="M1008.77,577.45v-3h5.92v3Z"/><path class="cls-5" d="M1019.33,581.65h-3V570.24h2.8v1.63a4.86,4.86,0,0,1,1.3-1.52,2.37,2.37,0,0,1,1.3-.36,3.84,3.84,0,0,1,2,.57l-.94,2.63a2.66,2.66,0,0,0-1.41-.5,1.69,1.69,0,0,0-1.08.35,2.48,2.48,0,0,0-.69,1.27,17.77,17.77,0,0,0-.25,3.82Z"/><path class="cls-5" d="M1027.25,573.72l-2.74-.49a4.3,4.3,0,0,1,1.59-2.45,5.84,5.84,0,0,1,3.35-.79,7.2,7.2,0,0,1,3,.48,2.9,2.9,0,0,1,1.39,1.21,6.17,6.17,0,0,1,.41,2.7l0,3.52a11.76,11.76,0,0,0,.15,2.22,6.71,6.71,0,0,0,.54,1.53h-3c-.08-.2-.18-.5-.29-.89-.05-.18-.09-.3-.11-.35a5.47,5.47,0,0,1-1.66,1.12,4.55,4.55,0,0,1-1.88.38,3.86,3.86,0,0,1-2.77-1,3.15,3.15,0,0,1-1-2.41,3.34,3.34,0,0,1,.46-1.73,3.06,3.06,0,0,1,1.3-1.16,10.38,10.38,0,0,1,2.4-.7,16.72,16.72,0,0,0,2.93-.74v-.3a1.54,1.54,0,0,0-.43-1.24,2.55,2.55,0,0,0-1.62-.37,2.17,2.17,0,0,0-1.26.31A2.22,2.22,0,0,0,1027.25,573.72Zm4,2.45a17.79,17.79,0,0,1-1.84.47,5.44,5.44,0,0,0-1.64.52,1.28,1.28,0,0,0-.59,1.07,1.49,1.49,0,0,0,.47,1.09,1.66,1.66,0,0,0,1.21.46,2.64,2.64,0,0,0,1.55-.53,1.89,1.89,0,0,0,.72-1,5.89,5.89,0,0,0,.12-1.47Z"/><path class="cls-5" d="M1047.61,581.65h-3v-5.82a9,9,0,0,0-.19-2.39,1.68,1.68,0,0,0-.63-.84,1.8,1.8,0,0,0-1-.3,2.42,2.42,0,0,0-1.41.43,2.13,2.13,0,0,0-.85,1.13,10.12,10.12,0,0,0-.23,2.63v5.16h-3V570.24H1040v1.68a4.67,4.67,0,0,1,5.58-1.57,3,3,0,0,1,1.25.92,3.32,3.32,0,0,1,.59,1.26,9.5,9.5,0,0,1,.17,2Z"/><path class="cls-5" d="M1050.56,581.65V565.9h3v8.36l3.54-4h3.71l-3.9,4.17,4.18,7.24h-3.25l-2.87-5.12-1.41,1.47v3.65Z"/><path class="cls-5" d="M1074.25,570.24v2.41h-2.06v4.6a11.38,11.38,0,0,0,.06,1.63.63.63,0,0,0,.27.38.83.83,0,0,0,.51.15,4,4,0,0,0,1.21-.29l.26,2.34a6.06,6.06,0,0,1-2.39.45,3.85,3.85,0,0,1-1.47-.27,2.16,2.16,0,0,1-1-.71,2.6,2.6,0,0,1-.42-1.18,13.71,13.71,0,0,1-.1-2.13v-5h-1.39v-2.41h1.39V568l3-1.76v4Z"/><path class="cls-5" d="M1083,578l3,.51a5,5,0,0,1-1.83,2.52,5.44,5.44,0,0,1-3.13.86,5.12,5.12,0,0,1-4.41-1.94,6.56,6.56,0,0,1-1.13-3.94,6.29,6.29,0,0,1,1.49-4.44,4.88,4.88,0,0,1,3.74-1.6,5.07,5.07,0,0,1,4,1.68q1.47,1.68,1.41,5.15h-7.56a3,3,0,0,0,.73,2.09,2.25,2.25,0,0,0,1.74.74,1.83,1.83,0,0,0,1.19-.38A2.37,2.37,0,0,0,1083,578Zm.17-3a2.89,2.89,0,0,0-.67-2,2.18,2.18,0,0,0-3.2,0,2.81,2.81,0,0,0-.64,2Z"/><path class="cls-5" d="M1087.52,578.4l3-.46a2.23,2.23,0,0,0,.78,1.33,2.61,2.61,0,0,0,1.65.46,3,3,0,0,0,1.77-.43,1,1,0,0,0,.39-.81.79.79,0,0,0-.21-.56,2.3,2.3,0,0,0-1-.4,16.45,16.45,0,0,1-4.63-1.47,3,3,0,0,1-1.35-2.57,3.15,3.15,0,0,1,1.17-2.49,5.43,5.43,0,0,1,3.63-1,6.33,6.33,0,0,1,3.48.76,3.91,3.91,0,0,1,1.57,2.26l-2.85.52a1.77,1.77,0,0,0-.69-1,2.52,2.52,0,0,0-1.46-.35,3.34,3.34,0,0,0-1.71.33.71.71,0,0,0-.34.61.66.66,0,0,0,.3.55,11.48,11.48,0,0,0,2.82.85,8.34,8.34,0,0,1,3.37,1.34,2.8,2.8,0,0,1,.94,2.25,3.42,3.42,0,0,1-1.31,2.69,5.8,5.8,0,0,1-3.88,1.13,6.38,6.38,0,0,1-3.69-.94A4.38,4.38,0,0,1,1087.52,578.4Z"/><path class="cls-5" d="M1106.05,570.24v2.41H1104v4.6a11.38,11.38,0,0,0,.06,1.63.68.68,0,0,0,.27.38.85.85,0,0,0,.51.15,4,4,0,0,0,1.22-.29l.25,2.34a6,6,0,0,1-2.38.45,3.78,3.78,0,0,1-1.47-.27,2.16,2.16,0,0,1-1-.71,2.72,2.72,0,0,1-.43-1.18,15.17,15.17,0,0,1-.1-2.13v-5h-1.38v-2.41H1101V568l3-1.76v4Z"/><path class="cls-5" d="M1011.36,479.37V463.62h3.18v6.2h6.23v-6.2H1024v15.75h-3.18v-6.88h-6.23v6.88Z"/><path class="cls-5" d="M1029.47,471.44l-2.74-.49a4.3,4.3,0,0,1,1.59-2.45,5.82,5.82,0,0,1,3.35-.79,7.23,7.23,0,0,1,3,.47,3,3,0,0,1,1.39,1.22,6.17,6.17,0,0,1,.41,2.7l0,3.52a11.83,11.83,0,0,0,.15,2.22,6.71,6.71,0,0,0,.54,1.53h-3c-.07-.2-.17-.5-.29-.89,0-.18-.08-.3-.1-.35a5.47,5.47,0,0,1-1.66,1.12,4.71,4.71,0,0,1-1.88.38,3.86,3.86,0,0,1-2.77-1,3.15,3.15,0,0,1-1-2.41,3.24,3.24,0,0,1,.46-1.73,3.06,3.06,0,0,1,1.3-1.16,9.9,9.9,0,0,1,2.4-.7,16.72,16.72,0,0,0,2.93-.74v-.3a1.54,1.54,0,0,0-.43-1.24,2.57,2.57,0,0,0-1.62-.37,2.17,2.17,0,0,0-1.26.31A2.22,2.22,0,0,0,1029.47,471.44Zm4,2.45a16.53,16.53,0,0,1-1.84.46,5.67,5.67,0,0,0-1.64.53,1.27,1.27,0,0,0-.59,1.06,1.5,1.5,0,0,0,.47,1.1,1.65,1.65,0,0,0,1.2.46,2.64,2.64,0,0,0,1.56-.53,1.89,1.89,0,0,0,.72-1,5.93,5.93,0,0,0,.12-1.48Z"/><path class="cls-5" d="M1038.24,479.37V477l4.27-4.91q1-1.2,1.56-1.71c-.35,0-.81,0-1.39,0l-4,0V468h9.43v2.14l-4.36,5-1.54,1.66c.84-.05,1.36-.07,1.56-.07h4.67v2.65Z"/><path class="cls-5" d="M1052.71,471.44,1050,471a4.3,4.3,0,0,1,1.59-2.45,5.82,5.82,0,0,1,3.35-.79,7.23,7.23,0,0,1,3,.47,3,3,0,0,1,1.39,1.22,6.2,6.2,0,0,1,.4,2.7l0,3.52a13,13,0,0,0,.14,2.22,6.32,6.32,0,0,0,.55,1.53h-3c-.08-.2-.18-.5-.29-.89,0-.18-.09-.3-.11-.35a5.43,5.43,0,0,1-1.65,1.12,4.78,4.78,0,0,1-1.88.38,3.88,3.88,0,0,1-2.78-1,3.14,3.14,0,0,1-1-2.41,3.24,3.24,0,0,1,.46-1.73,3.09,3.09,0,0,1,1.29-1.16,10.19,10.19,0,0,1,2.4-.7,17.16,17.16,0,0,0,2.94-.74v-.3a1.57,1.57,0,0,0-.43-1.24,2.58,2.58,0,0,0-1.63-.37,1.8,1.8,0,0,0-2,1.42Zm4,2.45a16.53,16.53,0,0,1-1.84.46,5.45,5.45,0,0,0-1.64.53,1.26,1.26,0,0,0-.6,1.06,1.47,1.47,0,0,0,.48,1.1,1.62,1.62,0,0,0,1.2.46,2.69,2.69,0,0,0,1.56-.53,2,2,0,0,0,.72-1,5.93,5.93,0,0,0,.12-1.48Z"/><path class="cls-5" d="M1065.58,479.37h-3V468h2.8v1.63a4.74,4.74,0,0,1,1.3-1.52,2.37,2.37,0,0,1,1.3-.36,3.83,3.83,0,0,1,2,.56l-.94,2.64a2.66,2.66,0,0,0-1.41-.5,1.71,1.71,0,0,0-1.08.35,2.44,2.44,0,0,0-.69,1.26,18,18,0,0,0-.25,3.83Z"/><path class="cls-5" d="M1081.71,479.37h-2.8V477.7a4.61,4.61,0,0,1-1.65,1.45,4.23,4.23,0,0,1-1.92.48,4.37,4.37,0,0,1-3.37-1.58,6.48,6.48,0,0,1-1.4-4.43,6.34,6.34,0,0,1,1.37-4.4,4.4,4.4,0,0,1,3.44-1.51,4.26,4.26,0,0,1,3.31,1.59v-5.68h3Zm-8.06-5.95a5.15,5.15,0,0,0,.51,2.64,2.28,2.28,0,0,0,2,1.18,2.21,2.21,0,0,0,1.77-.88,4.07,4.07,0,0,0,.73-2.65,4.44,4.44,0,0,0-.71-2.83,2.21,2.21,0,0,0-1.81-.86,2.25,2.25,0,0,0-1.8.85A3.88,3.88,0,0,0,1073.65,473.42Z"/><path class="cls-5" d="M1090.83,479.37V463.62h6.69a11.47,11.47,0,0,1,3.67.43,3.55,3.55,0,0,1,1.83,1.51,4.51,4.51,0,0,1,.69,2.48,4.23,4.23,0,0,1-1,2.93,5,5,0,0,1-3.12,1.45,7.43,7.43,0,0,1,1.71,1.32,18.42,18.42,0,0,1,1.81,2.56l1.92,3.07h-3.8l-2.3-3.43a23.18,23.18,0,0,0-1.68-2.31,2.49,2.49,0,0,0-1-.66,5.62,5.62,0,0,0-1.61-.17H1094v6.57Zm3.18-9.09h2.35a12.16,12.16,0,0,0,2.86-.19,1.68,1.68,0,0,0,.89-.67,2,2,0,0,0,.32-1.18A1.88,1.88,0,0,0,1100,467a1.94,1.94,0,0,0-1.2-.62c-.26,0-1,0-2.32,0H1094Z"/><path class="cls-5" d="M1108.94,471.44l-2.74-.49a4.3,4.3,0,0,1,1.59-2.45,5.82,5.82,0,0,1,3.35-.79,7.23,7.23,0,0,1,3,.47,3,3,0,0,1,1.39,1.22,6.17,6.17,0,0,1,.41,2.7l0,3.52a11.83,11.83,0,0,0,.15,2.22,6.71,6.71,0,0,0,.54,1.53h-3c-.07-.2-.17-.5-.29-.89a2.49,2.49,0,0,0-.1-.35,5.47,5.47,0,0,1-1.66,1.12,4.71,4.71,0,0,1-1.88.38,3.86,3.86,0,0,1-2.77-1,3.15,3.15,0,0,1-1-2.41,3.34,3.34,0,0,1,.46-1.73,3.06,3.06,0,0,1,1.3-1.16,9.9,9.9,0,0,1,2.4-.7,16.72,16.72,0,0,0,2.93-.74v-.3a1.54,1.54,0,0,0-.43-1.24,2.55,2.55,0,0,0-1.62-.37,2.17,2.17,0,0,0-1.26.31A2.22,2.22,0,0,0,1108.94,471.44Zm4,2.45a16.53,16.53,0,0,1-1.84.46,5.67,5.67,0,0,0-1.64.53,1.27,1.27,0,0,0-.59,1.06,1.5,1.5,0,0,0,.47,1.1,1.66,1.66,0,0,0,1.21.46,2.64,2.64,0,0,0,1.55-.53,1.89,1.89,0,0,0,.72-1,5.93,5.93,0,0,0,.12-1.48Z"/><path class="cls-5" d="M1124.15,468v2.41h-2.06V475a11.09,11.09,0,0,0,.06,1.62.67.67,0,0,0,.27.39.85.85,0,0,0,.51.15,4,4,0,0,0,1.21-.29l.26,2.34a6,6,0,0,1-2.38.45,3.86,3.86,0,0,1-1.48-.27,2.28,2.28,0,0,1-1-.71,2.91,2.91,0,0,1-.42-1.18,13.71,13.71,0,0,1-.1-2.13v-5h-1.38V468h1.38V465.7l3-1.77v4Z"/><path class="cls-5" d="M1126.25,466.42v-2.8h3v2.8Zm0,12.95V468h3v11.41Z"/><path class="cls-5" d="M1131.66,473.51a6.17,6.17,0,0,1,.74-2.91,5.13,5.13,0,0,1,2.1-2.15,6.19,6.19,0,0,1,3-.74,5.7,5.7,0,0,1,4.24,1.68,5.81,5.81,0,0,1,1.66,4.25,5.91,5.91,0,0,1-1.67,4.29,5.68,5.68,0,0,1-4.21,1.7,6.64,6.64,0,0,1-3-.71,4.91,4.91,0,0,1-2.17-2.08A6.94,6.94,0,0,1,1131.66,473.51Zm3.1.16a3.77,3.77,0,0,0,.8,2.6,2.57,2.57,0,0,0,2,.9,2.53,2.53,0,0,0,2-.9,3.85,3.85,0,0,0,.8-2.62,3.78,3.78,0,0,0-.8-2.58,2.53,2.53,0,0,0-2-.9,2.57,2.57,0,0,0-2,.9A3.77,3.77,0,0,0,1134.76,473.67Z"/><path class="cls-5" d="M1156.92,484h-2.08a20.92,20.92,0,0,1-2.5-5.15,17,17,0,0,1-.86-5.18,16.48,16.48,0,0,1,1.06-5.88,20.9,20.9,0,0,1,2.35-4.44H1157a32.94,32.94,0,0,0-2,5.54,21,21,0,0,0-.55,4.84,20.45,20.45,0,0,0,.33,3.61,23.71,23.71,0,0,0,.9,3.51Q1156,481.94,1156.92,484Z"/><path class="cls-5" d="M1158.66,475.73l2.92-.32a2.13,2.13,0,0,0,.56,1.32,1.64,1.64,0,0,0,1.19.43,2,2,0,0,0,1.59-.86,7.25,7.25,0,0,0,.84-3.57,3.61,3.61,0,0,1-2.85,1.32,4.24,4.24,0,0,1-3.21-1.43,5.91,5.91,0,0,1,.08-7.59,4.83,4.83,0,0,1,3.62-1.47,4.91,4.91,0,0,1,3.94,1.85q1.53,1.86,1.53,6.1c0,2.88-.53,4.95-1.6,6.23a5.19,5.19,0,0,1-4.17,1.91,4.42,4.42,0,0,1-3-1A4.74,4.74,0,0,1,1158.66,475.73Zm6.83-6.6a3.41,3.41,0,0,0-.67-2.26,2,2,0,0,0-1.55-.81,1.76,1.76,0,0,0-1.4.66,3.43,3.43,0,0,0-.55,2.17,3.47,3.47,0,0,0,.6,2.24,1.9,1.9,0,0,0,1.51.71,1.84,1.84,0,0,0,1.46-.69A3,3,0,0,0,1165.49,469.13Z"/><path class="cls-5" d="M1173.42,470.87a3.54,3.54,0,0,1-1.71-1.35,3.61,3.61,0,0,1-.53-1.9,3.79,3.79,0,0,1,1.23-2.91,5.89,5.89,0,0,1,7,0,3.8,3.8,0,0,1,1.24,2.91,3.43,3.43,0,0,1-.57,1.95,3.63,3.63,0,0,1-1.6,1.3,4.28,4.28,0,0,1,2,1.54,4.09,4.09,0,0,1,.68,2.33,4.74,4.74,0,0,1-1.39,3.55,5.05,5.05,0,0,1-3.7,1.36,5.61,5.61,0,0,1-3.58-1.13,4.4,4.4,0,0,1-1.69-3.65,4.58,4.58,0,0,1,.64-2.35A4.11,4.11,0,0,1,1173.42,470.87Zm.34,3.71a2.74,2.74,0,0,0,.64,1.94,2.07,2.07,0,0,0,1.59.7,2,2,0,0,0,1.55-.67,2.77,2.77,0,0,0,.61-1.94,2.51,2.51,0,0,0-.62-1.78,2.08,2.08,0,0,0-1.58-.67,1.89,1.89,0,0,0-1.65.77A2.78,2.78,0,0,0,1173.76,474.58Zm.28-6.75a1.89,1.89,0,0,0,.51,1.41,1.83,1.83,0,0,0,1.36.51,1.86,1.86,0,0,0,1.37-.51,1.88,1.88,0,0,0,.52-1.42,1.82,1.82,0,0,0-.51-1.35,1.79,1.79,0,0,0-1.35-.52,1.87,1.87,0,0,0-1.38.52A1.82,1.82,0,0,0,1174,467.83Z"/><path class="cls-5" d="M1183.71,479.37v-3h3v3Z"/><path class="cls-5" d="M1195.09,479.37V476.2h-6.44v-2.64l6.83-10H1198v10h2v2.65h-2v3.17Zm0-5.82v-5.38l-3.62,5.38Z"/><path class="cls-5" d="M1201.43,467.51a4.52,4.52,0,0,1,.93-3.13,3.21,3.21,0,0,1,2.52-1,3.29,3.29,0,0,1,2.57,1,5.77,5.77,0,0,1,0,6.28,3.24,3.24,0,0,1-2.52,1,3.31,3.31,0,0,1-2.57-1A4.51,4.51,0,0,1,1201.43,467.51Zm2.35,0a4,4,0,0,0,.36,2.06.91.91,0,0,0,1.49,0,4.12,4.12,0,0,0,.35-2.06,4.08,4.08,0,0,0-.35-2.05.9.9,0,0,0-1.49,0A4,4,0,0,0,1203.78,467.49Zm3.4,12.48h-2.24l8.39-16.62h2.17Zm4.88-4.13a4.55,4.55,0,0,1,.93-3.14,3.69,3.69,0,0,1,5.09,0,5.77,5.77,0,0,1,0,6.28,3.21,3.21,0,0,1-2.52,1,3.27,3.27,0,0,1-2.57-1A4.53,4.53,0,0,1,1212.06,475.84Zm2.35,0a4.1,4.1,0,0,0,.35,2.05.87.87,0,0,0,.74.4.85.85,0,0,0,.75-.39,4.15,4.15,0,0,0,.35-2.06,4.2,4.2,0,0,0-.34-2.07.88.88,0,0,0-.76-.38.86.86,0,0,0-.74.38A4.17,4.17,0,0,0,1214.41,475.83Z"/><path class="cls-5" d="M1237.83,473.58l3.08,1a6.92,6.92,0,0,1-2.36,3.83,7.43,7.43,0,0,1-9.34-.89,8.2,8.2,0,0,1-2-5.86,8.63,8.63,0,0,1,2-6.11,7,7,0,0,1,5.34-2.18,6.57,6.57,0,0,1,4.7,1.71,6.32,6.32,0,0,1,1.61,2.9l-3.15.76a3.26,3.26,0,0,0-3.32-2.65,3.58,3.58,0,0,0-2.84,1.26,6.14,6.14,0,0,0-1.09,4.07,6.62,6.62,0,0,0,1.07,4.25,3.49,3.49,0,0,0,2.8,1.27,3.22,3.22,0,0,0,2.18-.8A4.81,4.81,0,0,0,1237.83,473.58Z"/><path class="cls-5" d="M1243.54,479.37V463.62h3.18v15.75Z"/><path class="cls-5" d="M1248.89,484c.6-1.27,1-2.25,1.26-2.93a21.28,21.28,0,0,0,.67-2.35,24.54,24.54,0,0,0,.47-2.53,19.82,19.82,0,0,0,.15-2.46,21,21,0,0,0-.55-4.84,32.78,32.78,0,0,0-2-5.54h2.05a20,20,0,0,1,2.52,4.9,15.94,15.94,0,0,1,.9,5.26,18.25,18.25,0,0,1-.71,4.81A20.36,20.36,0,0,1,1251,484Z"/><path class="cls-7" d="M1057.92,504.88a4.3,4.3,0,0,1,3.58,1.64c1,1.29,1.54,3.42,1.54,6.41s-.52,5.12-1.55,6.42a4.28,4.28,0,0,1-3.57,1.62,4.49,4.49,0,0,1-3.7-1.77q-1.41-1.77-1.41-6.3c0-3,.51-5.1,1.55-6.4A4.28,4.28,0,0,1,1057.92,504.88Zm0,2.51a1.49,1.49,0,0,0-1,.35,2.39,2.39,0,0,0-.66,1.25,17.11,17.11,0,0,0-.31,3.94,16.89,16.89,0,0,0,.28,3.81,2.66,2.66,0,0,0,.7,1.38,1.49,1.49,0,0,0,1,.34,1.47,1.47,0,0,0,1-.35,2.33,2.33,0,0,0,.67-1.25,25.55,25.55,0,0,0,0-7.74,2.74,2.74,0,0,0-.7-1.38A1.47,1.47,0,0,0,1057.92,507.39Z"/><path class="cls-7" d="M1065.7,520.7v-3h3v3Z"/><path class="cls-7" d="M1071.21,516.65l3-.31A2.55,2.55,0,0,0,1075,518a2.06,2.06,0,0,0,1.46.6,2,2,0,0,0,1.6-.77,3.46,3.46,0,0,0,.66-2.31,3.19,3.19,0,0,0-.65-2.18,2.19,2.19,0,0,0-1.69-.73,3.08,3.08,0,0,0-2.33,1.15l-2.45-.35,1.54-8.2h8V508h-5.69l-.47,2.67a4.63,4.63,0,0,1,2.06-.5,4.55,4.55,0,0,1,3.41,1.46,5.26,5.26,0,0,1,1.39,3.79,5.64,5.64,0,0,1-1.13,3.47,5,5,0,0,1-4.26,2.09,5.33,5.33,0,0,1-3.56-1.18A4.85,4.85,0,0,1,1071.21,516.65Z"/><path class="cls-7" d="M1083.4,508v-2.81h10.33v2.19a16.22,16.22,0,0,0-2.6,3.61,21.13,21.13,0,0,0-2,5,18.57,18.57,0,0,0-.68,4.74h-2.91a20.17,20.17,0,0,1,1.35-6.66,22,22,0,0,1,3.4-6.07Z"/><path class="cls-7" d="M1107.4,525.33h-2.07a21.19,21.19,0,0,1-2.51-5.16A17,17,0,0,1,1102,515a16.17,16.17,0,0,1,1.06-5.87,20.84,20.84,0,0,1,2.34-4.44h2.06a32.78,32.78,0,0,0-2,5.54,21.11,21.11,0,0,0-.23,8.45,23.71,23.71,0,0,0,.9,3.51Q1106.46,523.28,1107.4,525.33Z"/><path class="cls-7" d="M1114.18,504.88a4.32,4.32,0,0,1,3.58,1.64c1,1.29,1.53,3.42,1.53,6.41s-.51,5.12-1.54,6.42a4.31,4.31,0,0,1-3.57,1.62,4.52,4.52,0,0,1-3.71-1.77c-.94-1.18-1.4-3.28-1.4-6.3s.51-5.1,1.54-6.4A4.3,4.3,0,0,1,1114.18,504.88Zm0,2.51a1.47,1.47,0,0,0-1,.35,2.32,2.32,0,0,0-.66,1.25,17,17,0,0,0-.32,3.94,17.52,17.52,0,0,0,.28,3.81,2.66,2.66,0,0,0,.71,1.38,1.47,1.47,0,0,0,1,.34,1.49,1.49,0,0,0,1-.35,2.32,2.32,0,0,0,.66-1.25,17,17,0,0,0,.31-3.93,17.71,17.71,0,0,0-.27-3.81,2.73,2.73,0,0,0-.71-1.38A1.45,1.45,0,0,0,1114.18,507.39Z"/><path class="cls-7" d="M1122,520.7v-3h3v3Z"/><path class="cls-7" d="M1133.34,520.7v-3.17h-6.44v-2.64l6.83-10h2.54v10h2v2.66h-2v3.17Zm0-5.83v-5.38l-3.62,5.38Z"/><path class="cls-7" d="M1139.55,516.52l2.92-.36a2.78,2.78,0,0,0,.76,1.71,2.12,2.12,0,0,0,3-.12,2.72,2.72,0,0,0,.64-1.91,2.53,2.53,0,0,0-.61-1.8,1.94,1.94,0,0,0-1.49-.67,5.34,5.34,0,0,0-1.39.23l.33-2.46a2.63,2.63,0,0,0,1.87-.54,1.87,1.87,0,0,0,.65-1.49,1.7,1.7,0,0,0-.48-1.27,1.66,1.66,0,0,0-1.25-.47,1.79,1.79,0,0,0-1.32.53,2.51,2.51,0,0,0-.67,1.57l-2.78-.47a6.1,6.1,0,0,1,.87-2.28,4,4,0,0,1,1.64-1.35,5.57,5.57,0,0,1,2.34-.49,4.71,4.71,0,0,1,3.57,1.42,3.59,3.59,0,0,1-1.16,5.93,3.71,3.71,0,0,1,2.16,1.3A3.78,3.78,0,0,1,1150,516a4.72,4.72,0,0,1-1.52,3.53,5.64,5.64,0,0,1-7.31.24A4.85,4.85,0,0,1,1139.55,516.52Z"/><path class="cls-7" d="M1150.92,516.12v-2.26h12.23v2.26Z"/><path class="cls-7" d="M1169.23,504.88a4.3,4.3,0,0,1,3.58,1.64c1,1.29,1.54,3.42,1.54,6.41s-.52,5.12-1.55,6.42a4.28,4.28,0,0,1-3.57,1.62,4.5,4.5,0,0,1-3.7-1.77q-1.41-1.77-1.41-6.3t1.55-6.4A4.28,4.28,0,0,1,1169.23,504.88Zm0,2.51a1.45,1.45,0,0,0-1,.35,2.33,2.33,0,0,0-.67,1.25,17.11,17.11,0,0,0-.31,3.94,16.89,16.89,0,0,0,.28,3.81,2.66,2.66,0,0,0,.7,1.38,1.49,1.49,0,0,0,1,.34,1.47,1.47,0,0,0,1-.35,2.33,2.33,0,0,0,.67-1.25,17.54,17.54,0,0,0,.31-3.93,16.89,16.89,0,0,0-.28-3.81,2.74,2.74,0,0,0-.7-1.38A1.47,1.47,0,0,0,1169.23,507.39Z"/><path class="cls-7" d="M1177,520.7v-3h3v3Z"/><path class="cls-7" d="M1182.48,508v-2.81h10.32v2.19a16.55,16.55,0,0,0-2.6,3.61,21.1,21.1,0,0,0-2,5,18.57,18.57,0,0,0-.68,4.74h-2.92a20.17,20.17,0,0,1,1.35-6.66,22,22,0,0,1,3.4-6.07Z"/><path class="cls-7" d="M1200.63,520.7v-3.17h-6.44v-2.64l6.83-10h2.53v10h2v2.66h-2v3.17Zm0-5.83v-5.38l-3.62,5.38Z"/><path class="cls-7" d="M1206.76,525.33c.59-1.28,1-2.26,1.25-2.94a20.56,20.56,0,0,0,.68-2.35,23.92,23.92,0,0,0,.46-2.53,19.78,19.78,0,0,0,.15-2.45,20.39,20.39,0,0,0-.55-4.84,31.12,31.12,0,0,0-2-5.54h2.06a19.79,19.79,0,0,1,2.52,4.9,16.13,16.13,0,0,1,.89,5.25,17.79,17.79,0,0,1-.71,4.81,20.14,20.14,0,0,1-2.65,5.69Z"/><path class="cls-4" d="M1119.86,547.26h-3V535.89a10.46,10.46,0,0,1-3.9,2.29v-2.74a8.73,8.73,0,0,0,2.57-1.47,5.5,5.5,0,0,0,1.9-2.52h2.45Z"/><path class="cls-4" d="M1125,547.26v-3h3v3Z"/><path class="cls-4" d="M1135.59,531.45a4.31,4.31,0,0,1,3.58,1.63q1.53,1.93,1.53,6.42c0,3-.51,5.12-1.55,6.42a4.3,4.3,0,0,1-3.56,1.61,4.54,4.54,0,0,1-3.71-1.76c-.94-1.18-1.4-3.28-1.4-6.31s.51-5.09,1.54-6.4A4.3,4.3,0,0,1,1135.59,531.45Zm0,2.5a1.53,1.53,0,0,0-1,.35,2.37,2.37,0,0,0-.67,1.25,17.81,17.81,0,0,0-.31,4,17.47,17.47,0,0,0,.28,3.8,2.58,2.58,0,0,0,.71,1.38,1.48,1.48,0,0,0,1,.35,1.55,1.55,0,0,0,1-.35,2.39,2.39,0,0,0,.66-1.25,17.06,17.06,0,0,0,.31-3.93,16.89,16.89,0,0,0-.28-3.81,2.74,2.74,0,0,0-.7-1.39A1.5,1.5,0,0,0,1135.59,534Z"/><path class="cls-4" d="M1147.82,531.45a4.3,4.3,0,0,1,3.58,1.63q1.55,1.93,1.54,6.42t-1.55,6.42a4.3,4.3,0,0,1-3.57,1.61,4.52,4.52,0,0,1-3.7-1.76q-1.41-1.77-1.41-6.31t1.55-6.4A4.3,4.3,0,0,1,1147.82,531.45Zm0,2.5a1.5,1.5,0,0,0-1,.35,2.37,2.37,0,0,0-.67,1.25,17.21,17.21,0,0,0-.31,4,16.84,16.84,0,0,0,.28,3.8,2.58,2.58,0,0,0,.7,1.38,1.53,1.53,0,0,0,2,0,2.33,2.33,0,0,0,.67-1.25,17.06,17.06,0,0,0,.31-3.93,16.89,16.89,0,0,0-.28-3.81,2.82,2.82,0,0,0-.7-1.39A1.53,1.53,0,0,0,1147.82,534Z"/></svg>