<svg id="Layer_1" data-name="Layer 1" xmlns="http://www.w3.org/2000/svg" viewBox="0 0 1298.46 863.93"><defs><style>.cls-1{fill:none;stroke-linecap:square;}.cls-1,.cls-4{stroke:#808285;stroke-miterlimit:10;stroke-width:4px;}.cls-2{fill:#808285;}.cls-3{fill:#585858;}.cls-4{fill:#fff;}</style></defs><title>all_charts_L13</title><polyline class="cls-1" points="86.41 34.63 88.04 34.63 88.04 38.1 101 38.1 101 39.24 122.08 39.24 122.08 40.42 123.67 40.42 123.67 41.56 128.56 41.56 128.56 42.75 133.42 42.75 133.42 43.89 138.27 43.89 138.27 45.03 143.12 45.03 143.12 46.22 147.97 46.22 147.97 47.37 149.6 47.37 149.6 48.54 156.09 48.54 156.09 53.15 159.31 53.15 159.31 56.62 162.57 56.62 162.57 57.81 164.2 57.81 164.2 58.95 165.79 58.95 165.79 60.13 172.27 60.13 172.27 61.27 178.75 61.27 178.75 62.41 191.72 62.41 191.72 65.92 193.35 65.92 193.35 68.25 194.98 68.25 194.98 70.54 196.57 70.54 196.57 71.72 198.2 71.72 198.2 72.86 203.05 72.86 203.05 74.05 204.69 74.05 204.69 75.19 209.54 75.19 209.54 76.33 211.16 76.33 211.16 77.51 212.8 77.51 212.8 82.12 214.39 82.12 214.39 85.63 216.02 85.63 216.02 87.91 217.64 87.91 217.64 91.43 219.28 91.43 219.28 93.75 220.88 93.75 220.88 99.54 222.5 99.54 222.5 105.33 224.13 105.33 224.13 112.31 225.76 112.31 225.76 121.65 227.35 121.65 227.35 125.12 228.98 125.12 230.62 125.12 230.62 127.44 232.2 127.44 232.2 129.81 233.83 129.81 233.83 130.95 235.46 130.95 235.46 132.13 251.65 132.13 251.65 133.31 258.14 133.31 258.14 135.64 259.76 135.64 259.76 136.82 262.98 136.82 262.98 137.97 267.87 137.97 267.87 139.14 287.29 139.14 287.29 140.32 292.17 140.32 292.17 141.47 301.88 141.47 301.88 142.65 303.51 142.65 303.51 143.83 305.11 143.83 305.11 144.98 311.59 144.98 311.59 146.16 314.85 146.16 314.85 147.34 316.47 147.34 316.47 148.52 321.32 148.52 321.32 149.66 326.18 149.66 326.18 152.03 340.78 152.03 340.78 153.17 345.62 153.17 345.62 155.53 348.85 155.53 348.85 156.68 350.48 156.68 350.48 160.18 353.7 160.18 353.7 161.37 355.33 161.37 355.33 163.74 356.97 163.74 356.97 164.88 358.6 164.88 358.6 170.75 360.18 170.75 360.18 176.57 361.82 176.57 361.82 178.93 363.44 178.93 363.44 180.08 365.07 180.08 365.07 181.27 366.67 181.27 366.67 182.44 368.3 182.44 368.3 184.78 369.93 184.78 371.55 184.78 371.55 185.95 373.15 185.95 373.15 187.14 374.77 187.14 374.77 188.28 379.63 188.28 379.63 189.46 389.37 189.46 389.37 190.65 390.97 190.65 390.97 191.82 395.85 191.82 395.85 194.15 399.08 194.15 399.08 195.33 413.67 195.33 413.67 196.51 420.14 196.51 420.14 197.69 421.75 197.69 421.75 198.84 425 198.84 425 200.01 429.86 200.01 429.86 201.2 431.49 201.2 431.49 202.38 436.33 202.38 441.19 202.38 441.19 203.56 460.64 203.56 460.64 204.71 470.33 204.71 470.33 205.89 471.96 205.89 471.96 207.07 484.94 207.07 484.94 209.44 486.55 209.44 486.55 210.62 488.15 210.62 488.15 212.94 489.77 212.94 489.77 215.3 491.41 215.3 491.41 216.49 494.63 216.49 494.63 218.85 496.26 218.85 496.26 222.36 497.89 222.36 497.89 227.08 502.75 227.08 502.75 228.26 504.37 228.26 504.37 229.45 507.6 229.45 507.6 230.62 509.23 230.62 509.23 231.81 518.93 231.81 518.93 232.99 522.2 232.99 522.2 234.17 531.9 234.17 531.9 235.36 548.09 235.36 548.09 236.54 570.79 236.54 570.79 237.72 586.98 237.72 586.98 238.9 603.17 238.9 617.75 238.9 619.39 238.9 620.98 238.9 620.98 240.08 622.61 240.08 624.24 240.08 624.24 241.3 627.47 241.3 627.47 242.48 629.1 242.48 629.1 243.7 630.73 243.7 630.73 247.33 632.36 247.33 632.36 250.94 633.95 250.94 633.95 252.16 635.59 252.16 635.59 253.42 637.22 253.42 637.22 254.64 638.8 254.64 642.05 254.64 642.05 255.94 643.69 255.94 645.29 255.94 645.29 257.2 646.91 257.2 650.17 257.2 651.77 257.2 651.77 258.52 655.02 258.52 656.66 258.52 658.25 258.52 661.51 258.52 661.51 259.86 666.36 259.86 666.36 261.2 690.66 261.2 697.15 261.2 700.37 261.2 702 261.2 703.63 261.2 703.63 263.9 705.25 263.9 706.86 263.9 708.47 263.9 710.11 263.9 711.7 263.9 711.7 265.31 713.33 265.31 713.33 266.76 714.95 266.76 718.18 266.76 718.18 268.21 719.81 268.21 721.44 268.21 721.44 269.7 723.07 269.7 723.07 272.82 724.66 272.82 727.93 272.82 729.55 272.82 729.55 274.43 731.15 274.43 732.77 274.43 734.41 274.43 736.01 274.43 737.63 274.43 739.26 274.43 742.47 274.43 744.11 274.43 745.74 274.43 752.23 274.43 752.23 276.14 755.45 276.14 757.08 276.14 758.69 276.14 760.3 276.14 761.92 276.14 765.19 276.14 771.67 276.14 773.26 276.14 774.88 276.14 776.52 276.14 778.15 276.14 779.74 276.14 781.38 276.14 783 276.14 784.6 276.14 794.35 276.14 799.18 276.14 804.04 276.14 807.3 276.14 810.53 276.14 810.53 278.2 812.15 278.2 812.15 280.25 813.79 280.25 825.11 280.25 825.11 282.39 831.61 282.39 833.19 282.39 834.83 282.39 836.45 282.39 838.09 282.39 839.68 282.39 842.94 282.39 844.57 282.39 846.17 282.39 846.17 284.68 847.8 284.68 849.42 284.68 851.06 284.68 851.06 287.23 852.65 287.23 854.28 287.23 855.91 287.23 857.49 287.23 857.49 289.98 859.13 289.98 860.76 289.98 862.38 289.98 862.38 292.99 863.99 292.99 865.61 292.99 867.24 292.99 868.86 292.99 870.46 292.99 872.09 292.99 875.35 292.99 878.58 292.99 880.21 292.99 881.8 292.99 883.43 292.99 883.43 296.69 885.06 296.69 888.29 296.69 893.16 296.69 894.76 296.69 898.02 296.69 899.65 296.69 902.87 296.69 914.22 296.69 915.83 296.69 919.05 296.69 920.69 296.69 925.54 296.69 927.18 296.69 927.18 301.3 928.8 301.3 932.03 301.3 945 301.3 953.1 301.3 961.17 301.3 967.66 301.3 967.66 306.44 977.39 306.44 980.63 306.44 982.26 306.44 983.88 306.44 985.47 306.44 985.47 312.39 987.11 312.39 988.74 312.39 990.37 312.39 993.58 312.39 995.22 312.39 1000.08 312.39 1003.3 312.39 1006.56 312.39 1008.2 312.39 1013.04 312.39 1014.66 312.39 1022.74 312.39 1025.99 312.39 1029.22 312.39 1032.49 312.39 1040.57 312.39 1040.57 322.49 1043.81 322.49 1045.45 322.49 1051.89 322.49 1053.52 322.49 1066.49 322.49 1081.08 322.49 1087.56 322.49 1092.42 322.49 1092.42 337.12 1095.64 337.12 1108.62 337.12 1113.45 337.12 1121.57 337.12 1123.2 337.12 1132.91 337.12 1137.76 337.12 1139.39 337.12 1142.65 337.12 1144.23 337.12 1147.5 337.12 1152.35 337.12 1153.98 337.12 1166.95 337.12 1173.4 337.12 1189.62 337.12 1209.07 337.12 1243.07 337.12"/><path class="cls-2" d="M715.2,295.49l-6.64.73a4.83,4.83,0,0,0-1.27-3,3.7,3.7,0,0,0-2.66-1,4.49,4.49,0,0,0-3.67,1.95c-1,1.31-1.64,4-1.9,8.13a8,8,0,0,1,6.38-3,9.76,9.76,0,0,1,7.36,3.28,11.85,11.85,0,0,1,3.06,8.44,12.11,12.11,0,0,1-3.22,8.82,11.74,11.74,0,0,1-17.19-.89q-3.5-4.21-3.49-13.81,0-9.84,3.64-14.18a11.72,11.72,0,0,1,9.44-4.35,10.07,10.07,0,0,1,6.76,2.28A10.73,10.73,0,0,1,715.2,295.49Zm-15.55,15a7.73,7.73,0,0,0,1.54,5.16,4.51,4.51,0,0,0,3.51,1.82,4,4,0,0,0,3.18-1.49c.84-1,1.27-2.62,1.27-4.88s-.46-4-1.37-5.12a4.4,4.4,0,0,0-6.76-.07A6.69,6.69,0,0,0,699.65,310.46Z"/><path class="cls-2" d="M737.32,322.52h-6.86V296.66a23.56,23.56,0,0,1-8.86,5.2v-6.22a19.87,19.87,0,0,0,5.83-3.34,12.61,12.61,0,0,0,4.32-5.72h5.57Z"/><path class="cls-2" d="M747.62,295.56q0-4.8,2.12-7.13a7.35,7.35,0,0,1,5.72-2.31,7.53,7.53,0,0,1,5.85,2.3c1.4,1.54,2.11,3.92,2.11,7.14s-.71,5.59-2.11,7.13a7.36,7.36,0,0,1-5.73,2.32,7.5,7.5,0,0,1-5.84-2.31Q747.63,300.41,747.62,295.56Zm5.35,0c0,2.32.27,3.89.81,4.68a1.91,1.91,0,0,0,1.68.88,2,2,0,0,0,1.71-.88c.52-.79.78-2.36.78-4.68s-.26-3.89-.78-4.67a2,2,0,0,0-1.71-.9,1.91,1.91,0,0,0-1.68.88C753.24,291.63,753,293.19,753,295.52Zm7.71,28.36h-5.07l19.06-37.76h4.94Zm11.09-9.39q0-4.82,2.11-7.13a8.37,8.37,0,0,1,11.57,0q2.12,2.31,2.11,7.13t-2.11,7.15a7.37,7.37,0,0,1-5.72,2.32,7.54,7.54,0,0,1-5.85-2.32Q771.77,319.31,771.77,314.49Zm5.34,0c0,2.33.27,3.88.81,4.66a2,2,0,0,0,3.37,0c.54-.8.81-2.36.81-4.69s-.27-3.89-.79-4.69a2,2,0,0,0-1.7-.88,1.92,1.92,0,0,0-1.69.88C777.38,310.57,777.11,312.13,777.11,314.46Z"/><polygon class="cls-3" points="680.84 262.21 678.84 262.21 678.84 260.21 680.84 260.2 680.84 262.21"/><path class="cls-3" d="M680.83,611.26h-2v-2l2,0Zm0-5h-2v-2l2,0Zm0-5h-2v-2l2,0Zm0-5h-2v-2l2,0Zm0-5h-2v-2l2,0Zm0-5h-2v-2l2,0Zm0-5h-2v-2l2,0Zm0-5h-2v-2l2,0Zm0-5h-2v-2l2,0Zm0-5h-2v-2l2,0Zm0-5h-2v-2l2,0Zm0-5h-2v-2l2,0Zm0-5h-2v-2l2,0Zm0-5h-2v-2l2,0Zm0-5h-2v-2l2,0Zm0-5h-2v-2l2,0Zm0-5h-2v-2l2,0Zm0-5h-2v-2l2,0Zm0-5h-2v-2l2,0Zm0-5h-2v-2l2,0Zm0-5h-2v-2l2,0Zm0-5h-2v-2l2,0Zm0-5h-2v-2l2,0Zm0-5h-2v-2l2,0Zm0-5h-2v-2l2,0Zm0-5h-2v-2l2,0Zm0-5h-2v-2l2,0Zm0-5h-2v-2l2,0Zm0-5h-2v-2l2,0Zm0-5h-2v-2l2,0Zm0-5h-2v-2l2,0Zm0-5h-2v-2l2,0Zm0-5h-2v-2l2,0Zm0-5h-2v-2l2,0Zm0-5h-2v-2l2,0Zm0-5h-2v-2l2,0Zm0-5h-2v-2l2,0Zm0-5h-2v-2l2,0Zm0-5h-2v-2l2,0Zm0-5h-2v-2l2,0Zm0-5h-2v-2l2,0Zm0-5h-2v-2l2,0Zm0-5h-2v-2l2,0Zm0-5h-2v-2l2,0Zm0-5h-2v-2l2,0Zm0-5h-2v-2l2,0Zm0-5h-2v-2l2,0Zm0-5h-2v-2l2,0Zm0-5h-2v-2l2,0Zm0-5h-2v-2l2,0Zm0-5h-2v-2l2,0Zm0-5h-2v-2l2,0Zm0-5h-2v-2l2,0Zm0-5h-2v-2l2,0Zm0-5h-2v-2l2,0Zm0-5h-2v-2l2,0Zm0-5h-2v-2l2,0Zm0-5h-2v-2l2,0Zm0-5h-2v-2l2,0Zm0-5h-2v-2l2,0Zm0-5h-2v-2l2,0Zm0-5h-2v-2l2,0Zm0-5h-2v-2l2,0Zm0-5h-2v-2l2,0Zm0-5h-2v-2l2,0Zm0-5h-2v-2l2,0Zm0-5h-2v-2l2,0Zm0-5h-2v-2l2,0Zm0-5h-2v-2l2,0Zm0-5h-2v-2l2,0Z"/><polygon class="cls-3" points="680.84 616.23 678.84 616.23 678.84 614.23 680.84 614.22 680.84 616.23"/><circle class="cls-4" cx="679.83" cy="263.27" r="16.77"/><path class="cls-2" d="M989.06,358.08l6.83-.7a5.84,5.84,0,0,0,1.74,3.67,4.71,4.71,0,0,0,3.32,1.36,4.61,4.61,0,0,0,3.63-1.75,7.9,7.9,0,0,0,1.49-5.26,7.25,7.25,0,0,0-1.47-4.95,5,5,0,0,0-3.85-1.64,7,7,0,0,0-5.3,2.61l-5.56-.81L993.4,332h18.14v6.42H998.6l-1.07,6.08a10.47,10.47,0,0,1,12.42,2.17,12,12,0,0,1,3.18,8.62,13,13,0,0,1-2.56,7.88,11.37,11.37,0,0,1-9.7,4.74,12,12,0,0,1-8.08-2.66A11,11,0,0,1,989.06,358.08Z"/><path class="cls-2" d="M1016.52,357.79l6.64-.8a6.28,6.28,0,0,0,1.71,3.88,4.7,4.7,0,0,0,3.37,1.34,4.64,4.64,0,0,0,3.58-1.61,6.25,6.25,0,0,0,1.45-4.35,5.82,5.82,0,0,0-1.39-4.1,4.43,4.43,0,0,0-3.39-1.51,12,12,0,0,0-3.15.51l.75-5.59a6,6,0,0,0,4.25-1.21,4.29,4.29,0,0,0,1.47-3.4,3.7,3.7,0,0,0-3.94-4,4.14,4.14,0,0,0-3,1.22,5.75,5.75,0,0,0-1.51,3.57L1017,340.7a14.36,14.36,0,0,1,2-5.19,9,9,0,0,1,3.72-3.05,12.43,12.43,0,0,1,5.33-1.11,10.69,10.69,0,0,1,8.11,3.22,8.45,8.45,0,0,1,2.51,6q0,4.71-5.15,7.52a8.34,8.34,0,0,1,4.92,2.95,8.58,8.58,0,0,1,1.84,5.55,10.76,10.76,0,0,1-3.44,8,12.85,12.85,0,0,1-16.63.52A11,11,0,0,1,1016.52,357.79Z"/><path class="cls-2" d="M1044.62,340.34q0-4.81,2.12-7.13a7.32,7.32,0,0,1,5.72-2.32,7.56,7.56,0,0,1,5.85,2.3c1.4,1.54,2.11,3.92,2.11,7.15s-.71,5.58-2.11,7.12a7.36,7.36,0,0,1-5.73,2.32,7.49,7.49,0,0,1-5.84-2.3Q1044.63,345.17,1044.62,340.34Zm5.35,0c0,2.32.27,3.89.81,4.68a1.91,1.91,0,0,0,1.68.88,2,2,0,0,0,1.71-.88c.52-.79.78-2.36.78-4.68s-.26-3.89-.78-4.67a2,2,0,0,0-1.71-.9,1.91,1.91,0,0,0-1.68.88C1050.24,336.4,1050,338,1050,340.29Zm7.71,28.37h-5.07l19.06-37.77h4.94Zm11.09-9.4q0-4.81,2.11-7.13a8.37,8.37,0,0,1,11.57,0q2.11,2.31,2.11,7.13t-2.11,7.15a7.34,7.34,0,0,1-5.72,2.32,7.51,7.51,0,0,1-5.85-2.32Q1068.76,364.09,1068.77,359.26Zm5.34,0c0,2.33.27,3.88.81,4.66a1.92,1.92,0,0,0,1.69.91,1.89,1.89,0,0,0,1.68-.88c.54-.8.81-2.36.81-4.69s-.27-3.89-.79-4.69a2,2,0,0,0-1.7-.87,1.91,1.91,0,0,0-1.69.87C1074.38,355.34,1074.11,356.9,1074.11,359.23Z"/><polygon class="cls-3" points="976.84 307.45 974.84 307.45 974.84 305.45 976.84 305.44 976.84 307.45"/><path class="cls-3" d="M976.83,611.26h-2v-2l2,0Zm0-5h-2v-2l2,0Zm0-5h-2v-2l2,0Zm0-5h-2v-2l2,0Zm0-5h-2v-2l2,0Zm0-5h-2v-2l2,0Zm0-5h-2v-2l2,0Zm0-5h-2v-2l2,0Zm0-5h-2v-2l2,0Zm0-5h-2v-2l2,0Zm0-5h-2v-2l2,0Zm0-5h-2v-2l2,0Zm0-5h-2v-2l2,0Zm0-5h-2v-2l2,0Zm0-5h-2v-2l2,0Zm0-5h-2v-2l2,0Zm0-5h-2v-2l2,0Zm0-5h-2v-2l2,0Zm0-5h-2v-2l2,0Zm0-5h-2v-2l2,0Zm0-5h-2v-2l2,0Zm0-5h-2v-2l2,0Zm0-5h-2v-2l2,0Zm0-5h-2v-2l2,0Zm0-5h-2v-2l2,0Zm0-5h-2v-2l2,0Zm0-5h-2v-2l2,0Zm0-5h-2v-2l2,0Zm0-5h-2v-2l2,0Zm0-5h-2v-2l2,0Zm0-5h-2v-2l2,0Zm0-5h-2v-2l2,0Zm0-5h-2v-2l2,0Zm0-5h-2v-2l2,0Zm0-5h-2v-2l2,0Zm0-5h-2v-2l2,0Zm0-5h-2v-2l2,0Zm0-5h-2v-2l2,0Zm0-5h-2v-2l2,0Zm0-5h-2v-2l2,0Zm0-5h-2v-2l2,0Zm0-5h-2v-2l2,0Zm0-5h-2v-2l2,0Zm0-5h-2v-2l2,0Zm0-5h-2v-2l2,0Zm0-5h-2v-2l2,0Zm0-5h-2v-2l2,0Zm0-5h-2v-2l2,0Zm0-5h-2v-2l2,0Zm0-5h-2v-2l2,0Zm0-5h-2v-2l2,0Zm0-5h-2v-2l2,0Zm0-5h-2v-2l2,0Zm0-5h-2v-2l2,0Zm0-5h-2v-2l2,0Zm0-5h-2v-2l2,0Zm0-5h-2v-2h2Zm0-5h-2v-2l2,0Zm0-5h-2v-2l2,0Zm0-5h-2v-2l2,0Zm0-5h-2v-2l2,0Z"/><polygon class="cls-3" points="976.84 616.23 974.84 616.23 974.84 614.23 976.84 614.22 976.84 616.23"/><circle class="cls-4" cx="976.83" cy="306.44" r="16.77"/></svg>