<svg id="Layer_1" data-name="Layer 1" xmlns="http://www.w3.org/2000/svg" viewBox="0 0 1298.46 863.93"><defs><style>.cls-1{fill:none;stroke-linecap:square;}.cls-1,.cls-4{stroke:#808285;stroke-miterlimit:10;stroke-width:4px;}.cls-2{fill:#808285;}.cls-3{fill:#585858;}.cls-4{fill:#fff;}</style></defs><title>all_charts_L13</title><polyline class="cls-1" points="86.41 34.63 88.04 34.63 88.04 38.1 101 38.1 101 39.24 122.08 39.24 122.08 40.42 123.67 40.42 123.67 41.56 128.56 41.56 128.56 42.75 133.42 42.75 133.42 43.89 138.27 43.89 138.27 45.03 143.12 45.03 143.12 46.22 147.97 46.22 147.97 47.37 149.6 47.37 149.6 48.54 156.09 48.54 156.09 53.15 159.31 53.15 159.31 56.62 162.57 56.62 162.57 57.81 164.2 57.81 164.2 58.95 165.79 58.95 165.79 60.13 172.27 60.13 172.27 61.27 178.75 61.27 178.75 62.41 191.72 62.41 191.72 65.92 193.35 65.92 193.35 68.25 194.98 68.25 194.98 70.54 196.57 70.54 196.57 71.72 198.2 71.72 198.2 72.86 203.05 72.86 203.05 74.05 204.69 74.05 204.69 75.19 209.54 75.19 209.54 76.33 211.16 76.33 211.16 77.51 212.8 77.51 212.8 82.12 214.39 82.12 214.39 85.63 216.02 85.63 216.02 87.91 217.64 87.91 217.64 91.43 219.28 91.43 219.28 93.75 220.88 93.75 220.88 99.54 222.5 99.54 222.5 105.33 224.13 105.33 224.13 112.31 225.76 112.31 225.76 121.65 227.35 121.65 227.35 125.12 228.98 125.12 230.62 125.12 230.62 127.44 232.2 127.44 232.2 129.81 233.83 129.81 233.83 130.95 235.46 130.95 235.46 132.13 251.65 132.13 251.65 133.31 258.14 133.31 258.14 135.64 259.76 135.64 259.76 136.82 262.98 136.82 262.98 137.97 267.87 137.97 267.87 139.14 287.29 139.14 287.29 140.32 292.17 140.32 292.17 141.47 301.88 141.47 301.88 142.65 303.51 142.65 303.51 143.83 305.11 143.83 305.11 144.98 311.59 144.98 311.59 146.16 314.85 146.16 314.85 147.34 316.47 147.34 316.47 148.52 321.32 148.52 321.32 149.66 326.18 149.66 326.18 152.03 340.78 152.03 340.78 153.17 345.62 153.17 345.62 155.53 348.85 155.53 348.85 156.68 350.48 156.68 350.48 160.18 353.7 160.18 353.7 161.37 355.33 161.37 355.33 163.74 356.97 163.74 356.97 164.88 358.6 164.88 358.6 170.75 360.18 170.75 360.18 176.57 361.82 176.57 361.82 178.93 363.44 178.93 363.44 180.08 365.07 180.08 365.07 181.27 366.67 181.27 366.67 182.44 368.3 182.44 368.3 184.78 369.93 184.78 371.55 184.78 371.55 185.95 373.15 185.95 373.15 187.14 374.77 187.14 374.77 188.28 379.63 188.28 379.63 189.46 389.37 189.46 389.37 190.65 390.97 190.65 390.97 191.82 395.85 191.82 395.85 194.15 399.08 194.15 399.08 195.33 413.67 195.33 413.67 196.51 420.14 196.51 420.14 197.69 421.75 197.69 421.75 198.84 425 198.84 425 200.01 429.86 200.01 429.86 201.2 431.49 201.2 431.49 202.38 436.33 202.38 441.19 202.38 441.19 203.56 460.64 203.56 460.64 204.71 470.33 204.71 470.33 205.89 471.96 205.89 471.96 207.07 484.94 207.07 484.94 209.44 486.55 209.44 486.55 210.62 488.15 210.62 488.15 212.94 489.77 212.94 489.77 215.3 491.41 215.3 491.41 216.49 494.63 216.49 494.63 218.85 496.26 218.85 496.26 222.36 497.89 222.36 497.89 227.08 502.75 227.08 502.75 228.26 504.37 228.26 504.37 229.45 507.6 229.45 507.6 230.62 509.23 230.62 509.23 231.81 518.93 231.81 518.93 232.99 522.2 232.99 522.2 234.17 531.9 234.17 531.9 235.36 548.09 235.36 548.09 236.54 570.79 236.54 570.79 237.72 586.98 237.72 586.98 238.9 603.17 238.9 617.75 238.9 619.39 238.9 620.98 238.9 620.98 240.08 622.61 240.08 624.24 240.08 624.24 241.3 627.47 241.3 627.47 242.48 629.1 242.48 629.1 243.7 630.73 243.7 630.73 247.33 632.36 247.33 632.36 250.94 633.95 250.94 633.95 252.16 635.59 252.16 635.59 253.42 637.22 253.42 637.22 254.64 638.8 254.64 642.05 254.64 642.05 255.94 643.69 255.94 645.29 255.94 645.29 257.2 646.91 257.2 650.17 257.2 651.77 257.2 651.77 258.52 655.02 258.52 656.66 258.52 658.25 258.52 661.51 258.52 661.51 259.86 666.36 259.86 666.36 261.2"/><path class="cls-2" d="M715.2,295.49l-6.64.73a4.83,4.83,0,0,0-1.27-3,3.7,3.7,0,0,0-2.66-1,4.52,4.52,0,0,0-3.68,1.95c-1,1.31-1.63,4-1.89,8.13a8,8,0,0,1,6.38-3,9.76,9.76,0,0,1,7.36,3.28,11.85,11.85,0,0,1,3.06,8.44,12.11,12.11,0,0,1-3.22,8.82,11.74,11.74,0,0,1-17.19-.89q-3.5-4.21-3.49-13.81,0-9.84,3.64-14.18a11.72,11.72,0,0,1,9.44-4.35,10,10,0,0,1,6.75,2.28A10.69,10.69,0,0,1,715.2,295.49Zm-15.55,15a7.73,7.73,0,0,0,1.54,5.16,4.51,4.51,0,0,0,3.51,1.82,4,4,0,0,0,3.18-1.49c.84-1,1.27-2.62,1.27-4.88s-.46-4-1.37-5.12a4.4,4.4,0,0,0-6.76-.07A6.74,6.74,0,0,0,699.65,310.46Z"/><path class="cls-2" d="M737.32,322.52h-6.86V296.66a23.56,23.56,0,0,1-8.86,5.2v-6.22a19.87,19.87,0,0,0,5.83-3.34,12.61,12.61,0,0,0,4.32-5.72h5.57Z"/><path class="cls-2" d="M747.62,295.56q0-4.8,2.12-7.13a7.35,7.35,0,0,1,5.72-2.31,7.53,7.53,0,0,1,5.85,2.3c1.4,1.54,2.11,3.92,2.11,7.14s-.71,5.59-2.11,7.13a7.36,7.36,0,0,1-5.73,2.32,7.5,7.5,0,0,1-5.84-2.31Q747.63,300.41,747.62,295.56Zm5.35,0c0,2.32.27,3.89.81,4.68a1.91,1.91,0,0,0,1.68.88,2,2,0,0,0,1.71-.88c.52-.79.78-2.36.78-4.68s-.26-3.89-.78-4.67a2,2,0,0,0-1.71-.9,1.91,1.91,0,0,0-1.68.88C753.24,291.63,753,293.19,753,295.52Zm7.71,28.36h-5.07l19.06-37.76h4.94Zm11.09-9.39q0-4.82,2.11-7.13a8.37,8.37,0,0,1,11.57,0q2.12,2.31,2.11,7.13t-2.11,7.15a7.37,7.37,0,0,1-5.72,2.32,7.54,7.54,0,0,1-5.85-2.32Q771.77,319.31,771.77,314.49Zm5.34,0c0,2.33.27,3.88.81,4.66a2,2,0,0,0,3.37,0c.54-.8.81-2.36.81-4.69s-.27-3.89-.79-4.69a2,2,0,0,0-1.7-.88,1.92,1.92,0,0,0-1.69.88C777.38,310.57,777.11,312.13,777.11,314.46Z"/><polygon class="cls-3" points="680.83 262.21 678.83 262.21 678.83 260.21 680.83 260.2 680.83 262.21"/><path class="cls-3" d="M680.83,611.26h-2v-2l2,0Zm0-5h-2v-2l2,0Zm0-5h-2v-2l2,0Zm0-5h-2v-2l2,0Zm0-5h-2v-2l2,0Zm0-5h-2v-2l2,0Zm0-5h-2v-2l2,0Zm0-5h-2v-2l2,0Zm0-5h-2v-2l2,0Zm0-5h-2v-2l2,0Zm0-5h-2v-2l2,0Zm0-5h-2v-2l2,0Zm0-5h-2v-2l2,0Zm0-5h-2v-2l2,0Zm0-5h-2v-2l2,0Zm0-5h-2v-2l2,0Zm0-5h-2v-2l2,0Zm0-5h-2v-2l2,0Zm0-5h-2v-2l2,0Zm0-5h-2v-2l2,0Zm0-5h-2v-2l2,0Zm0-5h-2v-2l2,0Zm0-5h-2v-2l2,0Zm0-5h-2v-2l2,0Zm0-5h-2v-2l2,0Zm0-5h-2v-2l2,0Zm0-5h-2v-2l2,0Zm0-5h-2v-2l2,0Zm0-5h-2v-2l2,0Zm0-5h-2v-2l2,0Zm0-5h-2v-2l2,0Zm0-5h-2v-2l2,0Zm0-5h-2v-2l2,0Zm0-5h-2v-2l2,0Zm0-5h-2v-2l2,0Zm0-5h-2v-2l2,0Zm0-5h-2v-2l2,0Zm0-5h-2v-2l2,0Zm0-5h-2v-2l2,0Zm0-5h-2v-2l2,0Zm0-5h-2v-2l2,0Zm0-5h-2v-2l2,0Zm0-5h-2v-2l2,0Zm0-5h-2v-2l2,0Zm0-5h-2v-2l2,0Zm0-5h-2v-2l2,0Zm0-5h-2v-2l2,0Zm0-5h-2v-2l2,0Zm0-5h-2v-2l2,0Zm0-5h-2v-2l2,0Zm0-5h-2v-2l2,0Zm0-5h-2v-2l2,0Zm0-5h-2v-2l2,0Zm0-5h-2v-2l2,0Zm0-5h-2v-2l2,0Zm0-5h-2v-2l2,0Zm0-5h-2v-2l2,0Zm0-5h-2v-2l2,0Zm0-5h-2v-2l2,0Zm0-5h-2v-2l2,0Zm0-5h-2v-2l2,0Zm0-5h-2v-2l2,0Zm0-5h-2v-2l2,0Zm0-5h-2v-2l2,0Zm0-5h-2v-2l2,0Zm0-5h-2v-2l2,0Zm0-5h-2v-2l2,0Zm0-5h-2v-2l2,0Zm0-5h-2v-2l2,0Zm0-5h-2v-2l2,0Z"/><polygon class="cls-3" points="680.83 616.23 678.83 616.23 678.83 614.23 680.83 614.22 680.83 616.23"/><circle class="cls-4" cx="679.83" cy="263.27" r="16.77"/></svg>