<svg id="Layer_1" data-name="Layer 1" xmlns="http://www.w3.org/2000/svg" viewBox="0 0 1298.46 863.93"><defs><style>.cls-1,.cls-2{fill:none;stroke-linecap:square;}.cls-1,.cls-5{stroke:#808285;}.cls-1,.cls-2,.cls-5,.cls-7{stroke-miterlimit:10;stroke-width:4px;}.cls-2,.cls-7{stroke:#6cc04a;}.cls-3{fill:#808285;}.cls-4{fill:#585858;}.cls-5,.cls-7{fill:#fff;}.cls-6{fill:#48a548;}</style></defs><title>all_charts_L13</title><polyline class="cls-1" points="86.41 34.63 88.04 34.63 88.04 38.1 101 38.1 101 39.24 122.08 39.24 122.08 40.42 123.67 40.42 123.67 41.56 128.56 41.56 128.56 42.75 133.42 42.75 133.42 43.89 138.27 43.89 138.27 45.03 143.12 45.03 143.12 46.22 147.97 46.22 147.97 47.37 149.6 47.37 149.6 48.54 156.09 48.54 156.09 53.15 159.31 53.15 159.31 56.62 162.57 56.62 162.57 57.81 164.2 57.81 164.2 58.95 165.79 58.95 165.79 60.13 172.27 60.13 172.27 61.27 178.75 61.27 178.75 62.41 191.72 62.41 191.72 65.92 193.35 65.92 193.35 68.25 194.98 68.25 194.98 70.54 196.57 70.54 196.57 71.72 198.2 71.72 198.2 72.86 203.05 72.86 203.05 74.05 204.69 74.05 204.69 75.19 209.54 75.19 209.54 76.33 211.16 76.33 211.16 77.51 212.8 77.51 212.8 82.12 214.39 82.12 214.39 85.63 216.02 85.63 216.02 87.91 217.64 87.91 217.64 91.43 219.28 91.43 219.28 93.75 220.88 93.75 220.88 99.54 222.5 99.54 222.5 105.33 224.13 105.33 224.13 112.31 225.76 112.31 225.76 121.65 227.35 121.65 227.35 125.12 228.98 125.12 230.62 125.12 230.62 127.44 232.2 127.44 232.2 129.81 233.83 129.81 233.83 130.95 235.46 130.95 235.46 132.13 251.65 132.13 251.65 133.31 258.14 133.31 258.14 135.64 259.76 135.64 259.76 136.82 262.98 136.82 262.98 137.97 267.87 137.97 267.87 139.14 287.29 139.14 287.29 140.32 292.17 140.32 292.17 141.47 301.88 141.47 301.88 142.65 303.51 142.65 303.51 143.83 305.11 143.83 305.11 144.98 311.59 144.98 311.59 146.16 314.85 146.16 314.85 147.34 316.47 147.34 316.47 148.52 321.32 148.52 321.32 149.66 326.18 149.66 326.18 152.03 340.78 152.03 340.78 153.17 345.62 153.17 345.62 155.53 348.85 155.53 348.85 156.68 350.48 156.68 350.48 160.18 353.7 160.18 353.7 161.37 355.33 161.37 355.33 163.74 356.97 163.74 356.97 164.88 358.6 164.88 358.6 170.75 360.18 170.75 360.18 176.57 361.82 176.57 361.82 178.93 363.44 178.93 363.44 180.08 365.07 180.08 365.07 181.27 366.67 181.27 366.67 182.44 368.3 182.44 368.3 184.78 369.93 184.78 371.55 184.78 371.55 185.95 373.15 185.95 373.15 187.14 374.77 187.14 374.77 188.28 379.63 188.28 379.63 189.46 389.37 189.46 389.37 190.65 390.97 190.65 390.97 191.82 395.85 191.82 395.85 194.15 399.08 194.15 399.08 195.33 413.67 195.33 413.67 196.51 420.14 196.51 420.14 197.69 421.75 197.69 421.75 198.84 425 198.84 425 200.01 429.86 200.01 429.86 201.2 431.49 201.2 431.49 202.38 436.33 202.38 441.19 202.38 441.19 203.56 460.64 203.56 460.64 204.71 470.33 204.71 470.33 205.89 471.96 205.89 471.96 207.07 484.94 207.07 484.94 209.44 486.55 209.44 486.55 210.62 488.15 210.62 488.15 212.94 489.77 212.94 489.77 215.3 491.41 215.3 491.41 216.49 494.63 216.49 494.63 218.85 496.26 218.85 496.26 222.36 497.89 222.36 497.89 227.08 502.75 227.08 502.75 228.26 504.37 228.26 504.37 229.45 507.6 229.45 507.6 230.62 509.23 230.62 509.23 231.81 518.93 231.81 518.93 232.99 522.2 232.99 522.2 234.17 531.9 234.17 531.9 235.36 548.09 235.36 548.09 236.54 570.79 236.54 570.79 237.72 586.98 237.72 586.98 238.9 603.17 238.9 617.75 238.9 619.39 238.9 620.98 238.9 620.98 240.08 622.61 240.08 624.24 240.08 624.24 241.3 627.47 241.3 627.47 242.48 629.1 242.48 629.1 243.7 630.73 243.7 630.73 247.33 632.36 247.33 632.36 250.94 633.95 250.94 633.95 252.16 635.59 252.16 635.59 253.42 637.22 253.42 637.22 254.64 638.8 254.64 642.05 254.64 642.05 255.94 643.69 255.94 645.29 255.94 645.29 257.2 646.91 257.2 650.17 257.2 651.77 257.2 651.77 258.52 655.02 258.52 656.66 258.52 658.25 258.52 661.51 258.52 661.51 259.86 666.36 259.86 666.36 261.2 690.66 261.2 697.15 261.2 700.37 261.2 702 261.2 703.63 261.2 703.63 263.9 705.25 263.9 706.86 263.9 708.47 263.9 710.11 263.9 711.7 263.9 711.7 265.31 713.33 265.31 713.33 266.76 714.95 266.76 718.18 266.76 718.18 268.21 719.81 268.21 721.44 268.21 721.44 269.7 723.07 269.7 723.07 272.82 724.66 272.82 727.93 272.82 729.55 272.82 729.55 274.43 731.15 274.43 732.77 274.43 734.41 274.43 736.01 274.43 737.63 274.43 739.26 274.43 742.47 274.43 744.11 274.43 745.74 274.43 752.23 274.43 752.23 276.14 755.45 276.14 757.08 276.14 758.69 276.14 760.3 276.14 761.92 276.14 765.19 276.14 771.67 276.14 773.26 276.14 774.88 276.14 776.52 276.14 778.15 276.14 779.74 276.14 781.38 276.14 783 276.14 784.6 276.14 794.35 276.14 799.18 276.14 804.04 276.14 807.3 276.14 810.53 276.14 810.53 278.2 812.15 278.2 812.15 280.25 813.79 280.25 825.11 280.25 825.11 282.39 831.61 282.39 833.19 282.39 834.83 282.39 836.45 282.39 838.09 282.39 839.68 282.39 842.94 282.39 844.57 282.39 846.17 282.39 846.17 284.68 847.8 284.68 849.42 284.68 851.06 284.68 851.06 287.23 852.65 287.23 854.28 287.23 855.91 287.23 857.49 287.23 857.49 289.98 859.13 289.98 860.76 289.98 862.38 289.98 862.38 292.99 863.99 292.99 865.61 292.99 867.24 292.99 868.86 292.99 870.46 292.99 872.09 292.99 875.35 292.99 878.58 292.99 880.21 292.99 881.8 292.99 883.43 292.99 883.43 296.69 885.06 296.69 888.29 296.69 893.16 296.69 894.76 296.69 898.02 296.69 899.65 296.69 902.87 296.69 914.22 296.69 915.83 296.69 919.05 296.69 920.69 296.69 925.54 296.69 927.18 296.69 927.18 301.3 928.8 301.3 932.03 301.3 945 301.3 953.1 301.3 961.17 301.3 967.66 301.3 967.66 306.44 977.39 306.44 980.63 306.44 982.26 306.44 983.88 306.44 985.47 306.44 985.47 312.39 987.11 312.39 988.74 312.39 990.37 312.39 993.58 312.39 995.22 312.39 1000.08 312.39 1003.3 312.39 1006.56 312.39 1008.2 312.39 1013.04 312.39 1014.66 312.39 1022.74 312.39 1025.99 312.39 1029.22 312.39 1032.49 312.39 1040.57 312.39 1040.57 322.49 1043.81 322.49 1045.45 322.49 1051.89 322.49 1053.52 322.49 1066.49 322.49 1081.08 322.49 1087.56 322.49 1092.42 322.49 1092.42 337.12 1095.64 337.12 1108.62 337.12 1113.45 337.12 1121.57 337.12 1123.2 337.12 1132.91 337.12 1137.76 337.12 1139.39 337.12 1142.65 337.12 1144.23 337.12 1147.5 337.12 1152.35 337.12 1153.98 337.12 1166.95 337.12 1173.4 337.12 1189.62 337.12 1209.07 337.12 1243.07 337.12"/><polyline class="cls-2" points="86.41 34.63 88.04 34.63 88.04 40.31 104.26 40.31 104.26 41.45 118.82 41.45 118.82 42.6 120.45 42.6 120.45 43.74 125.3 43.74 125.3 47.17 130.16 47.17 130.16 48.32 131.78 48.32 131.78 50.6 139.9 50.6 139.9 51.74 146.38 51.74 146.38 52.89 156.09 52.89 156.09 54.03 159.31 54.03 159.31 55.17 160.94 55.17 160.94 56.31 164.2 56.31 164.2 57.46 172.27 57.46 172.27 58.6 190.09 58.6 190.09 60.93 191.72 60.93 191.72 62.08 193.35 62.08 193.35 63.22 204.69 63.22 204.69 64.36 211.16 64.36 211.16 65.5 212.8 65.5 212.8 67.79 214.39 67.79 214.39 68.93 216.02 68.93 216.02 71.22 217.64 71.22 217.64 73.51 219.28 73.51 220.88 73.51 220.88 75.8 222.5 75.8 222.5 79.26 224.13 79.26 224.13 93.02 225.76 93.02 225.76 98.79 227.35 98.79 227.35 101.07 228.98 101.07 228.98 106.82 230.62 106.82 230.62 109.12 232.2 109.12 232.2 110.25 233.83 110.25 233.83 111.44 235.46 111.44 237.1 111.44 237.1 112.57 245.18 112.57 245.18 113.72 251.65 113.72 251.65 114.86 275.94 114.86 275.94 116.05 280.8 116.05 280.8 117.19 290.55 117.19 290.55 118.33 326.18 118.33 326.18 119.48 331.03 119.48 331.03 120.66 332.66 120.66 332.66 121.81 337.51 121.81 337.51 122.95 345.62 122.95 345.62 124.09 350.48 124.09 356.97 124.09 356.97 126.42 360.18 126.42 360.18 128.74 361.82 128.74 361.82 133.35 365.07 133.35 365.07 134.5 374.77 134.5 374.77 135.68 378 135.68 378 136.82 379.63 136.82 379.63 137.97 386.11 137.97 386.11 139.15 387.75 139.15 413.67 139.15 413.67 140.29 426.61 140.29 426.61 141.44 429.86 141.44 429.86 142.62 439.57 142.62 439.57 143.76 460.64 143.76 460.64 144.9 463.86 144.9 463.86 146.08 468.74 146.08 468.74 147.23 473.6 147.23 473.6 148.41 486.55 148.41 486.55 149.55 497.89 149.55 497.89 150.69 505.97 150.69 505.97 151.88 512.45 151.88 512.45 153.02 515.71 153.02 515.71 154.2 517.35 154.2 517.35 155.35 518.93 155.35 518.93 156.53 522.2 156.53 522.2 157.67 531.9 157.67 531.9 158.85 546.5 158.85 546.5 160.04 549.72 160.04 549.72 161.18 559.46 161.18 559.46 162.36 564.31 162.36 564.31 163.5 583.75 163.5 583.75 164.69 586.98 164.69 586.98 165.86 598.32 165.86 608.06 165.86 611.29 165.86 612.9 165.86 616.14 165.86 617.75 165.86 619.39 165.86 620.98 165.86 625.87 165.86 627.47 165.86 629.1 165.86 630.73 165.86 632.36 165.86 632.36 167.09 633.95 167.09 633.95 168.35 635.59 168.35 637.22 168.35 637.22 169.6 638.8 169.6 640.44 169.6 640.44 170.94 642.05 170.94 643.69 170.94 643.69 172.23 645.29 172.23 645.29 173.56 648.54 173.56 650.17 173.56 650.17 174.9 659.88 174.9 661.51 174.9 663.11 174.9 666.36 174.9 666.36 176.28 667.98 176.28 671.21 176.28 671.21 177.64 672.84 177.64 674.46 177.64 677.69 177.64 682.54 177.64 687.4 177.64 689.03 177.64 690.66 177.64 700.37 177.64 702 177.64 703.63 177.64 705.25 177.64 706.86 177.64 708.47 177.64 710.11 177.64 711.7 177.64 713.33 177.64 713.33 179.17 714.95 179.17 716.59 179.17 716.59 180.73 718.18 180.73 719.81 180.73 721.44 180.73 721.44 182.34 723.07 182.34 723.07 183.97 724.66 183.97 727.93 183.97 729.55 183.97 731.15 183.97 732.77 183.97 734.41 183.97 737.63 183.97 740.89 183.97 742.47 183.97 744.11 183.97 745.74 183.97 747.37 183.97 752.23 183.97 752.23 185.84 755.45 185.84 757.08 185.84 758.69 185.84 761.92 185.84 763.56 185.84 765.19 185.84 766.77 185.84 768.4 185.84 770.04 185.84 770.04 187.82 774.88 187.82 776.52 187.82 778.15 187.82 779.74 187.82 781.38 187.82 783 187.82 784.6 187.82 792.72 187.82 794.35 187.82 795.97 187.82 797.58 187.82 797.58 190 799.18 190 804.04 190 805.67 190 807.3 190 810.53 190 820.26 190 821.87 190 823.5 190 823.5 192.28 825.11 192.28 826.75 192.28 828.34 192.28 829.97 192.28 829.97 194.65 833.19 194.65 834.83 194.65 838.09 194.65 839.68 194.65 841.31 194.65 844.57 194.65 846.17 194.65 847.8 194.65 849.42 194.65 851.06 194.65 852.65 194.65 854.28 194.65 855.91 194.65 857.49 194.65 859.13 194.65 860.76 194.65 862.38 194.65 863.99 194.65 863.99 197.73 865.61 197.73 867.24 197.73 868.86 197.73 870.46 197.73 873.72 197.73 873.72 200.97 875.35 200.97 878.58 200.97 880.21 200.97 881.8 200.97 883.43 200.97 885.06 200.97 886.68 200.97 888.29 200.97 889.92 200.97 891.54 200.97 894.76 200.97 898.02 200.97 899.65 200.97 902.87 200.97 904.51 200.97 906.1 200.97 907.73 200.97 909.36 200.97 910.98 200.97 914.22 200.97 915.83 200.97 919.05 200.97 922.33 200.97 928.8 200.97 930.39 200.97 935.29 200.97 938.51 200.97 940.14 200.97 941.77 200.97 943.36 200.97 954.71 200.97 956.32 200.97 961.17 200.97 972.55 200.97 974.15 200.97 975.77 200.97 979 200.97 980.63 200.97 982.26 200.97 983.88 200.97 985.47 200.97 987.11 200.97 990.37 200.97 995.22 200.97 996.85 200.97 1000.08 200.97 1003.3 200.97 1011.42 200.97 1016.27 200.97 1016.27 209.97 1017.89 209.97 1024.38 209.97 1029.22 209.97 1030.86 209.97 1034.08 209.97 1040.57 209.97 1042.2 209.97 1045.45 209.97 1048.67 209.97 1077.82 209.97 1081.08 209.97 1084.31 209.97 1092.42 209.97 1095.64 209.97 1097.27 209.97 1098.91 209.97 1102.13 209.97 1110.23 209.97 1116.72 209.97 1118.35 209.97 1119.94 209.97 1123.2 209.97 1124.8 209.97 1126.42 209.97 1128.06 209.97 1136.16 209.97 1139.39 209.97 1145.87 209.97 1175.03 209.97 1178.28 209.97 1181.51 209.97 1252.78 209.97"/><path class="cls-3" d="M715.2,295.49l-6.64.73a4.83,4.83,0,0,0-1.27-3,3.7,3.7,0,0,0-2.66-1,4.52,4.52,0,0,0-3.68,1.95c-1,1.31-1.63,4-1.89,8.13a8,8,0,0,1,6.37-3,9.76,9.76,0,0,1,7.37,3.28,11.85,11.85,0,0,1,3.06,8.44,12.11,12.11,0,0,1-3.22,8.82,11.74,11.74,0,0,1-17.19-.89q-3.5-4.21-3.49-13.81,0-9.84,3.64-14.18a11.72,11.72,0,0,1,9.44-4.35,10,10,0,0,1,6.75,2.28A10.69,10.69,0,0,1,715.2,295.49Zm-15.55,15a7.73,7.73,0,0,0,1.54,5.16,4.51,4.51,0,0,0,3.51,1.82,4,4,0,0,0,3.18-1.49c.84-1,1.27-2.62,1.27-4.88s-.46-4-1.37-5.12a4.4,4.4,0,0,0-6.76-.07A6.69,6.69,0,0,0,699.65,310.46Z"/><path class="cls-3" d="M737.32,322.52h-6.86V296.66a23.56,23.56,0,0,1-8.86,5.2v-6.22a19.87,19.87,0,0,0,5.83-3.34,12.61,12.61,0,0,0,4.32-5.72h5.57Z"/><path class="cls-3" d="M747.62,295.56c0-3.2.71-5.58,2.11-7.13a7.39,7.39,0,0,1,5.73-2.31,7.53,7.53,0,0,1,5.85,2.3c1.4,1.54,2.11,3.92,2.11,7.14s-.71,5.59-2.11,7.13a7.36,7.36,0,0,1-5.73,2.32,7.53,7.53,0,0,1-5.85-2.31C748.33,301.17,747.62,298.79,747.62,295.56Zm5.35,0c0,2.32.27,3.89.8,4.68a1.94,1.94,0,0,0,1.69.88,2,2,0,0,0,1.71-.88c.52-.79.78-2.36.78-4.68s-.26-3.89-.78-4.67a2.07,2.07,0,0,0-3.4,0C753.24,291.63,753,293.19,753,295.52Zm7.71,28.36h-5.07l19.06-37.76h4.93Zm11.09-9.39q0-4.82,2.11-7.13a8.37,8.37,0,0,1,11.57,0q2.12,2.31,2.11,7.13t-2.11,7.15a7.37,7.37,0,0,1-5.72,2.32,7.54,7.54,0,0,1-5.85-2.32Q771.77,319.31,771.77,314.49Zm5.34,0c0,2.33.27,3.88.81,4.66a2,2,0,0,0,3.37,0c.54-.8.8-2.36.8-4.69s-.26-3.89-.78-4.69a2,2,0,0,0-1.71-.88,1.91,1.91,0,0,0-1.68.88C777.38,310.57,777.11,312.13,777.11,314.46Z"/><polygon class="cls-4" points="680.84 195.27 678.84 195.27 678.84 193.27 680.84 193.26 680.84 195.27"/><path class="cls-4" d="M680.83,611.23h-2v-2l2,0Zm0-5h-2v-2l2,0Zm0-5h-2v-2l2,0Zm0-5h-2v-2l2,0Zm0-5h-2v-2l2,0Zm0-5h-2v-2l2,0Zm0-5h-2v-2l2,0Zm0-5h-2v-2l2,0Zm0-5h-2v-2l2,0Zm0-5h-2v-2l2,0Zm0-5h-2v-2l2,0Zm0-5h-2v-2l2,0Zm0-5h-2v-2l2,0Zm0-5h-2v-2l2,0Zm0-5h-2v-2l2,0Zm0-5h-2v-2l2,0Zm0-5h-2v-2l2,0Zm0-5h-2v-2l2,0Zm0-5h-2v-2l2,0Zm0-5h-2v-2l2,0Zm0-5h-2v-2l2,0Zm0-5h-2v-2l2,0Zm0-5h-2v-2l2,0Zm0-5h-2v-2l2,0Zm0-5h-2v-2l2,0Zm0-5h-2v-2l2,0Zm0-5h-2v-2l2,0Zm0-5h-2v-2l2,0Zm0-5h-2v-2l2,0Zm0-5h-2v-2l2,0Zm0-5h-2v-2l2,0Zm0-5h-2v-2l2,0Zm0-5h-2v-2l2,0Zm0-5h-2v-2l2,0Zm0-5h-2v-2l2,0Zm0-5h-2v-2l2,0Zm0-5h-2v-2l2,0Zm0-5h-2v-2l2,0Zm0-5h-2v-2l2,0Zm0-5h-2v-2l2,0Zm0-5h-2v-2l2,0Zm0-5h-2v-2l2,0Zm0-5h-2v-2l2,0Zm0-5h-2v-2l2,0Zm0-5h-2v-2l2,0Zm0-5h-2v-2l2,0Zm0-5h-2v-2l2,0Zm0-5h-2v-2l2,0Zm0-5h-2v-2l2,0Zm0-5h-2v-2l2,0Zm0-5h-2v-2l2,0Zm0-5h-2v-2l2,0Zm0-5h-2v-2l2,0Zm0-5h-2v-2l2,0Zm0-5h-2v-2l2,0Zm0-5h-2v-2l2,0Zm0-5h-2v-2l2,0Zm0-5h-2v-2l2,0Zm0-5h-2v-2l2,0Zm0-5h-2v-2l2,0Zm0-5h-2v-2l2,0Zm0-5h-2v-2l2,0Zm0-5h-2v-2l2,0Zm0-5h-2v-2l2,0Zm0-5h-2v-2l2,0Zm0-5h-2v-2l2,0Zm0-5h-2v-2l2,0Zm0-5h-2v-2l2,0Zm0-5h-2v-2l2,0Zm0-5h-2v-2l2,0Zm0-5h-2v-2l2,0Zm0-5h-2v-2l2,0Zm0-5h-2v-2l2,0Zm0-5h-2v-2l2,0Zm0-5h-2v-2l2,0Zm0-5h-2v-2l2,0Zm0-5h-2v-2l2,0Zm0-5h-2v-2l2,0Zm0-5h-2v-2l2,0Zm0-5h-2v-2l2,0Zm0-5h-2v-2l2,0Zm0-5h-2v-2l2,0Zm0-5h-2v-2l2,0Z"/><polygon class="cls-4" points="680.84 616.23 678.84 616.23 678.84 614.23 680.84 614.22 680.84 616.23"/><circle class="cls-5" cx="679.83" cy="263.27" r="16.77"/><path class="cls-6" d="M692,124.23v-6.37h23.46v5a36.82,36.82,0,0,0-5.91,8.21,47.85,47.85,0,0,0-4.58,11.36,42.43,42.43,0,0,0-1.55,10.76h-6.61A45.84,45.84,0,0,1,699.83,138a50.74,50.74,0,0,1,7.73-13.8Z"/><path class="cls-6" d="M719.86,144l6.84-.71a5.91,5.91,0,0,0,1.73,3.68,4.72,4.72,0,0,0,3.32,1.35,4.62,4.62,0,0,0,3.64-1.74,8,8,0,0,0,1.49-5.26,7.2,7.2,0,0,0-1.48-4.95,4.9,4.9,0,0,0-3.84-1.65,7,7,0,0,0-5.3,2.62l-5.57-.81,3.52-18.63h18.14v6.42H729.41l-1.08,6.08a10.45,10.45,0,0,1,4.69-1.14,10.26,10.26,0,0,1,7.74,3.32,11.92,11.92,0,0,1,3.18,8.61,12.92,12.92,0,0,1-2.57,7.89,11.36,11.36,0,0,1-9.69,4.74,12,12,0,0,1-8.08-2.67A11,11,0,0,1,719.86,144Z"/><path class="cls-6" d="M747.62,126.21c0-3.2.71-5.58,2.11-7.13a7.39,7.39,0,0,1,5.73-2.32,7.53,7.53,0,0,1,5.85,2.31c1.4,1.54,2.11,3.92,2.11,7.14s-.71,5.59-2.11,7.13a7.36,7.36,0,0,1-5.73,2.32,7.53,7.53,0,0,1-5.85-2.31C748.33,131.82,747.62,129.43,747.62,126.21Zm5.35,0c0,2.33.27,3.89.8,4.69a1.94,1.94,0,0,0,1.69.88,2,2,0,0,0,1.71-.88c.52-.8.78-2.36.78-4.69s-.26-3.88-.78-4.66a2.07,2.07,0,0,0-3.4,0C753.24,122.27,753,123.84,753,126.16Zm7.71,28.37h-5.07l19.06-37.77h4.93Zm11.09-9.4q0-4.8,2.11-7.13a8.37,8.37,0,0,1,11.57,0q2.12,2.33,2.11,7.13c0,3.23-.7,5.61-2.11,7.16a7.37,7.37,0,0,1-5.72,2.32,7.54,7.54,0,0,1-5.85-2.32C772.47,150.74,771.77,148.36,771.77,145.13Zm5.34,0c0,2.33.27,3.88.81,4.66a1.94,1.94,0,0,0,1.68.91,1.92,1.92,0,0,0,1.69-.88c.54-.8.8-2.36.8-4.69s-.26-3.89-.78-4.69a2,2,0,0,0-1.71-.88,1.91,1.91,0,0,0-1.68.88C777.38,141.22,777.11,142.78,777.11,145.11Z"/><circle class="cls-7" cx="679.83" cy="177.64" r="16.77"/><path class="cls-3" d="M989.06,358.08l6.83-.7a5.84,5.84,0,0,0,1.74,3.67,4.69,4.69,0,0,0,3.32,1.36,4.61,4.61,0,0,0,3.63-1.75,7.9,7.9,0,0,0,1.49-5.26,7.25,7.25,0,0,0-1.47-4.95,5,5,0,0,0-3.85-1.64,7,7,0,0,0-5.3,2.61l-5.56-.81L993.4,332h18.14v6.42H998.6l-1.07,6.08a10.47,10.47,0,0,1,12.42,2.17,12,12,0,0,1,3.18,8.62,13,13,0,0,1-2.56,7.88,11.37,11.37,0,0,1-9.7,4.74,12,12,0,0,1-8.08-2.66A11,11,0,0,1,989.06,358.08Z"/><path class="cls-3" d="M1016.52,357.79l6.64-.8a6.28,6.28,0,0,0,1.71,3.88,4.7,4.7,0,0,0,3.37,1.34,4.64,4.64,0,0,0,3.58-1.61,6.25,6.25,0,0,0,1.45-4.35,5.82,5.82,0,0,0-1.39-4.1,4.44,4.44,0,0,0-3.4-1.51,12.15,12.15,0,0,0-3.15.51l.76-5.59a6,6,0,0,0,4.25-1.21,4.29,4.29,0,0,0,1.47-3.4,3.7,3.7,0,0,0-3.94-4,4.14,4.14,0,0,0-3,1.22,5.75,5.75,0,0,0-1.51,3.57L1017,340.7a14.36,14.36,0,0,1,2-5.19,9.06,9.06,0,0,1,3.71-3.05,12.51,12.51,0,0,1,5.34-1.11,10.65,10.65,0,0,1,8.1,3.22,8.42,8.42,0,0,1,2.52,6q0,4.71-5.15,7.52a8.34,8.34,0,0,1,4.92,2.95,8.58,8.58,0,0,1,1.84,5.55,10.76,10.76,0,0,1-3.44,8,12.85,12.85,0,0,1-16.63.52A11,11,0,0,1,1016.52,357.79Z"/><path class="cls-3" d="M1044.62,340.34c0-3.21.71-5.59,2.11-7.13a7.36,7.36,0,0,1,5.73-2.32,7.56,7.56,0,0,1,5.85,2.3c1.4,1.54,2.11,3.92,2.11,7.15s-.71,5.58-2.11,7.12a7.36,7.36,0,0,1-5.73,2.32,7.53,7.53,0,0,1-5.85-2.3C1045.33,345.94,1044.62,343.56,1044.62,340.34Zm5.35,0c0,2.32.27,3.89.8,4.68a1.94,1.94,0,0,0,1.69.88,2,2,0,0,0,1.71-.88c.52-.79.78-2.36.78-4.68s-.26-3.89-.78-4.67a2.07,2.07,0,0,0-3.4,0C1050.24,336.4,1050,338,1050,340.29Zm7.71,28.37h-5.07l19.06-37.77h4.93Zm11.09-9.4q0-4.81,2.11-7.13a8.37,8.37,0,0,1,11.57,0q2.11,2.31,2.11,7.13t-2.11,7.15a7.34,7.34,0,0,1-5.72,2.32,7.51,7.51,0,0,1-5.85-2.32Q1068.76,364.09,1068.77,359.26Zm5.34,0c0,2.33.27,3.88.81,4.66a1.92,1.92,0,0,0,1.68.91,1.89,1.89,0,0,0,1.69-.88c.54-.8.8-2.36.8-4.69s-.26-3.89-.78-4.69a2,2,0,0,0-1.71-.87,1.9,1.9,0,0,0-1.68.87C1074.38,355.34,1074.11,356.9,1074.11,359.23Z"/><polygon class="cls-4" points="976.84 195.27 974.84 195.27 974.84 193.27 976.84 193.26 976.84 195.27"/><path class="cls-4" d="M976.83,611.23h-2v-2l2,0Zm0-5h-2v-2l2,0Zm0-5h-2v-2l2,0Zm0-5h-2v-2l2,0Zm0-5h-2v-2l2,0Zm0-5h-2v-2l2,0Zm0-5h-2v-2l2,0Zm0-5h-2v-2l2,0Zm0-5h-2v-2l2,0Zm0-5h-2v-2l2,0Zm0-5h-2v-2l2,0Zm0-5h-2v-2l2,0Zm0-5h-2v-2l2,0Zm0-5h-2v-2l2,0Zm0-5h-2v-2l2,0Zm0-5h-2v-2l2,0Zm0-5h-2v-2l2,0Zm0-5h-2v-2l2,0Zm0-5h-2v-2l2,0Zm0-5h-2v-2l2,0Zm0-5h-2v-2l2,0Zm0-5h-2v-2l2,0Zm0-5h-2v-2l2,0Zm0-5h-2v-2l2,0Zm0-5h-2v-2l2,0Zm0-5h-2v-2l2,0Zm0-5h-2v-2l2,0Zm0-5h-2v-2l2,0Zm0-5h-2v-2l2,0Zm0-5h-2v-2l2,0Zm0-5h-2v-2l2,0Zm0-5h-2v-2l2,0Zm0-5h-2v-2l2,0Zm0-5h-2v-2l2,0Zm0-5h-2v-2l2,0Zm0-5h-2v-2l2,0Zm0-5h-2v-2l2,0Zm0-5h-2v-2l2,0Zm0-5h-2v-2l2,0Zm0-5h-2v-2l2,0Zm0-5h-2v-2l2,0Zm0-5h-2v-2l2,0Zm0-5h-2v-2l2,0Zm0-5h-2v-2l2,0Zm0-5h-2v-2l2,0Zm0-5h-2v-2l2,0Zm0-5h-2v-2l2,0Zm0-5h-2v-2l2,0Zm0-5h-2v-2l2,0Zm0-5h-2v-2l2,0Zm0-5h-2v-2l2,0Zm0-5h-2v-2l2,0Zm0-5h-2v-2l2,0Zm0-5h-2v-2l2,0Zm0-5h-2v-2l2,0Zm0-5h-2v-2l2,0Zm0-5h-2v-2l2,0Zm0-5h-2v-2l2,0Zm0-5h-2v-2l2,0Zm0-5h-2v-2l2,0Zm0-5h-2v-2l2,0Zm0-5h-2v-2l2,0Zm0-5h-2v-2l2,0Zm0-5h-2v-2l2,0Zm0-5h-2v-2l2,0Zm0-5h-2v-2l2,0Zm0-5h-2v-2l2,0Zm0-5h-2v-2l2,0Zm0-5h-2v-2l2,0Zm0-5h-2v-2l2,0Zm0-5h-2v-2l2,0Zm0-5h-2v-2l2,0Zm0-5h-2v-2l2,0Zm0-5h-2v-2l2,0Zm0-5h-2v-2l2,0Zm0-5h-2v-2l2,0Zm0-5h-2v-2l2,0Zm0-5h-2v-2l2,0Zm0-5h-2v-2l2,0Zm0-5h-2v-2l2,0Zm0-5h-2v-2l2,0Zm0-5h-2v-2l2,0Zm0-5h-2v-2l2,0Z"/><polygon class="cls-4" points="976.84 616.23 974.84 616.23 974.84 614.23 976.84 614.22 976.84 616.23"/><circle class="cls-5" cx="976.83" cy="306.44" r="16.77"/><path class="cls-6" d="M989,148.71v-6.37h23.46v5a37,37,0,0,0-5.91,8.2,48.1,48.1,0,0,0-4.58,11.37,42.42,42.42,0,0,0-1.55,10.75h-6.61a45.83,45.83,0,0,1,3.06-15.13,50.6,50.6,0,0,1,7.73-13.8Z"/><path class="cls-6" d="M1034.32,177.64h-6.86V151.79a23.69,23.69,0,0,1-8.86,5.2v-6.23a19.59,19.59,0,0,0,5.83-3.33,12.61,12.61,0,0,0,4.32-5.72h5.57Z"/><path class="cls-6" d="M1044.62,150.69c0-3.21.71-5.58,2.11-7.13a7.39,7.39,0,0,1,5.73-2.32,7.53,7.53,0,0,1,5.85,2.31c1.4,1.54,2.11,3.92,2.11,7.14s-.71,5.58-2.11,7.13a7.36,7.36,0,0,1-5.73,2.32,7.53,7.53,0,0,1-5.85-2.31C1045.33,156.29,1044.62,153.91,1044.62,150.69Zm5.35-.05c0,2.33.27,3.89.8,4.69a1.94,1.94,0,0,0,1.69.88,2,2,0,0,0,1.71-.88c.52-.8.78-2.36.78-4.69s-.26-3.88-.78-4.66a2.08,2.08,0,0,0-3.4,0C1050.24,146.75,1050,148.31,1050,150.64Zm7.71,28.37h-5.07l19.06-37.77h4.93Zm11.09-9.4q0-4.8,2.11-7.13a8.37,8.37,0,0,1,11.57,0q2.11,2.33,2.11,7.13t-2.11,7.16a7.36,7.36,0,0,1-5.72,2.31,7.53,7.53,0,0,1-5.85-2.31Q1068.76,174.45,1068.77,169.61Zm5.34,0c0,2.33.27,3.88.81,4.66a1.93,1.93,0,0,0,1.68.9,1.89,1.89,0,0,0,1.69-.88c.54-.79.8-2.35.8-4.68s-.26-3.89-.78-4.69a1.94,1.94,0,0,0-1.71-.88,1.89,1.89,0,0,0-1.68.88C1074.38,165.7,1074.11,167.26,1074.11,169.59Z"/><circle class="cls-7" cx="976.83" cy="200.97" r="16.77"/></svg>